{
.appVersion = "1246";
DisplayStrings = (
t
);
copyright = "Copyright 2019 The Inter project authors";
customParameters = (
{
name = vendorID;
value = RSMS;
},
{
name = panose;
value = (
2,
0,
8,
3,
0,
0,
0,
2,
0,
4
);
},
{
name = unicodeRanges;
value = (
0,
1,
2,
3,
4,
5,
6,
7,
9,
29,
30,
31,
32,
33,
34,
35,
36,
37,
38,
39,
40,
45,
47,
57,
60,
64
);
},
{
name = codePageRanges;
value = (
1252,
1250,
1251,
1253,
1254,
1257,
1258
);
},
{
name = fsType;
value = (
);
},
{
name = glyphOrder;
value = (
.notdef,
.null,
uni0041,
uni00C4,
uni00C3,
uni00C0,
uni00C1,
uni00C2,
uni00C5,
uni0100,
uni0102,
uni0104,
uni01CD,
uni01DE,
uni01E0,
uni01FA,
uni0200,
uni0202,
uni0226,
uni1E00,
uni1EA0,
uni1EA2,
uni1EA4,
uni1EA6,
uni1EA8,
uni1EAA,
uni1EAC,
uni1EAE,
uni1EB0,
uni1EB2,
uni1EB4,
uni1EB6,
uni0391,
uni0386,
uni1F08,
uni1F09,
uni1F0A,
uni1F0B,
uni1F0C,
uni1F0D,
uni1F0E,
uni1F0F,
uni1FB8,
uni1FB9,
uni1FBA,
uni023A,
uni1FBB,
uni0410,
uni04D0,
uni04D2,
uni1F88,
uni1F89,
uni1F8A,
uni1F8B,
uni1F8C,
uni1F8D,
uni1F8E,
uni1F8F,
uni1FBC,
uni039B,
uni00C6,
uni01E2,
uni01FC,
uni04D4,
uni0042,
uni1E02,
uni1E04,
uni1E06,
uni0243,
uni0181,
uni0412,
uni0392,
uni0043,
uni0187,
uni00C7,
uni0106,
uni0108,
uni010A,
uni010C,
uni1E08,
uni023B,
uni0186,
uni03F9,
uni0044,
uni018A,
uni010E,
uni1E0A,
uni1E0C,
uni1E0E,
uni1E10,
uni1E12,
uni0189,
uni01F2,
uni01C5,
uni0045,
uni00C8,
uni00C9,
uni00CA,
uni00CB,
uni0112,
uni0114,
uni0116,
uni0118,
uni011A,
uni0204,
uni0206,
uni0228,
uni1E14,
uni1E16,
uni1E18,
uni1E1A,
uni1E1C,
uni1EB8,
uni1EBA,
uni1EBC,
uni1EBE,
uni1EC0,
uni1EC2,
uni1EC4,
uni1EC6,
uni0246,
uni018E,
uni0395,
uni0388,
uni1F18,
uni1F19,
uni1F1A,
uni1F1B,
uni1F1C,
uni1F1D,
uni1FC8,
uni1FC9,
uni0415,
uni0400,
uni0401,
uni04D6,
uni0046,
uni0191,
uni1E1E,
uni2132,
uni0047,
uni01E4,
uni0193,
uni011C,
uni011E,
uni0120,
uni0122,
uni01E6,
uni01F4,
uni1E20,
uniE002,
uniE003,
uniE004,
uniE005,
uniE006,
uniE007,
uniE008,
uniE009,
uniE00A,
uniE00B,
uni0048,
uni1E28,
uni0124,
uni021E,
uni1E22,
uni1E24,

glyphs = (
{
glyphname = .notdef;
layers = (
{
layerId = "17EDFB39-10F1-469C-9F8C-2D18680A40AF";
paths = (
{
closed = 1;
nodes = (
"2665 -640 LINE",
"2665 -128 LINE",
"291 -128 LINE",
"291 -640 LINE"
);
},
{
closed = 1;
nodes = (
"2665 64 LINE",
"2665 576 LINE",
"291 576 LINE",
"291 64 LINE"
);
},
{
closed = 1;
nodes = (
"2665 768 LINE",
"2665 1280 LINE",
"291 1280 LINE",
"291 768 LINE"
);
},
{
closed = 1;
nodes = (
"2665 1472 LINE",
"2665 1984 LINE",
"291 1984 LINE",
"291 1472 LINE"
);
},
{
closed = 1;
nodes = (
"2665 2176 LINE",
"2665 2688 LINE",
"291 2688 LINE",
"291 2176 LINE"
);
}
);
width = 2956;
}
);
note = .notdef;
},
{
glyphname = uni0041;
layers = (
{
layerId = "17EDFB39-10F1-469C-9F8C-2D18680A40AF";
paths = (
{
closed = 1;
nodes = (
"683 467 LINE",
"1422 467 LINE",
"1574 0 LINE",
"2038 0 LINE",
"1332 2048 LINE",
"774 2048 LINE",
"67 0 LINE",
"531 0 LINE"
);
},
{
closed = 1;
nodes = (
"1045 1580 LINE",
"1061 1580 LINE",
"1313 805 LINE",
"793 805 LINE"
);
}
);
width = 2106;
}
);
leftKerningGroup = uni0041;
note = uni0041;
rightKerningGroup = uni0041;
unicode = 0041;
},
{
glyphname = uni023A;
layers = (
{
layerId = "17EDFB39-10F1-469C-9F8C-2D18680A40AF";
paths = (
{
closed = 1;
nodes = (
"1457 2308 LINE",
"1353 1987 LINE",
"1332 2048 LINE",
"774 2048 LINE",
"67 0 LINE",
"531 0 LINE",
"683 467 LINE",
"861 467 LINE",
"626 -260 LINE",
"888 -260 LINE",
"1123 467 LINE",
"1422 467 LINE",
"1574 0 LINE",
"2038 0 LINE",
"1488 1596 LINE",
"1718 2308 LINE"
);
},
{
closed = 1;
nodes = (
"793 805 LINE",
"1045 1580 LINE",
"1061 1580 LINE",
"1141 1333 LINE",
"971 805 LINE"
);
},
{
closed = 1;
nodes = (
"1313 805 LINE",
"1232 805 LINE",
"1272 929 LINE"
);
}
);
width = 2106;
}
);
leftKerningGroup = uni0041;
note = uni023A;
rightKerningGroup = uni0041;
unicode = 023A;
},
{
glyphname = uni039B;
layers = (
{
layerId = "17EDFB39-10F1-469C-9F8C-2D18680A40AF";
paths = (
{
closed = 1;
nodes = (
"1045 1580 LINE",
"1061 1580 LINE",
"1574 0 LINE",
"2038 0 LINE",
"1332 2048 LINE",
"774 2048 LINE",
"67 0 LINE",
"531 0 LINE"
);
}
);
width = 2106;
}
);
leftKerningGroup = uni0041;
note = uni039B;
rightKerningGroup = uni0041;
unicode = 039B;
},
{
glyphname = uni00C6;
layers = (
{
layerId = "17EDFB39-10F1-469C-9F8C-2D18680A40AF";
paths = (
{
closed = 1;
nodes = (
"543 0 LINE",
"735 467 LINE",
"1354 467 LINE",
"1354 0 LINE",
"2738 0 LINE",
"2738 357 LINE",
"1787 357 LINE",
"1787 846 LINE",
"2663 846 LINE",
"2663 1203 LINE",
"1787 1203 LINE",
"1787 1691 LINE",
"2734 1691 LINE",
"2734 2048 LINE",
"944 2048 LINE",
"67 0 LINE"
);
},
{
closed = 1;
nodes = (
"1211 1622 LINE",
"1354 1622 LINE",
"1354 805 LINE",
"875 805 LINE"
);
}
);
width = 2901;
}
);
leftKerningGroup = uni0041;
note = uni00C6;
rightKerningGroup = uni00C6;
unicode = 00C6;
},
{
glyphname = uni0042;
layers = (
{
layerId = "17EDFB39-10F1-469C-9F8C-2D18680A40AF";
paths = (
{
closed = 1;
nodes = (
"1053 0 LINE SMOOTH",
"1283 0 OFFCURVE",
"1597 147 OFFCURVE",
"1758 403 OFFCURVE",
"1758 566 QCURVE SMOOTH",
"1758 718 OFFCURVE",
"1630 936 OFFCURVE",
"1425 1058 OFFCURVE",
"1308 1063 QCURVE",
"1308 1083 LINE",
"1468 1119 OFFCURVE",
"1678 1342 OFFCURVE",
"1678 1523 QCURVE SMOOTH",
"1678 1753 OFFCURVE",
"1337 2048 OFFCURVE",
"998 2048 QCURVE SMOOTH",
"178 2048 LINE",
"178 0 LINE"
);
},
{
closed = 1;
nodes = (
"611 898 LINE",
"974 898 LINE SMOOTH",
"1130 898 OFFCURVE",
"1311 736 OFFCURVE",
"1311 609 QCURVE SMOOTH",
"1311 494 OFFCURVE",
"1146 354 OFFCURVE",
"964 354 QCURVE SMOOTH",
"611 354 LINE"
);
},
{
closed = 1;
nodes = (
"611 1698 LINE",
"940 1698 LINE SMOOTH",
"1084 1698 OFFCURVE",
"1241 1562 OFFCURVE",
"1241 1451 QCURVE SMOOTH",
"1241 1330 OFFCURVE",
"1065 1191 OFFCURVE",
"932 1191 QCURVE SMOOTH",
"611 1191 LINE"
);
}
);
width = 1861;
}
);
leftKerningGroup = uni0042;
note = uni0042;
rightKerningGroup = uni0042;
unicode = 0042;
},
{
glyphname = uni0181;
layers = (
{
layerId = "17EDFB39-10F1-469C-9F8C-2D18680A40AF";
paths = (
{
closed = 1;
nodes = (
"1632 0 LINE SMOOTH",
"1862 0 OFFCURVE",
"2176 147 OFFCURVE",
"2337 403 OFFCURVE",
"2337 566 QCURVE SMOOTH",
"2337 718 OFFCURVE",
"2209 936 OFFCURVE",
"2004 1058 OFFCURVE",
"1887 1063 QCURVE",
"1887 1083 LINE",
"2047 1119 OFFCURVE",
"2257 1342 OFFCURVE",
"2257 1523 QCURVE SMOOTH",
"2257 1753 OFFCURVE",
"1916 2048 OFFCURVE",
"1577 2048 QCURVE SMOOTH",
"686 2048 LINE SMOOTH",
"413 2048 OFFCURVE",
"99 1762 OFFCURVE",
"100 1520 QCURVE SMOOTH",
"100 1319 LINE",
"486 1319 LINE",
"486 1438 LINE SMOOTH",
"485 1500 OFFCURVE",
"517 1618 OFFCURVE",
"604 1694 OFFCURVE",
"687 1694 QCURVE SMOOTH",
"757 1694 LINE",
"757 0 LINE"
);
},
{
closed = 1;
nodes = (
"1190 898 LINE",
"1553 898 LINE SMOOTH",
"1709 898 OFFCURVE",
"1890 736 OFFCURVE",
"1890 609 QCURVE SMOOTH",
"1890 494 OFFCURVE",
"1725 354 OFFCURVE",
"1543 354 QCURVE SMOOTH",
"1190 354 LINE"
);
},
{
closed = 1;
nodes = (
"1190 1698 LINE",
"1519 1698 LINE SMOOTH",
"1663 1698 OFFCURVE",
"1820 1562 OFFCURVE",
"1820 1451 QCURVE SMOOTH",
"1820 1330 OFFCURVE",
"1644 1191 OFFCURVE",
"1511 1191 QCURVE SMOOTH",
"1190 1191 LINE"
);
}
);
width = 2440;
}
);
leftKerningGroup = uni0042;
note = uni0181;
rightKerningGroup = uni0042;
unicode = 0181;
},
{
glyphname = uni0043;
layers = (
{
layerId = "17EDFB39-10F1-469C-9F8C-2D18680A40AF";
paths = (
{
closed = 1;
nodes = (
"1957 1568 OFFCURVE",
"1714 1901 OFFCURVE",
"1333 2076 OFFCURVE",
"1096 2076 QCURVE SMOOTH",
"826 2076 OFFCURVE",
"394 1829 OFFCURVE",
"142 1359 OFFCURVE",
"142 1024 QCURVE SMOOTH",
"142 690 OFFCURVE",
"391 220 OFFCURVE",
"822 -28 OFFCURVE",
"1096 -28 QCURVE SMOOTH",
"1359 -28 OFFCURVE",
"1740 178 OFFCURVE",
"1962 510 OFFCURVE",
"1985 698 QCURVE",
"1547 700 LINE",
"1516 536 OFFCURVE",
"1276 355 OFFCURVE",
"1103 355 QCURVE SMOOTH",
"870 355 OFFCURVE",
"581 696 OFFCURVE",
"581 1024 QCURVE SMOOTH",
"581 1344 OFFCURVE",
"868 1693 OFFCURVE",
"1106 1693 QCURVE SMOOTH",
"1284 1693 OFFCURVE",
"1522 1500 OFFCURVE",
"1547 1331 QCURVE",
"1985 1331 LINE"
);
}
);
width = 2118;
}
);
leftKerningGroup = uni0043;
note = uni0043;
rightKerningGroup = uni0043;
unicode = 0043;
},
{
glyphname = uni0187;
layers = (
{
layerId = "17EDFB39-10F1-469C-9F8C-2D18680A40AF";
paths = (
{
closed = 1;
nodes = (
"1985 1503 LINE SMOOTH",
"1985 1600 OFFCURVE",
"2070 1712 OFFCURVE",
"2198 1759 OFFCURVE",
"2262 1759 QCURVE SMOOTH",
"2286 1759 OFFCURVE",
"2359 1755 OFFCURVE",
"2383 1754 QCURVE",
"2383 2098 LINE",
"2329 2107 OFFCURVE",
"2233 2110 OFFCURVE",
"2180 2110 QCURVE SMOOTH",
"2028 2110 OFFCURVE",
"1764 2000 OFFCURVE",
"1680 1895 QCURVE",
"1444 2076 OFFCURVE",
"1096 2076 QCURVE SMOOTH",
"826 2076 OFFCURVE",
"394 1829 OFFCURVE",
"142 1359 OFFCURVE",
"142 1024 QCURVE SMOOTH",
"142 690 OFFCURVE",
"391 220 OFFCURVE",
"822 -28 OFFCURVE",
"1096 -28 QCURVE SMOOTH",
"1359 -28 OFFCURVE",
"1740 178 OFFCURVE",
"1962 510 OFFCURVE",
"1985 698 QCURVE",
"1547 700 LINE",
"1516 536 OFFCURVE",
"1276 355 OFFCURVE",
"1103 355 QCURVE SMOOTH",
"870 355 OFFCURVE",
"581 696 OFFCURVE",
"581 1024 QCURVE SMOOTH",
"581 1344 OFFCURVE",
"868 1693 OFFCURVE",
"1106 1693 QCURVE SMOOTH",
"1284 1693 OFFCURVE",
"1522 1500 OFFCURVE",
"1547 1331 QCURVE",
"1985 1331 LINE"
);
}
);
width = 2359;
}
);
leftKerningGroup = uni0043;
note = uni0187;
rightKerningGroup = uni0043;
unicode = 0187;
},
{
glyphname = uni023B;
layers = (
{
layerId = "17EDFB39-10F1-469C-9F8C-2D18680A40AF";
paths = (
{
closed = 1;
nodes = (
"781 -260 LINE",
"864 -3 LINE",
"975 -28 OFFCURVE",
"1096 -28 QCURVE SMOOTH",
"1359 -28 OFFCURVE",
"1740 178 OFFCURVE",
"1962 510 OFFCURVE",
"1985 698 QCURVE",
"1547 700 LINE",
"1516 536 OFFCURVE",
"1276 355 OFFCURVE",
"1103 355 QCURVE SMOOTH",
"1041 355 OFFCURVE",
"984 367 QCURVE",
"1385 1610 LINE",
"1520 1512 OFFCURVE",
"1547 1331 QCURVE",
"1985 1331 LINE",
"1956 1572 OFFCURVE",
"1704 1909 OFFCURVE",
"1510 1995 QCURVE",
"1611 2308 LINE",
"1350 2308 LINE",
"1271 2063 LINE",
"1186 2076 OFFCURVE",
"1096 2076 QCURVE SMOOTH",
"826 2076 OFFCURVE",
"394 1829 OFFCURVE",
"142 1359 OFFCURVE",
"142 1024 QCURVE SMOOTH",
"142 680 OFFCURVE",
"407 202 OFFCURVE",
"630 83 QCURVE",
"519 -260 LINE"
);
},
{
closed = 1;
nodes = (
"676 570 OFFCURVE",
"581 840 OFFCURVE",
"581 1024 QCURVE SMOOTH",
"581 1344 OFFCURVE",
"868 1693 OFFCURVE",
"1106 1693 QCURVE SMOOTH",
"1129 1693 OFFCURVE",
"1150 1691 QCURVE",
"761 487 LINE"
);
}
);
width = 2118;
}
);
leftKerningGroup = uni0043;
note = uni023B;
rightKerningGroup = uni0043;
unicode = 023B;
},
{
glyphname = uni0186;
layers = (
{
layerId = "17EDFB39-10F1-469C-9F8C-2D18680A40AF";
paths = (
{
closed = 1;
nodes = (
"1296 -28 OFFCURVE",
"1727 220 OFFCURVE",
"1976 691 OFFCURVE",
"1976 1024 QCURVE SMOOTH",
"1976 1359 OFFCURVE",
"1724 1829 OFFCURVE",
"1292 2076 OFFCURVE",
"1022 2076 QCURVE SMOOTH",
"785 2076 OFFCURVE",
"403 1901 OFFCURVE",
"162 1568 OFFCURVE",
"133 1331 QCURVE",
"570 1331 LINE",
"596 1501 OFFCURVE",
"834 1693 OFFCURVE",
"1012 1693 QCURVE SMOOTH",
"1250 1693 OFFCURVE",
"1537 1344 OFFCURVE",
"1537 1024 QCURVE SMOOTH",
"1537 696 OFFCURVE",
"1248 355 OFFCURVE",
"1014 355 QCURVE SMOOTH",
"841 355 OFFCURVE",
"601 536 OFFCURVE",
"570 700 QCURVE",
"133 698 LINE",
"157 510 OFFCURVE",
"378 178 OFFCURVE",
"760 -28 OFFCURVE",
"1022 -28 QCURVE SMOOTH"
);
}
);
width = 2118;
}
);
leftKerningGroup = uni0043;
note = uni0186;
rightKerningGroup = uni0043;
unicode = 0186;
},
{
glyphname = uni0044;
layers = (
{
layerId = "17EDFB39-10F1-469C-9F8C-2D18680A40AF";
paths = (
{
closed = 1;
nodes = (
"1216 0 OFFCURVE",
"1665 246 OFFCURVE",
"1906 706 OFFCURVE",
"1906 1026 QCURVE SMOOTH",
"1906 1345 OFFCURVE",
"1666 1803 OFFCURVE",
"1219 2048 OFFCURVE",
"910 2048 QCURVE SMOOTH",
"178 2048 LINE",
"178 0 LINE",
"904 0 LINE SMOOTH"
);
},
{
closed = 1;
nodes = (
"611 1677 LINE",
"887 1677 LINE SMOOTH",
"1175 1677 OFFCURVE",
"1474 1367 OFFCURVE",
"1474 1026 QCURVE SMOOTH",
"1474 683 OFFCURVE",
"1175 371 OFFCURVE",
"886 371 QCURVE SMOOTH",
"611 371 LINE"
);
}
);
width = 2048;
}
);
leftKerningGroup = uni0042;
note = uni0044;
rightKerningGroup = uni0044;
unicode = 0044;
},
{
glyphname = uni018A;
layers = (
{
layerId = "17EDFB39-10F1-469C-9F8C-2D18680A40AF";
paths = (
{
closed = 1;
nodes = (
"486 1319 LINE",
"486 1438 LINE SMOOTH",
"485 1531 OFFCURVE",
"563 1677 OFFCURVE",
"687 1677 QCURVE SMOOTH",
"766 1677 LINE",
"766 0 LINE",
"1492 0 LINE SMOOTH",
"1804 0 OFFCURVE",
"2253 246 OFFCURVE",
"2494 706 OFFCURVE",
"2494 1026 QCURVE SMOOTH",
"2494 1345 OFFCURVE",
"2254 1803 OFFCURVE",
"1807 2048 OFFCURVE",
"1498 2048 QCURVE SMOOTH",
"686 2048 LINE SMOOTH",
"413 2048 OFFCURVE",
"99 1762 OFFCURVE",
"100 1520 QCURVE SMOOTH",
"100 1319 LINE"
);
},
{
closed = 1;
nodes = (
"1475 1677 LINE SMOOTH",
"1763 1677 OFFCURVE",
"2062 1367 OFFCURVE",
"2062 1026 QCURVE SMOOTH",
"2062 683 OFFCURVE",
"1763 371 OFFCURVE",
"1474 371 QCURVE SMOOTH",
"1199 371 LINE",
"1199 1677 LINE"
);
}
);
width = 2636;
}
);
leftKerningGroup = uni0042;
note = uni018A;
rightKerningGroup = uni0044;
unicode = 018A;
},
{
glyphname = uni0045;
layers = (
{
layerId = "17EDFB39-10F1-469C-9F8C-2D18680A40AF";
paths = (
{
closed = 1;
nodes = (
"1562 0 LINE",
"1562 357 LINE",
"611 357 LINE",
"611 846 LINE",
"1487 846 LINE",
"1487 1203 LINE",
"611 1203 LINE",
"611 1691 LINE",
"1558 1691 LINE",
"1558 2048 LINE",
"178 2048 LINE",
"178 0 LINE"
);
}
);
width = 1725;
}
);
leftKerningGroup = uni0042;
note = uni0045;
rightKerningGroup = uni00C6;
unicode = 0045;
},
{
glyphname = uni0246;
layers = (
{
layerId = "17EDFB39-10F1-469C-9F8C-2D18680A40AF";
paths = (
{
closed = 1;
nodes = (
"1184 2308 LINE",
"1109 2048 LINE",
"178 2048 LINE",
"178 0 LINE",
"519 0 LINE",
"444 -260 LINE",
"672 -260 LINE",
"747 0 LINE",
"1562 0 LINE",
"1562 357 LINE",
"850 357 LINE",
"991 846 LINE",
"1487 846 LINE",
"1487 1203 LINE",
"1094 1203 LINE",
"1234 1691 LINE",
"1558 1691 LINE",
"1558 2048 LINE",
"1337 2048 LINE",
"1412 2308 LINE"
);
},
{
closed = 1;
nodes = (
"866 1203 LINE",
"611 1203 LINE",
"611 1691 LINE",
"1006 1691 LINE"
);
},
{
closed = 1;
nodes = (
"622 357 LINE",
"611 357 LINE",
"611 846 LINE",
"763 846 LINE"
);
}
);
width = 1725;
}
);
leftKerningGroup = uni0042;
note = uni0246;
rightKerningGroup = uni00C6;
unicode = 0246;
},
{
glyphname = uni0046;
layers = (
{
layerId = "17EDFB39-10F1-469C-9F8C-2D18680A40AF";
paths = (
{
closed = 1;
nodes = (
"611 0 LINE",
"611 846 LINE",
"1444 846 LINE",
"1444 1203 LINE",
"611 1203 LINE",
"611 1691 LINE",
"1534 1691 LINE",
"1534 2048 LINE",
"178 2048 LINE",
"178 0 LINE"
);
}
);
width = 1647;
}
);
leftKerningGroup = uni0042;
note = uni0046;
rightKerningGroup = uni0046;
unicode = 0046;
},
{
glyphname = uni0191;
layers = (
{
layerId = "17EDFB39-10F1-469C-9F8C-2D18680A40AF";
paths = (
{
closed = 1;
nodes = (
"241 -93 LINE SMOOTH",
"241 -182 OFFCURVE",
"112 -243 OFFCURVE",
"28 -243 QCURVE SMOOTH",
"24 -243 OFFCURVE",
"16 -243 QCURVE SMOOTH",
"-1 -243 OFFCURVE",
"-42 -243 OFFCURVE",
"-58 -240 QCURVE",
"-58 -566 LINE",
"-14 -573 OFFCURVE",
"88 -576 OFFCURVE",
"117 -576 QCURVE SMOOTH",
"266 -576 OFFCURVE",
"519 -500 OFFCURVE",
"674 -292 OFFCURVE",
"674 -94 QCURVE SMOOTH",
"674 0 LINE",
"673 0 LINE",
"673 846 LINE",
"1506 846 LINE",
"1506 1203 LINE",
"673 1203 LINE",
"673 1691 LINE",
"1596 1691 LINE",
"1596 2048 LINE",
"240 2048 LINE",
"240 0 LINE",
"241 0 LINE"
);
}
);
width = 1710;
}
);
leftKerningGroup = uni0191;
note = uni0191;
rightKerningGroup = uni0046;
unicode = 0191;
},
{
glyphname = uni0047;
lastChange = "2019-07-09 01:00:47 +0000";
layers = (
{
layerId = "17EDFB39-10F1-469C-9F8C-2D18680A40AF";
paths = (
{
closed = 1;
nodes = (
"1298 -28 OFFCURVE",
"1578 109 OFFCURVE",
"1681 234 QCURVE",
"1692 234 LINE",
"1717 0 LINE",
"2013 0 LINE",
"2013 1096 LINE",
"1138 1096 LINE",
"1138 770 LINE",
"1586 770 LINE",
"1580 584 OFFCURVE",
"1330 355 OFFCURVE",
"1111 355 QCURVE SMOOTH",
"870 355 OFFCURVE",
"581 705 OFFCURVE",
"581 1026 QCURVE SMOOTH",
"581 1346 OFFCURVE",
"881 1693 OFFCURVE",
"1116 1693 QCURVE SMOOTH",
"1283 1693 OFFCURVE",
"1518 1532 OFFCURVE",
"1558 1386 QCURVE",
"1996 1386 LINE",
"1968 1590 OFFCURVE",
"1722 1901 OFFCURVE",
"1341 2076 OFFCURVE",
"1109 2076 QCURVE SMOOTH",
"839 2076 OFFCURVE",
"400 1826 OFFCURVE",
"142 1354 OFFCURVE",
"142 1022 QCURVE SMOOTH",
"142 698 OFFCURVE",
"386 227 OFFCURVE",
"822 -28 OFFCURVE",
"1109 -28 QCURVE SMOOTH"
);
}
);
width = 2142;
}
);
leftKerningGroup = uni0043;
note = uni0047;
rightKerningGroup = uni0047;
unicode = 0047;
},
{
glyphname = uni01E4;
layers = (
{
layerId = "17EDFB39-10F1-469C-9F8C-2D18680A40AF";
paths = (
{
closed = 1;
nodes = (
"1981 662 LINE",
"1995 747 OFFCURVE",
"1995 838 QCURVE SMOOTH",
"1995 1096 LINE",
"1138 1096 LINE",
"1138 770 LINE",
"1578 770 LINE",
"1577 713 OFFCURVE",
"1564 662 QCURVE",
"1138 662 LINE",
"1138 508 LINE",
"1489 508 LINE",
"1364 355 OFFCURVE",
"1111 355 QCURVE SMOOTH",
"867 355 OFFCURVE",
"581 705 OFFCURVE",
"581 1026 QCURVE SMOOTH",
"581 1346 OFFCURVE",
"872 1693 OFFCURVE",
"1107 1693 QCURVE SMOOTH",
"1274 1693 OFFCURVE",
"1495 1530 OFFCURVE",
"1536 1386 QCURVE",
"1976 1386 LINE",
"1948 1589 OFFCURVE",
"1708 1900 OFFCURVE",
"1332 2076 OFFCURVE",
"1100 2076 QCURVE SMOOTH",
"830 2076 OFFCURVE",
"396 1826 OFFCURVE",
"142 1354 OFFCURVE",
"142 1022 QCURVE SMOOTH",
"142 698 OFFCURVE",
"385 227 OFFCURVE",
"821 -28 OFFCURVE",
"1109 -28 QCURVE SMOOTH",
"1410 -28 OFFCURVE",
"1852 253 OFFCURVE",
"1942 508 QCURVE",
"2090 508 LINE",
"2090 662 LINE"
);
}
);
width = 2142;
}
);
leftKerningGroup = uni0043;
note = uni01E4;
rightKerningGroup = uni0047;
unicode = 01E4;
},
{
glyphname = uni0193;
layers = (
{
layerId = "17EDFB39-10F1-469C-9F8C-2D18680A40AF";
paths = (
{
closed = 1;
nodes = (
"1975 1393 OFFCURVE",
"1974 1400 QCURVE",
"1974 1698 LINE SMOOTH",
"1974 1824 OFFCURVE",
"2134 1899 OFFCURVE",
"2239 1899 QCURVE SMOOTH",
"2269 1899 OFFCURVE",
"2329 1892 OFFCURVE",
"2358 1889 QCURVE",
"2358 2228 LINE",
"2261 2252 OFFCURVE",
"2158 2252 QCURVE SMOOTH",
"1973 2252 OFFCURVE",
"1669 2097 OFFCURVE",
"1593 1949 QCURVE",
"1489 2010 OFFCURVE",
"1239 2076 OFFCURVE",
"1100 2076 QCURVE SMOOTH",
"830 2076 OFFCURVE",
"396 1826 OFFCURVE",
"142 1354 OFFCURVE",
"142 1022 QCURVE SMOOTH",
"142 698 OFFCURVE",
"385 227 OFFCURVE",
"821 -28 OFFCURVE",
"1109 -28 QCURVE SMOOTH",
"1368 -28 OFFCURVE",
"1767 180 OFFCURVE",
"1995 569 OFFCURVE",
"1995 838 QCURVE SMOOTH",
"1995 1096 LINE",
"1138 1096 LINE",
"1138 770 LINE",
"1578 770 LINE",
"1574 580 OFFCURVE",
"1327 355 OFFCURVE",
"1111 355 QCURVE SMOOTH",
"867 355 OFFCURVE",
"581 705 OFFCURVE",
"581 1026 QCURVE SMOOTH",
"581 1346 OFFCURVE",
"872 1693 OFFCURVE",
"1107 1693 QCURVE SMOOTH",
"1271 1693 OFFCURVE",
"1490 1535 OFFCURVE",
"1533 1396 QCURVE",
"1533 1386 LINE",
"1976 1386 LINE"
);
}
);
width = 2349;
}
);
leftKerningGroup = uni0043;
note = uni0193;
rightKerningGroup = uni0047;
unicode = 0193;
},
{
glyphname = uniE002;
layers = (
{
layerId = "17EDFB39-10F1-469C-9F8C-2D18680A40AF";
paths = (
{
closed = 1;
nodes = (
"1298 -28 OFFCURVE",
"1578 109 OFFCURVE",
"1681 234 QCURVE",
"1692 234 LINE",
"1717 0 LINE",
"2013 0 LINE",
"2013 1096 LINE",
"1138 1096 LINE",
"1138 770 LINE",
"1586 770 LINE",
"1580 584 OFFCURVE",
"1330 355 OFFCURVE",
"1111 355 QCURVE SMOOTH",
"870 355 OFFCURVE",
"581 705 OFFCURVE",
"581 1026 QCURVE SMOOTH",
"581 1346 OFFCURVE",
"881 1693 OFFCURVE",
"1116 1693 QCURVE SMOOTH",
"1283 1693 OFFCURVE",
"1518 1532 OFFCURVE",
"1558 1386 QCURVE",
"1996 1386 LINE",
"1968 1590 OFFCURVE",
"1722 1901 OFFCURVE",
"1341 2076 OFFCURVE",
"1109 2076 QCURVE SMOOTH",
"839 2076 OFFCURVE",
"400 1826 OFFCURVE",
"142 1354 OFFCURVE",
"142 1022 QCURVE SMOOTH",
"142 698 OFFCURVE",
"386 227 OFFCURVE",
"822 -28 OFFCURVE",
"1109 -28 QCURVE SMOOTH"
);
}
);
width = 2160;
}
);
leftKerningGroup = uni0043;
note = uniE002;
rightKerningGroup = uniE002;
unicode = E002;
},
{
glyphname = uniE003;
layers = (
{
layerId = "17EDFB39-10F1-469C-9F8C-2D18680A40AF";
paths = (
{
closed = 1;
nodes = (
"2013 662 LINE",
"2013 1096 LINE",
"1138 1096 LINE",
"1138 770 LINE",
"1586 770 LINE",
"1584 713 OFFCURVE",
"1571 662 QCURVE",
"1138 662 LINE",
"1138 508 LINE",
"1492 508 LINE",
"1432 436 OFFCURVE",
"1239 355 OFFCURVE",
"1111 355 QCURVE SMOOTH",
"870 355 OFFCURVE",
"581 705 OFFCURVE",
"581 1026 QCURVE SMOOTH",
"581 1346 OFFCURVE",
"881 1693 OFFCURVE",
"1116 1693 QCURVE SMOOTH",
"1283 1693 OFFCURVE",
"1518 1532 OFFCURVE",
"1558 1386 QCURVE",
"1996 1386 LINE",
"1968 1590 OFFCURVE",
"1722 1901 OFFCURVE",
"1341 2076 OFFCURVE",
"1109 2076 QCURVE SMOOTH",
"839 2076 OFFCURVE",
"400 1826 OFFCURVE",
"142 1354 OFFCURVE",
"142 1022 QCURVE SMOOTH",
"142 698 OFFCURVE",
"386 227 OFFCURVE",
"822 -28 OFFCURVE",
"1109 -28 QCURVE SMOOTH",
"1298 -28 OFFCURVE",
"1578 109 OFFCURVE",
"1681 234 QCURVE",
"1692 234 LINE",
"1717 0 LINE",
"2013 0 LINE",
"2013 508 LINE",
"2110 508 LINE",
"2110 662 LINE"
);
}
);
width = 2162;
}
);
note = uniE003;
unicode = E003;
},
{
glyphname = uniE004;
layers = (
{
layerId = "17EDFB39-10F1-469C-9F8C-2D18680A40AF";
paths = (
{
closed = 1;
nodes = (
"1996 1698 LINE SMOOTH",
"1996 1824 OFFCURVE",
"2156 1899 OFFCURVE",
"2261 1899 QCURVE SMOOTH",
"2291 1899 OFFCURVE",
"2351 1892 OFFCURVE",
"2380 1889 QCURVE",
"2380 2228 LINE",
"2281 2252 OFFCURVE",
"2179 2252 QCURVE SMOOTH",
"1994 2252 OFFCURVE",
"1688 2095 OFFCURVE",
"1613 1946 QCURVE",
"1506 2008 OFFCURVE",
"1251 2076 OFFCURVE",
"1109 2076 QCURVE SMOOTH",
"839 2076 OFFCURVE",
"400 1826 OFFCURVE",
"142 1354 OFFCURVE",
"142 1022 QCURVE SMOOTH",
"142 698 OFFCURVE",
"386 227 OFFCURVE",
"822 -28 OFFCURVE",
"1109 -28 QCURVE SMOOTH",
"1298 -28 OFFCURVE",
"1578 109 OFFCURVE",
"1681 234 QCURVE",
"1692 234 LINE",
"1717 0 LINE",
"2013 0 LINE",
"2013 1096 LINE",
"1138 1096 LINE",
"1138 770 LINE",
"1586 770 LINE",
"1580 584 OFFCURVE",
"1330 355 OFFCURVE",
"1111 355 QCURVE SMOOTH",
"870 355 OFFCURVE",
"581 705 OFFCURVE",
"581 1026 QCURVE SMOOTH",
"581 1346 OFFCURVE",
"881 1693 OFFCURVE",
"1116 1693 QCURVE SMOOTH",
"1279 1693 OFFCURVE",
"1511 1539 OFFCURVE",
"1554 1399 QCURVE",
"1554 1386 LINE",
"1996 1386 LINE"
);
}
);
width = 2349;
}
);
note = uniE004;
unicode = E004;
},
{
glyphname = uni0048;
layers = (
{
layerId = "17EDFB39-10F1-469C-9F8C-2D18680A40AF";
paths = (
{
closed = 1;
nodes = (
"611 0 LINE",
"611 846 LINE",
"1490 846 LINE",
"1490 0 LINE",
"1922 0 LINE",
"1922 2048 LINE",
"1490 2048 LINE",
"1490 1203 LINE",
"611 1203 LINE",
"611 2048 LINE",
"178 2048 LINE",
"178 0 LINE"
);
}
);
width = 2101;
}
);
leftKerningGroup = uni0042;
note = uni0048;
rightKerningGroup = uni018E;
unicode = 0048;
},
{
glyphname = uni0126;
layers = (
{
layerId = "17EDFB39-10F1-469C-9F8C-2D18680A40AF";
paths = (
{
closed = 1;
nodes = (
"2012 1693 LINE",
"2012 2048 LINE",
"1580 2048 LINE",
"1580 1693 LINE",
"701 1693 LINE",
"701 2048 LINE",
"268 2048 LINE",
"268 1693 LINE",
"100 1693 LINE",
"100 1451 LINE",
"268 1451 LINE",
"268 0 LINE",
"701 0 LINE",
"701 846 LINE",
"1580 846 LINE",
"1580 0 LINE",
"2012 0 LINE",
"2012 1451 LINE",
"2182 1451 LINE",
"2182 1693 LINE"
);
},
{
closed = 1;
nodes = (
"1580 1203 LINE",
"701 1203 LINE",
"701 1451 LINE",
"1580 1451 LINE"
);
}
);
width = 2282;
}
);
leftKerningGroup = uni0042;
note = uni0126;
rightKerningGroup = uni018E;
unicode = 0126;
},
{
glyphname = uni04C7;
layers = (
{
layerId = "17EDFB39-10F1-469C-9F8C-2D18680A40AF";
paths = (
{
closed = 1;
nodes = (
"611 0 LINE",
"611 846 LINE",
"1490 846 LINE",
"1490 -74 LINE SMOOTH",
"1490 -186 OFFCURVE",
"1333 -258 OFFCURVE",
"1238 -258 QCURVE SMOOTH",
"1213 -258 OFFCURVE",
"1140 -251 OFFCURVE",
"1117 -250 QCURVE",
"1117 -595 LINE",
"1132 -599 OFFCURVE",
"1226 -607 OFFCURVE",
"1274 -607 QCURVE SMOOTH",
"1490 -607 OFFCURVE",
"1748 -505 OFFCURVE",
"1879 -345 OFFCURVE",
"1922 -171 OFFCURVE",
"1922 -99 QCURVE SMOOTH",
"1922 2048 LINE",
"1490 2048 LINE",
"1490 1203 LINE",
"611 1203 LINE",
"611 2048 LINE",
"178 2048 LINE",
"178 0 LINE"
);
}
);
width = 2101;
}
);
leftKerningGroup = uni0042;
note = uni04C7;
rightKerningGroup = uni018E;
unicode = 04C7;
},
{
glyphname = uni04A4;
layers = (
{
layerId = "17EDFB39-10F1-469C-9F8C-2D18680A40AF";
paths = (
{
closed = 1;
nodes = (
"1490 2048 LINE",
"1490 1203 LINE",
"611 1203 LINE",
"611 2048 LINE",
"178 2048 LINE",
"178 0 LINE",
"611 0 LINE",
"611 846 LINE",
"1490 846 LINE",
"1490 0 LINE",
"1922 0 LINE",
"1922 1691 LINE",
"2734 1691 LINE",
"2734 2048 LINE"
);
}
);
width = 2834;
}
);
leftKerningGroup = uni0042;
note = uni04A4;
rightKerningGroup = uni04A4;
unicode = 04A4;
},
{
glyphname = uni01F6;
layers = (
{
layerId = "17EDFB39-10F1-469C-9F8C-2D18680A40AF";
paths = (
{
closed = 1;
nodes = (
"2587 -28 OFFCURVE",
"2992 346 OFFCURVE",
"2992 689 QCURVE SMOOTH",
"2992 1495 LINE",
"2559 1495 LINE",
"2559 689 LINE SMOOTH",
"2559 516 OFFCURVE",
"2394 337 OFFCURVE",
"2243 337 QCURVE SMOOTH",
"2092 337 OFFCURVE",
"1922 516 OFFCURVE",
"1922 689 QCURVE SMOOTH",
"1922 2048 LINE",
"1490 2048 LINE",
"1490 1203 LINE",
"611 1203 LINE",
"611 2048 LINE",
"178 2048 LINE",
"178 0 LINE",
"611 0 LINE",
"611 846 LINE",
"1490 846 LINE",
"1490 689 LINE SMOOTH",
"1490 349 OFFCURVE",
"1898 -28 OFFCURVE",
"2243 -28 QCURVE SMOOTH"
);
}
);
width = 3162;
}
);
leftKerningGroup = uni0042;
note = uni01F6;
rightKerningGroup = uni01F6;
unicode = 01F6;
},
{
glyphname = uni0049;
layers = (
{
layerId = "17EDFB39-10F1-469C-9F8C-2D18680A40AF";
paths = (
{
closed = 1;
nodes = (
"178 2048 LINE",
"178 0 LINE",
"611 0 LINE",
"611 2048 LINE"
);
}
);
width = 790;
}
);
leftKerningGroup = uni0042;
note = uni0049;
rightKerningGroup = uni018E;
unicode = 0049;
},
{
glyphname = uniE00C;
layers = (
{
layerId = "17EDFB39-10F1-469C-9F8C-2D18680A40AF";
paths = (
{
closed = 1;
nodes = (
"459 1691 LINE",
"459 357 LINE",
"100 357 LINE",
"100 0 LINE",
"1251 0 LINE",
"1251 357 LINE",
"892 357 LINE",
"892 1691 LINE",
"1251 1691 LINE",
"1251 2048 LINE",
"100 2048 LINE",
"100 1691 LINE"
);
}
);
width = 1351;
}
);
leftKerningGroup = uni0042;
note = uniE00C;
rightKerningGroup = uni018E;
unicode = E00C;
},
{
glyphname = uni004A;
layers = (
{
layerId = "17EDFB39-10F1-469C-9F8C-2D18680A40AF";
paths = (
{
closed = 1;
nodes = (
"998 620 LINE SMOOTH",
"996 319 OFFCURVE",
"749 319 QCURVE SMOOTH",
"636 319 OFFCURVE",
"499 454 OFFCURVE",
"497 576 QCURVE",
"66 576 LINE",
"65 372 OFFCURVE",
"241 104 OFFCURVE",
"542 -28 OFFCURVE",
"727 -28 QCURVE SMOOTH",
"935 -28 OFFCURVE",
"1249 131 OFFCURVE",
"1426 422 OFFCURVE",
"1426 620 QCURVE SMOOTH",
"1426 2048 LINE",
"998 2048 LINE"
);
}
);
width = 1605;
}
);
leftKerningGroup = uni004A;
note = uni004A;
rightKerningGroup = uni004A;
unicode = 004A;
},
{
glyphname = uni004B;
layers = (
{
layerId = "17EDFB39-10F1-469C-9F8C-2D18680A40AF";
paths = (
{
closed = 1;
nodes = (
"611 0 LINE",
"611 582 LINE",
"824 842 LINE",
"1385 0 LINE",
"1903 0 LINE",
"1134 1131 LINE",
"1894 2048 LINE",
"1375 2048 LINE",
"638 1145 LINE",
"611 1145 LINE",
"611 2048 LINE",
"178 2048 LINE",
"178 0 LINE"
);
}
);
width = 1942;
}
);
leftKerningGroup = uni0042;
note = uni004B;
rightKerningGroup = uni004B;
unicode = 004B;
},
{
glyphname = uni04A0;
layers = (
{
layerId = "17EDFB39-10F1-469C-9F8C-2D18680A40AF";
paths = (
{
closed = 1;
nodes = (
"2280 0 LINE",
"1455 1071 LINE",
"2350 2048 LINE",
"1792 2048 LINE",
"1042 1230 LINE",
"941 1230 LINE",
"941 2048 LINE",
"46 2048 LINE",
"46 1710 LINE",
"508 1710 LINE",
"508 0 LINE",
"941 0 LINE",
"941 873 LINE",
"1073 873 LINE",
"1739 0 LINE"
);
}
);
width = 2390;
}
);
leftKerningGroup = uni0042;
note = uni04A0;
rightKerningGroup = uni004B;
unicode = 04A0;
},
{
glyphname = uni0198;
layers = (
{
layerId = "17EDFB39-10F1-469C-9F8C-2D18680A40AF";
paths = (
{
closed = 1;
nodes = (
"611 0 LINE",
"611 527 LINE",
"862 796 LINE",
"1464 0 LINE",
"1982 0 LINE",
"1137 1102 LINE",
"1620 1606 LINE SMOOTH",
"1689 1677 OFFCURVE",
"1811 1719 OFFCURVE",
"1895 1675 QCURVE",
"2034 1982 LINE",
"1841 2096 OFFCURVE",
"1468 2042 OFFCURVE",
"1310 1878 QCURVE SMOOTH",
"638 1166 LINE",
"611 1166 LINE",
"611 2048 LINE",
"178 2048 LINE",
"178 0 LINE"
);
}
);
width = 2053;
}
);
leftKerningGroup = uni0042;
note = uni0198;
rightKerningGroup = uni004B;
unicode = 0198;
},
{
glyphname = uni004C;
layers = (
{
layerId = "17EDFB39-10F1-469C-9F8C-2D18680A40AF";
paths = (
{
closed = 1;
nodes = (
"1489 0 LINE",
"1489 357 LINE",
"611 357 LINE",
"611 2048 LINE",
"178 2048 LINE",
"178 0 LINE"
);
}
);
width = 1598;
}
);
leftKerningGroup = uni0042;
note = uni004C;
rightKerningGroup = uni004C;
unicode = 004C;
},
{
glyphname = uni0141;
layers = (
{
layerId = "17EDFB39-10F1-469C-9F8C-2D18680A40AF";
paths = (
{
closed = 1;
nodes = (
"697 1248 LINE",
"697 2048 LINE",
"264 2048 LINE",
"264 1127 LINE",
"41 1065 LINE",
"41 830 LINE",
"264 892 LINE",
"264 0 LINE",
"1575 0 LINE",
"1575 357 LINE",
"697 357 LINE",
"697 1011 LINE",
"968 1086 LINE",
"968 1323 LINE"
);
}
);
width = 1649;
}
);
leftKerningGroup = uni0042;
note = uni0141;
rightKerningGroup = uni004C;
unicode = 0141;
},
{
glyphname = uni004D;
layers = (
{
layerId = "17EDFB39-10F1-469C-9F8C-2D18680A40AF";
paths = (
{
closed = 1;
nodes = (
"178 0 LINE",
"598 0 LINE",
"598 1338 LINE",
"615 1338 LINE",
"1145 10 LINE",
"1431 10 LINE",
"1961 1333 LINE",
"1978 1333 LINE",
"1978 0 LINE",
"2398 0 LINE",
"2398 2048 LINE",
"1864 2048 LINE",
"1300 672 LINE",
"1276 672 LINE",
"712 2048 LINE",
"178 2048 LINE"
);
}
);
width = 2576;
}
);
leftKerningGroup = uni0042;
note = uni004D;
rightKerningGroup = uni018E;
unicode = 004D;
},
{
glyphname = uni004E;
layers = (
{
layerId = "17EDFB39-10F1-469C-9F8C-2D18680A40AF";
paths = (
{
closed = 1;
nodes = (
"1460 2048 LINE",
"1460 760 LINE",
"1442 760 LINE",
"558 2048 LINE",
"178 2048 LINE",
"178 0 LINE",
"611 0 LINE",
"611 1289 LINE",
"626 1289 LINE",
"1517 0 LINE",
"1891 0 LINE",
"1891 2048 LINE"
);
}
);
width = 2070;
}
);
leftKerningGroup = uni0042;
note = uni004E;
rightKerningGroup = uni018E;
unicode = 004E;
},
{
glyphname = uni019D;
layers = (
{
layerId = "17EDFB39-10F1-469C-9F8C-2D18680A40AF";
paths = (
{
closed = 1;
nodes = (
"1508 2048 LINE",
"1508 760 LINE",
"1490 760 LINE",
"606 2048 LINE",
"226 2048 LINE",
"226 -93 LINE SMOOTH",
"226 -182 OFFCURVE",
"98 -243 OFFCURVE",
"14 -243 QCURVE SMOOTH",
"10 -243 OFFCURVE",
"1 -243 QCURVE SMOOTH",
"-16 -243 OFFCURVE",
"-56 -243 OFFCURVE",
"-72 -240 QCURVE",
"-72 -566 LINE",
"-35 -573 OFFCURVE",
"88 -576 OFFCURVE",
"126 -576 QCURVE SMOOTH",
"258 -576 OFFCURVE",
"502 -500 OFFCURVE",
"659 -292 OFFCURVE",
"659 -94 QCURVE SMOOTH",
"659 1289 LINE",
"674 1289 LINE",
"1565 0 LINE",
"1939 0 LINE",
"1939 2048 LINE"
);
}
);
width = 2118;
}
);
leftKerningGroup = uni0191;
note = uni019D;
rightKerningGroup = uni018E;
unicode = 019D;
},
{
glyphname = uni014A;
layers = (
{
layerId = "17EDFB39-10F1-469C-9F8C-2D18680A40AF";
paths = (
{
closed = 1;
nodes = (
"1517 -88 LINE SMOOTH",
"1517 -186 OFFCURVE",
"1387 -279 OFFCURVE",
"1282 -279 QCURVE SMOOTH",
"1199 -279 OFFCURVE",
"1134 -264 QCURVE",
"1134 -586 LINE",
"1169 -597 OFFCURVE",
"1252 -607 OFFCURVE",
"1289 -607 QCURVE SMOOTH",
"1470 -607 OFFCURVE",
"1741 -507 OFFCURVE",
"1891 -277 OFFCURVE",
"1891 -82 QCURVE SMOOTH",
"1891 2048 LINE",
"1460 2048 LINE",
"1460 760 LINE",
"1442 760 LINE",
"558 2048 LINE",
"178 2048 LINE",
"178 0 LINE",
"611 0 LINE",
"611 1289 LINE",
"626 1289 LINE",
"1517 0 LINE"
);
}
);
width = 2070;
}
);
leftKerningGroup = uni0042;
note = uni014A;
rightKerningGroup = uni018E;
unicode = 014A;
},
{
glyphname = uni004F;
layers = (
{
layerId = "17EDFB39-10F1-469C-9F8C-2D18680A40AF";
paths = (
{
closed = 1;
nodes = (
"2060 1359 OFFCURVE",
"1807 1829 OFFCURVE",
"1373 2076 OFFCURVE",
"1101 2076 QCURVE SMOOTH",
"828 2076 OFFCURVE",
"394 1829 OFFCURVE",
"142 1359 OFFCURVE",
"142 1024 QCURVE SMOOTH",
"142 691 OFFCURVE",
"394 220 OFFCURVE",
"828 -28 OFFCURVE",
"1101 -28 QCURVE SMOOTH",
"1373 -28 OFFCURVE",
"1807 219 OFFCURVE",
"2060 689 OFFCURVE",
"2060 1024 QCURVE SMOOTH"
);
},
{
closed = 1;
nodes = (
"1621 699 OFFCURVE",
"1337 355 OFFCURVE",
"1101 355 QCURVE SMOOTH",
"865 355 OFFCURVE",
"581 699 OFFCURVE",
"581 1024 QCURVE SMOOTH",
"581 1350 OFFCURVE",
"865 1693 OFFCURVE",
"1101 1693 QCURVE SMOOTH",
"1337 1693 OFFCURVE",
"1621 1350 OFFCURVE",
"1621 1024 QCURVE SMOOTH"
);
}
);
width = 2202;
}
);
leftKerningGroup = uni0043;
note = uni004F;
rightKerningGroup = uni0044;
unicode = 004F;
},
{
glyphname = uni00D8;
layers = (
{
layerId = "17EDFB39-10F1-469C-9F8C-2D18680A40AF";
paths = (
{
closed = 1;
nodes = (
"602 101 LINE",
"821 -28 OFFCURVE",
"1101 -28 QCURVE SMOOTH",
"1373 -28 OFFCURVE",
"1807 219 OFFCURVE",
"2060 689 OFFCURVE",
"2060 1024 QCURVE SMOOTH",
"2060 1275 OFFCURVE",
"1913 1666 OFFCURVE",
"1784 1801 QCURVE",
"1930 2010 LINE",
"1735 2142 LINE",
"1599 1947 LINE",
"1380 2076 OFFCURVE",
"1101 2076 QCURVE SMOOTH",
"828 2076 OFFCURVE",
"394 1829 OFFCURVE",
"142 1359 OFFCURVE",
"142 1024 QCURVE SMOOTH",
"142 774 OFFCURVE",
"288 383 OFFCURVE",
"417 248 QCURVE",
"268 34 LINE",
"463 -98 LINE"
);
},
{
closed = 1;
nodes = (
"1621 699 OFFCURVE",
"1337 355 OFFCURVE",
"1101 355 QCURVE SMOOTH",
"945 355 OFFCURVE",
"830 429 QCURVE",
"1533 1439 LINE",
"1621 1274 OFFCURVE",
"1621 1024 QCURVE SMOOTH"
);
},
{
closed = 1;
nodes = (
"581 775 OFFCURVE",
"581 1024 QCURVE SMOOTH",
"581 1350 OFFCURVE",
"865 1693 OFFCURVE",
"1101 1693 QCURVE SMOOTH",
"1256 1693 OFFCURVE",
"1371 1619 QCURVE",
"669 610 LINE"
);
}
);
width = 2202;
}
);
leftKerningGroup = uni0043;
note = uni00D8;
rightKerningGroup = uni0044;
unicode = 00D8;
},
{
glyphname = uni01A0;
layers = (
{
layerId = "17EDFB39-10F1-469C-9F8C-2D18680A40AF";
paths = (
{
closed = 1;
nodes = (
"1981 1994 OFFCURVE",
"1908 1797 OFFCURVE",
"1815 1767 QCURVE",
"1685 1918 OFFCURVE",
"1317 2076 OFFCURVE",
"1101 2076 QCURVE SMOOTH",
"828 2076 OFFCURVE",
"394 1829 OFFCURVE",
"142 1359 OFFCURVE",
"142 1024 QCURVE SMOOTH",
"142 691 OFFCURVE",
"394 220 OFFCURVE",
"828 -28 OFFCURVE",
"1101 -28 QCURVE SMOOTH",
"1373 -28 OFFCURVE",
"1807 219 OFFCURVE",
"2060 689 OFFCURVE",
"2060 1024 QCURVE SMOOTH",
"2060 1182 OFFCURVE",
"2000 1455 OFFCURVE",
"1945 1568 QCURVE",
"2105 1626 OFFCURVE",
"2255 1923 OFFCURVE",
"2255 2148 QCURVE",
"1981 2148 LINE"
);
},
{
closed = 1;
nodes = (
"1621 699 OFFCURVE",
"1337 355 OFFCURVE",
"1101 355 QCURVE SMOOTH",
"865 355 OFFCURVE",
"581 699 OFFCURVE",
"581 1024 QCURVE SMOOTH",
"581 1350 OFFCURVE",
"865 1693 OFFCURVE",
"1101 1693 QCURVE SMOOTH",
"1337 1693 OFFCURVE",
"1621 1350 OFFCURVE",
"1621 1024 QCURVE SMOOTH"
);
}
);
width = 2290;
}
);
leftKerningGroup = uni0043;
note = uni01A0;
rightKerningGroup = uni0044;
unicode = 01A0;
},
{
glyphname = uni0152;
layers = (
{
layerId = "17EDFB39-10F1-469C-9F8C-2D18680A40AF";
paths = (
{
closed = 1;
nodes = (
"2704 0 LINE",
"2704 357 LINE",
"1753 357 LINE",
"1753 846 LINE",
"2629 846 LINE",
"2629 1203 LINE",
"1753 1203 LINE",
"1753 1691 LINE",
"2700 1691 LINE",
"2700 2048 LINE",
"1072 2048 LINE SMOOTH",
"806 2048 OFFCURVE",
"384 1813 OFFCURVE",
"142 1355 OFFCURVE",
"142 1022 QCURVE SMOOTH",
"142 691 OFFCURVE",
"384 235 OFFCURVE",
"806 0 OFFCURVE",
"1072 0 QCURVE SMOOTH"
);
},
{
closed = 1;
nodes = (
"1072 357 LINE SMOOTH",
"854 357 OFFCURVE",
"575 674 OFFCURVE",
"576 1022 QCURVE SMOOTH",
"575 1369 OFFCURVE",
"854 1691 OFFCURVE",
"1072 1691 QCURVE SMOOTH",
"1320 1691 LINE",
"1320 357 LINE"
);
}
);
width = 2866;
}
);
leftKerningGroup = uni0043;
note = uni0152;
rightKerningGroup = uni00C6;
unicode = 0152;
},
{
glyphname = uni0050;
layers = (
{
layerId = "17EDFB39-10F1-469C-9F8C-2D18680A40AF";
paths = (
{
closed = 1;
nodes = (
"611 0 LINE",
"611 664 LINE",
"975 664 LINE SMOOTH",
"1211 664 OFFCURVE",
"1544 839 OFFCURVE",
"1720 1150 OFFCURVE",
"1720 1354 QCURVE SMOOTH",
"1720 1558 OFFCURVE",
"1547 1871 OFFCURVE",
"1219 2048 OFFCURVE",
"986 2048 QCURVE SMOOTH",
"178 2048 LINE",
"178 0 LINE"
);
},
{
closed = 1;
nodes = (
"611 1694 LINE",
"903 1694 LINE SMOOTH",
"1091 1694 OFFCURVE",
"1274 1507 OFFCURVE",
"1274 1354 QCURVE SMOOTH",
"1274 1202 OFFCURVE",
"1091 1011 OFFCURVE",
"905 1011 QCURVE SMOOTH",
"611 1011 LINE"
);
}
);
width = 1824;
}
);
leftKerningGroup = uni0042;
note = uni0050;
rightKerningGroup = uni0050;
unicode = 0050;
},
{
glyphname = uni048E;
layers = (
{
layerId = "17EDFB39-10F1-469C-9F8C-2D18680A40AF";
paths = (
{
closed = 1;
nodes = (
"621 0 LINE",
"621 664 LINE",
"985 664 LINE SMOOTH",
"1106 664 OFFCURVE",
"1212 689 QCURVE",
"1370 445 LINE",
"1552 562 LINE",
"1418 769 LINE",
"1569 857 OFFCURVE",
"1730 1159 OFFCURVE",
"1730 1354 QCURVE SMOOTH",
"1730 1558 OFFCURVE",
"1557 1871 OFFCURVE",
"1229 2048 OFFCURVE",
"996 2048 QCURVE SMOOTH",
"188 2048 LINE",
"188 0 LINE"
);
},
{
closed = 1;
nodes = (
"863 1229 LINE",
"1000 1017 LINE",
"960 1011 OFFCURVE",
"915 1011 QCURVE SMOOTH",
"621 1011 LINE",
"621 1694 LINE",
"913 1694 LINE SMOOTH",
"1101 1694 OFFCURVE",
"1284 1507 OFFCURVE",
"1284 1354 QCURVE SMOOTH",
"1284 1200 OFFCURVE",
"1197 1111 QCURVE",
"1045 1345 LINE"
);
}
);
width = 1862;
}
);
leftKerningGroup = uni0042;
note = uni048E;
rightKerningGroup = uni0050;
unicode = 048E;
},
{
glyphname = uni01A4;
layers = (
{
layerId = "17EDFB39-10F1-469C-9F8C-2D18680A40AF";
paths = (
{
closed = 1;
nodes = (
"486 1438 LINE SMOOTH",
"485 1500 OFFCURVE",
"517 1618 OFFCURVE",
"604 1694 OFFCURVE",
"687 1694 QCURVE SMOOTH",
"757 1694 LINE",
"757 0 LINE",
"1190 0 LINE",
"1190 664 LINE",
"1554 664 LINE SMOOTH",
"1790 664 OFFCURVE",
"2123 839 OFFCURVE",
"2299 1150 OFFCURVE",
"2299 1354 QCURVE SMOOTH",
"2299 1558 OFFCURVE",
"2126 1871 OFFCURVE",
"1798 2048 OFFCURVE",
"1565 2048 QCURVE SMOOTH",
"686 2048 LINE SMOOTH",
"413 2048 OFFCURVE",
"99 1762 OFFCURVE",
"100 1520 QCURVE SMOOTH",
"100 1319 LINE",
"486 1319 LINE"
);
},
{
closed = 1;
nodes = (
"1190 1694 LINE",
"1482 1694 LINE SMOOTH",
"1670 1694 OFFCURVE",
"1853 1507 OFFCURVE",
"1853 1354 QCURVE SMOOTH",
"1853 1202 OFFCURVE",
"1670 1011 OFFCURVE",
"1484 1011 QCURVE SMOOTH",
"1190 1011 LINE"
);
}
);
width = 2403;
}
);
leftKerningGroup = uni0042;
note = uni01A4;
rightKerningGroup = uni0050;
unicode = 01A4;
},
{
glyphname = uni0051;
layers = (
{
layerId = "17EDFB39-10F1-469C-9F8C-2D18680A40AF";
paths = (
{
closed = 1;
nodes = (
"2060 1359 OFFCURVE",
"1807 1829 OFFCURVE",
"1373 2076 OFFCURVE",
"1101 2076 QCURVE SMOOTH",
"828 2076 OFFCURVE",
"394 1829 OFFCURVE",
"142 1359 OFFCURVE",
"142 1024 QCURVE SMOOTH",
"142 691 OFFCURVE",
"394 220 OFFCURVE",
"828 -28 OFFCURVE",
"1101 -28 QCURVE SMOOTH",
"1293 -28 OFFCURVE",
"1460 35 QCURVE",
"1625 -168 LINE",
"2029 -168 LINE",
"1736 200 LINE",
"1886 334 OFFCURVE",
"2060 750 OFFCURVE",
"2060 1024 QCURVE SMOOTH"
);
},
{
closed = 1;
nodes = (
"1213 366 LINE",
"1160 355 OFFCURVE",
"1101 355 QCURVE SMOOTH",
"865 355 OFFCURVE",
"581 699 OFFCURVE",
"581 1024 QCURVE SMOOTH",
"581 1350 OFFCURVE",
"865 1693 OFFCURVE",
"1101 1693 QCURVE SMOOTH",
"1337 1693 OFFCURVE",
"1621 1350 OFFCURVE",
"1621 1024 QCURVE SMOOTH",
"1621 856 OFFCURVE",
"1542 602 OFFCURVE",
"1471 517 QCURVE",
"1319 712 LINE",
"951 712 LINE"
);
}
);
width = 2204;
}
);
leftKerningGroup = uni0043;
note = uni0051;
rightKerningGroup = uni0044;
unicode = 0051;
},
{
glyphname = uni0052;
lastChange = "2019-07-09 03:38:09 +0000";
layers = (
{
layerId = "17EDFB39-10F1-469C-9F8C-2D18680A40AF";
paths = (
{
closed = 1;
nodes = (
"611 0 LINE",
"611 726 LINE",
"927 726 LINE",
"1315 0 LINE",
"1793 0 LINE",
"1358 796 LINE",
"1533 871 OFFCURVE",
"1720 1169 OFFCURVE",
"1720 1379 QCURVE SMOOTH",
"1720 1684 OFFCURVE",
"1335 2048 OFFCURVE",
"986 2048 QCURVE SMOOTH",
"178 2048 LINE",
"178 0 LINE"
);
},
{
closed = 1;
nodes = (
"611 1694 LINE",
"903 1694 LINE SMOOTH",
"1274 1694 OFFCURVE",
"1274 1379 QCURVE SMOOTH",
"1274 1074 OFFCURVE",
"905 1074 QCURVE SMOOTH",
"611 1074 LINE"
);
}
);
width = 1848;
}
);
leftKerningGroup = uni0042;
note = uni0052;
rightKerningGroup = uniE002;
unicode = 0052;
},
{
glyphname = uni211F;
layers = (
{
layerId = "17EDFB39-10F1-469C-9F8C-2D18680A40AF";
paths = (
{
closed = 1;
nodes = (
"737 2482 LINE",
"693 2334 LINE",
"1134 2230 LINE",
"1093 2044 LINE",
"1044 2048 OFFCURVE",
"993 2048 QCURVE SMOOTH",
"185 2048 LINE",
"185 0 LINE",
"618 0 LINE",
"618 726 LINE",
"804 726 LINE",
"539 -481 LINE",
"700 -503 LINE",
"957 684 LINE",
"1322 0 LINE",
"1800 0 LINE",
"1365 796 LINE",
"1540 871 OFFCURVE",
"1727 1169 OFFCURVE",
"1727 1379 QCURVE SMOOTH",
"1727 1624 OFFCURVE",
"1477 1959 OFFCURVE",
"1245 2018 QCURVE",
"1314 2335 LINE"
);
},
{
closed = 1;
nodes = (
"618 1694 LINE",
"910 1694 LINE SMOOTH",
"967 1694 OFFCURVE",
"1015 1686 QCURVE",
"880 1074 LINE",
"618 1074 LINE"
);
},
{
closed = 1;
nodes = (
"1162 1633 LINE",
"1281 1555 OFFCURVE",
"1281 1379 QCURVE SMOOTH",
"1281 1134 OFFCURVE",
"1044 1086 QCURVE"
);
}
);
width = 1865;
}
);
leftKerningGroup = uni0042;
note = uni211F;
rightKerningGroup = uniE002;
unicode = 211F;
},
{
glyphname = uni211E;
layers = (
{
layerId = "17EDFB39-10F1-469C-9F8C-2D18680A40AF";
paths = (
{
closed = 1;
nodes = (
"178 0 LINE",
"611 0 LINE",
"611 760 LINE",
"1103 760 LINE",
"1330 445 LINE",
"1005 0 LINE",
"1310 0 LINE",
"1481 237 LINE",
"1652 0 LINE",
"2026 0 LINE",
"1665 494 LINE",
"1976 926 LINE",
"1682 926 LINE",
"1516 699 LINE",
"1400 858 LINE",
"1541 937 OFFCURVE",
"1716 1208 OFFCURVE",
"1716 1410 QCURVE SMOOTH",
"1716 1703 OFFCURVE",
"1342 2048 OFFCURVE",
"968 2048 QCURVE SMOOTH",
"178 2048 LINE"
);
},
{
closed = 1;
nodes = (
"611 1691 LINE",
"968 1691 LINE SMOOTH",
"1128 1691 OFFCURVE",
"1287 1534 OFFCURVE",
"1287 1401 QCURVE SMOOTH",
"1287 1115 OFFCURVE",
"962 1115 QCURVE SMOOTH",
"611 1115 LINE"
);
}
);
width = 2157;
}
);
leftKerningGroup = uni0042;
note = uni211E;
rightKerningGroup = uniE002;
unicode = 211E;
},
{
glyphname = uni024C;
layers = (
{
layerId = "17EDFB39-10F1-469C-9F8C-2D18680A40AF";
paths = (
{
closed = 1;
nodes = (
"657 0 LINE",
"657 726 LINE",
"973 726 LINE",
"1361 0 LINE",
"1839 0 LINE",
"1404 796 LINE",
"1579 871 OFFCURVE",
"1766 1169 OFFCURVE",
"1766 1379 QCURVE SMOOTH",
"1766 1684 OFFCURVE",
"1381 2048 OFFCURVE",
"1032 2048 QCURVE SMOOTH",
"224 2048 LINE",
"224 1079 LINE",
"22 1079 LINE",
"22 754 LINE",
"224 754 LINE",
"224 0 LINE"
);
},
{
closed = 1;
nodes = (
"657 1694 LINE",
"949 1694 LINE SMOOTH",
"1320 1694 OFFCURVE",
"1320 1379 QCURVE SMOOTH",
"1320 1074 OFFCURVE",
"951 1074 QCURVE SMOOTH",
"657 1074 LINE"
);
}
);
width = 1903;
}
);
leftKerningGroup = uni0042;
note = uni024C;
rightKerningGroup = uniE002;
unicode = 024C;
},
{
glyphname = uni0053;
layers = (
{
layerId = "17EDFB39-10F1-469C-9F8C-2D18680A40AF";
paths = (
{
closed = 1;
nodes = (
"1704 1459 LINE",
"1701 1642 OFFCURVE",
"1511 1920 OFFCURVE",
"1170 2076 OFFCURVE",
"942 2076 QCURVE SMOOTH",
"718 2076 OFFCURVE",
"366 1921 OFFCURVE",
"165 1642 OFFCURVE",
"166 1456 QCURVE SMOOTH",
"165 1230 OFFCURVE",
"465 960 OFFCURVE",
"724 898 QCURVE SMOOTH",
"947 842 LINE SMOOTH",
"1114 802 OFFCURVE",
"1294 690 OFFCURVE",
"1295 586 QCURVE SMOOTH",
"1294 474 OFFCURVE",
"1097 334 OFFCURVE",
"932 334 QCURVE SMOOTH",
"763 334 OFFCURVE",
"542 489 OFFCURVE",
"531 643 QCURVE",
"112 643 LINE",
"120 311 OFFCURVE",
"564 -29 OFFCURVE",
"937 -29 QCURVE SMOOTH",
"1312 -29 OFFCURVE",
"1731 304 OFFCURVE",
"1732 585 QCURVE SMOOTH",
"1732 756 OFFCURVE",
"1573 995 OFFCURVE",
"1296 1147 OFFCURVE",
"1118 1187 QCURVE SMOOTH",
"934 1231 LINE SMOOTH",
"801 1262 OFFCURVE",
"608 1375 OFFCURVE",
"610 1485 QCURVE SMOOTH",
"610 1584 OFFCURVE",
"780 1714 OFFCURVE",
"939 1714 QCURVE SMOOTH",
"1094 1714 OFFCURVE",
"1277 1580 OFFCURVE",
"1289 1459 QCURVE"
);
}
);
width = 1844;
}
);
leftKerningGroup = uni0053;
note = uni0053;
rightKerningGroup = uni0053;
unicode = 0053;
},
{
glyphname = uni1E9E;
layers = (
{
layerId = "17EDFB39-10F1-469C-9F8C-2D18680A40AF";
paths = (
{
closed = 1;
nodes = (
"611 0 LINE",
"611 1348 LINE SMOOTH",
"611 1512 OFFCURVE",
"749 1734 OFFCURVE",
"907 1734 QCURVE SMOOTH",
"1020 1734 OFFCURVE",
"1209 1661 OFFCURVE",
"1278 1608 QCURVE",
"904 1182 LINE",
"904 922 LINE",
"1092 922 LINE SMOOTH",
"1176 922 OFFCURVE",
"1358 867 OFFCURVE",
"1484 725 OFFCURVE",
"1484 594 QCURVE SMOOTH",
"1484 463 OFFCURVE",
"1306 312 OFFCURVE",
"1148 312 QCURVE SMOOTH",
"1070 312 OFFCURVE",
"913 350 OFFCURVE",
"845 378 QCURVE",
"726 54 LINE",
"822 16 OFFCURVE",
"1066 -28 OFFCURVE",
"1178 -28 QCURVE SMOOTH",
"1391 -28 OFFCURVE",
"1719 125 OFFCURVE",
"1906 404 OFFCURVE",
"1906 593 QCURVE SMOOTH",
"1906 829 OFFCURVE",
"1599 1153 OFFCURVE",
"1341 1187 QCURVE",
"1797 1722 LINE",
"1669 1824 OFFCURVE",
"1367 1984 OFFCURVE",
"1051 2076 OFFCURVE",
"902 2076 QCURVE SMOOTH",
"681 2076 OFFCURVE",
"355 1899 OFFCURVE",
"178 1573 OFFCURVE",
"178 1348 QCURVE SMOOTH",
"178 0 LINE"
);
}
);
width = 2018;
}
);
leftKerningGroup = uni0042;
note = uni1E9E;
rightKerningGroup = uni0053;
unicode = 1E9E;
},
{
glyphname = uni0054;
layers = (
{
layerId = "17EDFB39-10F1-469C-9F8C-2D18680A40AF";
paths = (
{
closed = 1;
nodes = (
"727 1691 LINE",
"727 0 LINE",
"1155 0 LINE",
"1155 1691 LINE",
"1782 1691 LINE",
"1782 2048 LINE",
"100 2048 LINE",
"100 1691 LINE"
);
}
);
width = 1882;
}
);
leftKerningGroup = uni0054;
note = uni0054;
rightKerningGroup = uni04A4;
unicode = 0054;
},
{
glyphname = uni01AC;
layers = (
{
layerId = "17EDFB39-10F1-469C-9F8C-2D18680A40AF";
paths = (
{
closed = 1;
nodes = (
"662 2048 LINE SMOOTH",
"389 2048 OFFCURVE",
"100 1764 OFFCURVE",
"100 1519 QCURVE SMOOTH",
"100 1322 LINE",
"458 1322 LINE",
"458 1442 LINE SMOOTH",
"458 1504 OFFCURVE",
"491 1618 OFFCURVE",
"579 1691 OFFCURVE",
"662 1691 QCURVE SMOOTH",
"825 1691 LINE",
"825 0 LINE",
"1253 0 LINE",
"1253 1691 LINE",
"1880 1691 LINE",
"1880 2048 LINE"
);
}
);
width = 1980;
}
);
leftKerningGroup = uni0054;
note = uni01AC;
rightKerningGroup = uni04A4;
unicode = 01AC;
},
{
glyphname = uni01AE;
layers = (
{
layerId = "17EDFB39-10F1-469C-9F8C-2D18680A40AF";
paths = (
{
closed = 1;
nodes = (
"727 1691 LINE",
"727 -94 LINE SMOOTH",
"727 -292 OFFCURVE",
"883 -500 OFFCURVE",
"1128 -576 OFFCURVE",
"1261 -576 QCURVE SMOOTH",
"1459 -576 LINE",
"1459 -241 LINE",
"1374 -241 LINE SMOOTH",
"1292 -241 OFFCURVE",
"1155 -184 OFFCURVE",
"1155 -94 QCURVE SMOOTH",
"1155 1691 LINE",
"1782 1691 LINE",
"1782 2048 LINE",
"100 2048 LINE",
"100 1691 LINE"
);
}
);
width = 1882;
}
);
leftKerningGroup = uni0054;
note = uni01AE;
rightKerningGroup = uni04A4;
unicode = 01AE;
},
{
glyphname = uni023E;
layers = (
{
layerId = "17EDFB39-10F1-469C-9F8C-2D18680A40AF";
paths = (
{
closed = 1;
nodes = (
"691 -260 LINE",
"775 0 LINE",
"1155 0 LINE",
"1155 1174 LINE",
"1322 1691 LINE",
"1782 1691 LINE",
"1782 2048 LINE",
"1438 2048 LINE",
"1522 2308 LINE",
"1260 2308 LINE",
"1176 2048 LINE",
"100 2048 LINE",
"100 1691 LINE",
"727 1691 LINE",
"727 659 LINE",
"430 -260 LINE"
);
}
);
width = 1882;
}
);
leftKerningGroup = uni0054;
note = uni023E;
rightKerningGroup = uni04A4;
unicode = 023E;
},
{
glyphname = uni0055;
layers = (
{
layerId = "17EDFB39-10F1-469C-9F8C-2D18680A40AF";
paths = (
{
closed = 1;
nodes = (
"1446 709 LINE SMOOTH",
"1446 545 OFFCURVE",
"1209 357 OFFCURVE",
"1027 357 QCURVE SMOOTH",
"848 357 OFFCURVE",
"611 545 OFFCURVE",
"611 709 QCURVE SMOOTH",
"611 2048 LINE",
"178 2048 LINE",
"178 694 LINE SMOOTH",
"178 462 OFFCURVE",
"395 139 OFFCURVE",
"779 -29 OFFCURVE",
"1027 -29 QCURVE SMOOTH",
"1275 -29 OFFCURVE",
"1658 139 OFFCURVE",
"1876 462 OFFCURVE",
"1876 694 QCURVE SMOOTH",
"1876 2048 LINE",
"1446 2048 LINE"
);
}
);
width = 2054;
}
);
note = uni0055;
rightKerningGroup = uni004A;
unicode = 0055;
},
{
glyphname = uni01AF;
layers = (
{
layerId = "17EDFB39-10F1-469C-9F8C-2D18680A40AF";
paths = (
{
closed = 1;
nodes = (
"2075 1958 OFFCURVE",
"2011 1745 OFFCURVE",
"1876 1712 QCURVE",
"1876 2048 LINE",
"1446 2048 LINE",
"1446 709 LINE SMOOTH",
"1446 545 OFFCURVE",
"1209 357 OFFCURVE",
"1027 357 QCURVE SMOOTH",
"848 357 OFFCURVE",
"611 545 OFFCURVE",
"611 709 QCURVE SMOOTH",
"611 2048 LINE",
"178 2048 LINE",
"178 694 LINE SMOOTH",
"178 462 OFFCURVE",
"395 139 OFFCURVE",
"779 -29 OFFCURVE",
"1027 -29 QCURVE SMOOTH",
"1275 -29 OFFCURVE",
"1658 139 OFFCURVE",
"1876 462 OFFCURVE",
"1876 694 QCURVE SMOOTH",
"1876 1482 LINE",
"2147 1514 OFFCURVE",
"2350 1847 OFFCURVE",
"2350 2122 QCURVE",
"2075 2122 LINE"
);
}
);
width = 2450;
}
);
note = uni01AF;
rightKerningGroup = uni04A4;
unicode = 01AF;
},
{
glyphname = uni0244;
layers = (
{
layerId = "17EDFB39-10F1-469C-9F8C-2D18680A40AF";
paths = (
{
closed = 1;
nodes = (
"1926 1164 LINE",
"1926 2048 LINE",
"1496 2048 LINE",
"1496 1164 LINE",
"661 1164 LINE",
"661 2048 LINE",
"228 2048 LINE",
"228 1164 LINE",
"-13 1164 LINE",
"-13 916 LINE",
"228 916 LINE",
"228 694 LINE SMOOTH",
"228 462 OFFCURVE",
"445 139 OFFCURVE",
"829 -29 OFFCURVE",
"1077 -29 QCURVE SMOOTH",
"1325 -29 OFFCURVE",
"1708 139 OFFCURVE",
"1926 462 OFFCURVE",
"1926 694 QCURVE SMOOTH",
"1926 916 LINE",
"2154 916 LINE",
"2154 1164 LINE"
);
},
{
closed = 1;
nodes = (
"1496 709 LINE SMOOTH",
"1496 545 OFFCURVE",
"1259 357 OFFCURVE",
"1077 357 QCURVE SMOOTH",
"898 357 OFFCURVE",
"661 545 OFFCURVE",
"661 709 QCURVE SMOOTH",
"661 916 LINE",
"1496 916 LINE"
);
}
);
width = 2141;
}
);
note = uni0244;
rightKerningGroup = uni004A;
unicode = 0244;
},
{
glyphname = uni0056;
layers = (
{
layerId = "17EDFB39-10F1-469C-9F8C-2D18680A40AF";
paths = (
{
closed = 1;
nodes = (
"67 2048 LINE",
"774 0 LINE",
"1332 0 LINE",
"2038 2048 LINE",
"1558 2048 LINE",
"1062 492 LINE",
"1043 492 LINE",
"548 2048 LINE"
);
}
);
width = 2106;
}
);
leftKerningGroup = uni0056;
note = uni0056;
rightKerningGroup = uni0056;
unicode = 0056;
},
{
glyphname = uni0057;
layers = (
{
layerId = "17EDFB39-10F1-469C-9F8C-2D18680A40AF";
paths = (
{
closed = 1;
nodes = (
"1061 0 LINE",
"1450 1339 LINE",
"1466 1339 LINE",
"1856 0 LINE",
"2278 0 LINE",
"2864 2048 LINE",
"2391 2048 LINE",
"2052 622 LINE",
"2034 622 LINE",
"1661 2048 LINE",
"1256 2048 LINE",
"882 625 LINE",
"865 625 LINE",
"526 2048 LINE",
"53 2048 LINE",
"639 0 LINE"
);
}
);
width = 2917;
}
);
leftKerningGroup = uni0057;
note = uni0057;
rightKerningGroup = uni0057;
unicode = 0057;
},
{
glyphname = uni0058;
layers = (
{
layerId = "17EDFB39-10F1-469C-9F8C-2D18680A40AF";
paths = (
{
closed = 1;
nodes = (
"93 2048 LINE",
"722 1024 LINE",
"81 0 LINE",
"577 0 LINE",
"997 699 LINE",
"1013 699 LINE",
"1433 0 LINE",
"1931 0 LINE",
"1292 1024 LINE",
"1917 2048 LINE",
"1428 2048 LINE",
"1013 1350 LINE",
"997 1350 LINE",
"584 2048 LINE"
);
}
);
width = 2012;
}
);
leftKerningGroup = uni0058;
note = uni0058;
rightKerningGroup = uni0058;
unicode = 0058;
},
{
glyphname = uni0059;
layers = (
{
layerId = "17EDFB39-10F1-469C-9F8C-2D18680A40AF";
paths = (
{
closed = 1;
nodes = (
"805 724 LINE",
"805 0 LINE",
"1235 0 LINE",
"1235 724 LINE",
"1982 2048 LINE",
"1497 2048 LINE",
"1030 1166 LINE",
"1010 1166 LINE",
"543 2048 LINE",
"58 2048 LINE"
);
}
);
width = 2040;
}
);
leftKerningGroup = uni0059;
note = uni0059;
rightKerningGroup = uni0059;
unicode = 0059;
},
{
glyphname = uni01B3;
layers = (
{
layerId = "17EDFB39-10F1-469C-9F8C-2D18680A40AF";
paths = (
{
closed = 1;
nodes = (
"1799 1577 LINE SMOOTH",
"1858 1680 OFFCURVE",
"1987 1732 OFFCURVE",
"2089 1700 QCURVE",
"2182 2025 LINE",
"2056 2074 OFFCURVE",
"1792 2070 OFFCURVE",
"1554 1934 OFFCURVE",
"1467 1784 QCURVE SMOOTH",
"1402 1671 LINE",
"1096 1166 LINE",
"1072 1166 LINE",
"545 2048 LINE",
"74 2048 LINE",
"869 791 LINE",
"869 0 LINE",
"1299 0 LINE",
"1299 791 LINE",
"1762 1514 LINE"
);
}
);
width = 2223;
}
);
leftKerningGroup = uni0059;
note = uni01B3;
rightKerningGroup = uni0059;
unicode = 01B3;
},
{
glyphname = uni024E;
layers = (
{
layerId = "17EDFB39-10F1-469C-9F8C-2D18680A40AF";
paths = (
{
closed = 1;
nodes = (
"1741 1621 LINE",
"1982 2048 LINE",
"1497 2048 LINE",
"1271 1621 LINE",
"769 1621 LINE",
"543 2048 LINE",
"58 2048 LINE",
"299 1621 LINE",
"25 1621 LINE",
"25 1399 LINE",
"424 1399 LINE",
"805 724 LINE",
"805 0 LINE",
"1235 0 LINE",
"1235 724 LINE",
"1616 1399 LINE",
"2018 1399 LINE",
"2018 1621 LINE"
);
},
{
closed = 1;
nodes = (
"1153 1399 LINE",
"1030 1166 LINE",
"1010 1166 LINE",
"887 1399 LINE"
);
}
);
width = 2043;
}
);
leftKerningGroup = uni0059;
note = uni024E;
rightKerningGroup = uni0059;
unicode = 024E;
},
{
glyphname = uni005A;
layers = (
{
layerId = "17EDFB39-10F1-469C-9F8C-2D18680A40AF";
paths = (
{
closed = 1;
nodes = (
"1724 0 LINE",
"1724 357 LINE",
"699 357 LINE",
"1722 1791 LINE",
"1722 2048 LINE",
"154 2048 LINE",
"154 1691 LINE",
"1178 1691 LINE",
"156 257 LINE",
"156 0 LINE"
);
}
);
width = 1878;
}
);
leftKerningGroup = uni005A;
note = uni005A;
rightKerningGroup = uni005A;
unicode = 005A;
},
{
glyphname = uni0224;
layers = (
{
layerId = "17EDFB39-10F1-469C-9F8C-2D18680A40AF";
paths = (
{
closed = 1;
nodes = (
"1320 0 OFFCURVE",
"1399 -149 OFFCURVE",
"1398 -247 QCURVE SMOOTH",
"1398 -352 LINE",
"1754 -352 LINE",
"1754 -170 LINE SMOOTH",
"1755 75 OFFCURVE",
"1463 357 OFFCURVE",
"1193 357 QCURVE SMOOTH",
"690 357 LINE",
"1722 1791 LINE",
"1722 2048 LINE",
"154 2048 LINE",
"154 1691 LINE",
"1188 1691 LINE",
"156 257 LINE",
"156 0 LINE",
"1193 0 LINE SMOOTH"
);
}
);
width = 1878;
}
);
leftKerningGroup = uni005A;
note = uni0224;
rightKerningGroup = uni005A;
unicode = 0224;
},
{
glyphname = uni2C7F;
layers = (
{
layerId = "17EDFB39-10F1-469C-9F8C-2D18680A40AF";
paths = (
{
closed = 1;
nodes = (
"1567 -600 OFFCURVE",
"1693 -576 OFFCURVE",
"1736 -557 QCURVE",
"1736 -219 LINE",
"1641 -248 OFFCURVE",
"1535 -248 QCURVE SMOOTH",
"1450 -248 OFFCURVE",
"1303 -161 OFFCURVE",
"1157 -24 OFFCURVE",
"994 129 OFFCURVE",
"797 264 OFFCURVE",
"672 304 QCURVE",
"1707 1774 LINE",
"1707 2012 LINE",
"151 2012 LINE",
"151 1662 LINE",
"1164 1662 LINE",
"154 240 LINE",
"154 0 LINE",
"290 0 LINE SMOOTH",
"433 0 OFFCURVE",
"653 -87 OFFCURVE",
"834 -223 OFFCURVE",
"998 -377 OFFCURVE",
"1168 -513 OFFCURVE",
"1369 -600 OFFCURVE",
"1496 -600 QCURVE SMOOTH"
);
}
);
width = 1878;
}
);
leftKerningGroup = uni005A;
note = uni2C7F;
rightKerningGroup = uni005A;
unicode = 2C7F;
},
{
glyphname = uni0061;
lastChange = "2019-07-09 21:46:35 +0000";
layers = (
{
layerId = "17EDFB39-10F1-469C-9F8C-2D18680A40AF";
paths = (
{
closed = 1;
nodes = (
"778 -29 OFFCURVE",
"1001 106 OFFCURVE",
"1057 213 QCURVE",
"1069 213 LINE",
"1069 142 OFFCURVE",
"1089 71 OFFCURVE",
"1119 0 CURVE",
"1523 0 LINE",
"1493 73 OFFCURVE",
"1473 146 OFFCURVE",
"1473 219 CURVE",
"1473 1036 LINE SMOOTH",
"1473 1219 OFFCURVE",
"1290 1448 OFFCURVE",
"992 1556 OFFCURVE",
"821 1556 QCURVE SMOOTH",
"545 1556 OFFCURVE",
"196 1310 OFFCURVE",
"152 1100 QCURVE",
"546 1068 LINE",
"568 1145 OFFCURVE",
"704 1245 OFFCURVE",
"819 1245 QCURVE SMOOTH",
"928 1245 OFFCURVE",
"1047 1141 OFFCURVE",
"1047 1046 QCURVE SMOOTH",
"1047 1040 LINE SMOOTH",
"1047 966 OFFCURVE",
"875 922 OFFCURVE",
"675 902 QCURVE SMOOTH",
"523 888 OFFCURVE",
"260 797 OFFCURVE",
"98 601 OFFCURVE",
"98 429 QCURVE SMOOTH",
"98 201 OFFCURVE",
"388 -29 OFFCURVE",
"608 -29 QCURVE SMOOTH"
);
},
{
closed = 1;
nodes = (
"632 265 OFFCURVE",
"505 355 OFFCURVE",
"505 443 QCURVE SMOOTH",
"505 533 OFFCURVE",
"642 627 OFFCURVE",
"754 643 QCURVE SMOOTH",
"801 650 OFFCURVE",
"920 669 OFFCURVE",
"1025 695 OFFCURVE",
"1050 712 QCURVE",
"1050 549 LINE SMOOTH",
"1050 428 OFFCURVE",
"870 265 OFFCURVE",
"730 265 QCURVE SMOOTH"
);
}
);
width = 1634;
},
{
associatedMasterId = "17EDFB39-10F1-469C-9F8C-2D18680A40AF";
layerId = "16A1B138-FF73-45F1-A214-419B2C98B63B";
name = "Jul 9 19, 17:44";
paths = (
{
closed = 1;
nodes = (
"778 -29 OFFCURVE",
"1001 106 OFFCURVE",
"1057 213 QCURVE",
"1069 213 LINE",
"1069 0 LINE",
"1473 0 LINE",
"1473 1036 LINE SMOOTH",
"1473 1219 OFFCURVE",
"1290 1448 OFFCURVE",
"992 1556 OFFCURVE",
"821 1556 QCURVE SMOOTH",
"545 1556 OFFCURVE",
"196 1310 OFFCURVE",
"152 1100 QCURVE",
"546 1068 LINE",
"568 1145 OFFCURVE",
"704 1245 OFFCURVE",
"819 1245 QCURVE SMOOTH",
"928 1245 OFFCURVE",
"1047 1141 OFFCURVE",
"1047 1046 QCURVE SMOOTH",
"1047 1040 LINE SMOOTH",
"1047 966 OFFCURVE",
"875 922 OFFCURVE",
"675 902 QCURVE SMOOTH",
"523 888 OFFCURVE",
"260 797 OFFCURVE",
"98 601 OFFCURVE",
"98 429 QCURVE SMOOTH",
"98 201 OFFCURVE",
"388 -29 OFFCURVE",
"608 -29 QCURVE SMOOTH"
);
},
{
closed = 1;
nodes = (
"632 265 OFFCURVE",
"505 355 OFFCURVE",
"505 443 QCURVE SMOOTH",
"505 533 OFFCURVE",
"642 627 OFFCURVE",
"754 643 QCURVE SMOOTH",
"801 650 OFFCURVE",
"920 669 OFFCURVE",
"1025 695 OFFCURVE",
"1050 712 QCURVE",
"1050 549 LINE SMOOTH",
"1050 428 OFFCURVE",
"870 265 OFFCURVE",
"730 265 QCURVE SMOOTH"
);
}
);
width = 1634;
}
);
leftKerningGroup = uni0061;
note = uni0061;
rightKerningGroup = uni0061;
unicode = 0061;
},
{
glyphname = uni00E6;
layers = (
{
layerId = "17EDFB39-10F1-469C-9F8C-2D18680A40AF";
paths = (
{
closed = 1;
nodes = (
"2047 -30 OFFCURVE",
"2410 226 OFFCURVE",
"2455 440 QCURVE",
"2062 466 LINE",
"2029 378 OFFCURVE",
"1873 288 OFFCURVE",
"1766 288 QCURVE SMOOTH",
"1607 288 OFFCURVE",
"1418 487 OFFCURVE",
"1418 658 QCURVE SMOOTH",
"1418 659 LINE",
"2465 659 LINE",
"2465 776 LINE SMOOTH",
"2465 1037 OFFCURVE",
"2273 1384 OFFCURVE",
"1946 1556 OFFCURVE",
"1742 1556 QCURVE SMOOTH",
"1443 1556 OFFCURVE",
"1266 1356 QCURVE",
"1197 1469 OFFCURVE",
"954 1556 OFFCURVE",
"828 1556 QCURVE SMOOTH",
"545 1556 OFFCURVE",
"197 1310 OFFCURVE",
"152 1100 QCURVE",
"546 1068 LINE",
"567 1145 OFFCURVE",
"705 1245 OFFCURVE",
"819 1245 QCURVE SMOOTH",
"928 1245 OFFCURVE",
"1047 1141 OFFCURVE",
"1047 1046 QCURVE SMOOTH",
"1047 1040 LINE SMOOTH",
"1047 967 OFFCURVE",
"876 922 OFFCURVE",
"675 902 QCURVE SMOOTH",
"524 888 OFFCURVE",
"260 796 OFFCURVE",
"98 600 OFFCURVE",
"98 429 QCURVE SMOOTH",
"98 202 OFFCURVE",
"394 -29 OFFCURVE",
"632 -29 QCURVE SMOOTH",
"828 -29 OFFCURVE",
"1154 122 OFFCURVE",
"1215 251 QCURVE",
"1226 251 LINE",
"1301 115 OFFCURVE",
"1597 -30 OFFCURVE",
"1786 -30 QCURVE SMOOTH"
);
},
{
closed = 1;
nodes = (
"632 265 OFFCURVE",
"505 355 OFFCURVE",
"505 443 QCURVE SMOOTH",
"505 533 OFFCURVE",
"642 627 OFFCURVE",
"754 643 QCURVE SMOOTH",
"801 650 OFFCURVE",
"920 669 OFFCURVE",
"1025 695 OFFCURVE",
"1050 712 QCURVE",
"1050 549 LINE SMOOTH",
"1050 428 OFFCURVE",
"870 265 OFFCURVE",
"730 265 QCURVE SMOOTH"
);
},
{
closed = 1;
nodes = (
"1426 1053 OFFCURVE",
"1608 1238 OFFCURVE",
"1750 1238 QCURVE SMOOTH",
"1888 1238 OFFCURVE",
"2063 1060 OFFCURVE",
"2064 923 QCURVE",
"1418 923 LINE"
);
}
);
width = 2573;
}
);
leftKerningGroup = uni0061;
note = uni00E6;
rightKerningGroup = uni0250;
unicode = 00E6;
},
{
glyphname = uniE02C;
layers = (
{
layerId = "17EDFB39-10F1-469C-9F8C-2D18680A40AF";
paths = (
{
closed = 1;
nodes = (
"860 -25 OFFCURVE",
"1033 57 OFFCURVE",
"1143 182 OFFCURVE",
"1172 246 QCURVE",
"1190 246 LINE",
"1190 0 LINE",
"1610 0 LINE",
"1610 1536 LINE",
"1185 1536 LINE",
"1185 1278 LINE",
"1172 1278 LINE",
"1144 1341 OFFCURVE",
"1037 1469 OFFCURVE",
"864 1556 OFFCURVE",
"735 1556 QCURVE SMOOTH",
"567 1556 OFFCURVE",
"284 1381 OFFCURVE",
"113 1030 OFFCURVE",
"113 766 QCURVE SMOOTH",
"113 509 OFFCURVE",
"279 156 OFFCURVE",
"561 -25 OFFCURVE",
"736 -25 QCURVE SMOOTH"
);
},
{
closed = 1;
nodes = (
"714 314 OFFCURVE",
"548 567 OFFCURVE",
"548 768 QCURVE SMOOTH",
"548 968 OFFCURVE",
"713 1217 OFFCURVE",
"871 1217 QCURVE SMOOTH",
"1026 1217 OFFCURVE",
"1194 974 OFFCURVE",
"1194 768 QCURVE SMOOTH",
"1194 563 OFFCURVE",
"1025 314 OFFCURVE",
"871 314 QCURVE SMOOTH"
);
}
);
width = 1789;
}
);
leftKerningGroup = uniE02C;
note = uniE02C;
rightKerningGroup = uni01F6;
unicode = E02C;
},
{
glyphname = uni0062;
layers = (
{
layerId = "17EDFB39-10F1-469C-9F8C-2D18680A40AF";
paths = (
{
closed = 1;
nodes = (
"598 0 LINE",
"598 246 LINE",
"617 246 LINE",
"647 182 OFFCURVE",
"756 57 OFFCURVE",
"929 -25 OFFCURVE",
"1053 -25 QCURVE SMOOTH",
"1228 -25 OFFCURVE",
"1510 156 OFFCURVE",
"1676 509 OFFCURVE",
"1676 766 QCURVE SMOOTH",
"1676 1030 OFFCURVE",
"1505 1381 OFFCURVE",
"1223 1556 OFFCURVE",
"1054 1556 QCURVE SMOOTH",
"926 1556 OFFCURVE",
"752 1469 OFFCURVE",
"646 1341 OFFCURVE",
"617 1278 QCURVE",
"604 1278 LINE",
"604 2048 LINE",
"178 2048 LINE",
"178 0 LINE"
);
},
{
closed = 1;
nodes = (
"595 974 OFFCURVE",
"763 1217 OFFCURVE",
"918 1217 QCURVE SMOOTH",
"1076 1217 OFFCURVE",
"1241 968 OFFCURVE",
"1241 768 QCURVE SMOOTH",
"1241 567 OFFCURVE",
"1075 314 OFFCURVE",
"918 314 QCURVE SMOOTH",
"764 314 OFFCURVE",
"595 563 OFFCURVE",
"595 768 QCURVE SMOOTH"
);
}
);
width = 1789;
}
);
leftKerningGroup = uni0042;
note = uni0062;
rightKerningGroup = uni0062;
unicode = 0062;
},
{
glyphname = uni0183;
layers = (
{
layerId = "17EDFB39-10F1-469C-9F8C-2D18680A40AF";
paths = (
{
closed = 1;
nodes = (
"178 2048 LINE",
"178 0 LINE",
"598 0 LINE",
"598 246 LINE",
"617 246 LINE",
"647 182 OFFCURVE",
"756 57 OFFCURVE",
"929 -25 OFFCURVE",
"1053 -25 QCURVE SMOOTH",
"1228 -25 OFFCURVE",
"1510 156 OFFCURVE",
"1676 509 OFFCURVE",
"1676 766 QCURVE SMOOTH",
"1676 1030 OFFCURVE",
"1505 1381 OFFCURVE",
"1223 1556 OFFCURVE",
"1054 1556 QCURVE SMOOTH",
"926 1556 OFFCURVE",
"752 1469 OFFCURVE",
"646 1341 OFFCURVE",
"617 1278 QCURVE",
"604 1278 LINE",
"604 1742 LINE",
"1458 1742 LINE",
"1458 2048 LINE"
);
},
{
closed = 1;
nodes = (
"595 974 OFFCURVE",
"763 1217 OFFCURVE",
"918 1217 QCURVE SMOOTH",
"1076 1217 OFFCURVE",
"1241 968 OFFCURVE",
"1241 768 QCURVE SMOOTH",
"1241 567 OFFCURVE",
"1075 314 OFFCURVE",
"918 314 QCURVE SMOOTH",
"764 314 OFFCURVE",
"595 563 OFFCURVE",
"595 768 QCURVE SMOOTH"
);
}
);
width = 1789;
}
);
leftKerningGroup = uni0042;
note = uni0183;
rightKerningGroup = uni0062;
unicode = 0183;
},
{
glyphname = uni0253;
layers = (
{
layerId = "17EDFB39-10F1-469C-9F8C-2D18680A40AF";
paths = (
{
closed = 1;
nodes = (
"590 0 LINE",
"590 246 LINE",
"609 246 LINE",
"639 182 OFFCURVE",
"748 57 OFFCURVE",
"921 -25 OFFCURVE",
"1045 -25 QCURVE SMOOTH",
"1220 -25 OFFCURVE",
"1502 156 OFFCURVE",
"1668 509 OFFCURVE",
"1668 766 QCURVE SMOOTH",
"1668 1030 OFFCURVE",
"1497 1381 OFFCURVE",
"1215 1556 OFFCURVE",
"1046 1556 QCURVE SMOOTH",
"918 1556 OFFCURVE",
"744 1469 OFFCURVE",
"638 1341 OFFCURVE",
"609 1278 QCURVE",
"596 1278 LINE",
"596 1594 LINE SMOOTH",
"596 1684 OFFCURVE",
"742 1745 OFFCURVE",
"825 1745 QCURVE SMOOTH",
"851 1745 OFFCURVE",
"902 1740 OFFCURVE",
"927 1737 QCURVE",
"927 2062 LINE",
"887 2067 OFFCURVE",
"784 2076 OFFCURVE",
"710 2076 QCURVE SMOOTH",
"611 2076 OFFCURVE",
"419 2038 OFFCURVE",
"263 1935 OFFCURVE",
"170 1746 OFFCURVE",
"170 1594 QCURVE SMOOTH",
"170 0 LINE"
);
},
{
closed = 1;
nodes = (
"678 636 OFFCURVE",
"665 882 OFFCURVE",
"734 986 QCURVE SMOOTH",
"802 1090 OFFCURVE",
"967 1101 OFFCURVE",
"1054 998 QCURVE SMOOTH",
"1144 896 OFFCURVE",
"1157 647 OFFCURVE",
"1089 550 QCURVE SMOOTH",
"1021 451 OFFCURVE",
"852 432 OFFCURVE",
"763 533 QCURVE SMOOTH"
);
}
);
width = 1781;
}
);
leftKerningGroup = uni0042;
note = uni0253;
rightKerningGroup = uni0062;
unicode = 0253;
},
{
glyphname = uni0063;
layers = (
{
layerId = "17EDFB39-10F1-469C-9F8C-2D18680A40AF";
paths = (
{
closed = 1;
nodes = (
"1069 -30 OFFCURVE",
"1369 119 OFFCURVE",
"1540 387 OFFCURVE",
"1550 563 QCURVE",
"1148 563 LINE",
"1129 440 OFFCURVE",
"979 307 OFFCURVE",
"869 307 QCURVE SMOOTH",
"720 307 OFFCURVE",
"541 548 OFFCURVE",
"541 768 QCURVE SMOOTH",
"541 986 OFFCURVE",
"721 1224 OFFCURVE",
"869 1224 QCURVE SMOOTH",
"986 1224 OFFCURVE",
"1131 1083 OFFCURVE",
"1148 968 QCURVE",
"1550 968 LINE",
"1541 1146 OFFCURVE",
"1366 1410 OFFCURVE",
"1063 1556 OFFCURVE",
"862 1556 QCURVE SMOOTH",
"629 1556 OFFCURVE",
"291 1355 OFFCURVE",
"108 998 OFFCURVE",
"108 762 QCURVE SMOOTH",
"108 529 OFFCURVE",
"289 171 OFFCURVE",
"628 -30 OFFCURVE",
"864 -30 QCURVE SMOOTH"
);
}
);
width = 1654;
}
);
leftKerningGroup = uniE02C;
note = uni0063;
rightKerningGroup = uni0063;
unicode = 0063;
},
{
glyphname = uni023C;
layers = (
{
layerId = "17EDFB39-10F1-469C-9F8C-2D18680A40AF";
paths = (
{
closed = 1;
nodes = (
"1169 2048 LINE",
"997 1547 LINE",
"932 1556 OFFCURVE",
"862 1556 QCURVE SMOOTH",
"629 1556 OFFCURVE",
"291 1355 OFFCURVE",
"108 998 OFFCURVE",
"108 762 QCURVE SMOOTH",
"108 519 OFFCURVE",
"304 151 OFFCURVE",
"485 56 QCURVE",
"268 -576 LINE",
"513 -576 LINE",
"705 -17 LINE",
"781 -30 OFFCURVE",
"864 -30 QCURVE SMOOTH",
"1069 -30 OFFCURVE",
"1369 119 OFFCURVE",
"1540 387 OFFCURVE",
"1550 563 QCURVE",
"1148 563 LINE",
"1129 440 OFFCURVE",
"979 307 OFFCURVE",
"869 307 QCURVE SMOOTH",
"842 307 OFFCURVE",
"818 311 QCURVE",
"1093 1113 LINE",
"1135 1053 OFFCURVE",
"1148 968 QCURVE",
"1550 968 LINE",
"1541 1144 OFFCURVE",
"1367 1408 OFFCURVE",
"1219 1480 QCURVE",
"1414 2048 LINE"
);
},
{
closed = 1;
nodes = (
"618 445 LINE",
"541 566 OFFCURVE",
"541 768 QCURVE SMOOTH",
"541 986 OFFCURVE",
"721 1224 OFFCURVE",
"869 1224 QCURVE SMOOTH",
"878 1224 OFFCURVE",
"886 1224 QCURVE"
);
}
);
width = 1658;
}
);
leftKerningGroup = uniE02C;
note = uni023C;
rightKerningGroup = uni0063;
unicode = 023C;
},
{
glyphname = uni0188;
layers = (
{
layerId = "17EDFB39-10F1-469C-9F8C-2D18680A40AF";
paths = (
{
closed = 1;
nodes = (
"1554 1199 LINE SMOOTH",
"1554 1305 OFFCURVE",
"1645 1393 OFFCURVE",
"1735 1393 QCURVE SMOOTH",
"1764 1393 OFFCURVE",
"1815 1385 OFFCURVE",
"1840 1382 QCURVE",
"1840 1662 LINE",
"1752 1686 OFFCURVE",
"1663 1686 QCURVE SMOOTH",
"1523 1686 OFFCURVE",
"1297 1577 OFFCURVE",
"1232 1474 QCURVE",
"1072 1556 OFFCURVE",
"862 1556 QCURVE SMOOTH",
"629 1556 OFFCURVE",
"291 1355 OFFCURVE",
"108 998 OFFCURVE",
"108 762 QCURVE SMOOTH",
"108 529 OFFCURVE",
"289 171 OFFCURVE",
"628 -30 OFFCURVE",
"864 -30 QCURVE SMOOTH",
"1069 -30 OFFCURVE",
"1369 119 OFFCURVE",
"1540 387 OFFCURVE",
"1550 563 QCURVE",
"1148 563 LINE",
"1129 440 OFFCURVE",
"979 307 OFFCURVE",
"869 307 QCURVE SMOOTH",
"720 307 OFFCURVE",
"541 548 OFFCURVE",
"541 768 QCURVE SMOOTH",
"541 986 OFFCURVE",
"721 1224 OFFCURVE",
"869 1224 QCURVE SMOOTH",
"986 1224 OFFCURVE",
"1131 1083 OFFCURVE",
"1148 968 QCURVE",
"1554 968 LINE"
);
}
);
width = 1811;
}
);
leftKerningGroup = uniE02C;
note = uni0188;
rightKerningGroup = uni0063;
unicode = 0188;
},
{
glyphname = uni0255;
layers = (
{
layerId = "17EDFB39-10F1-469C-9F8C-2D18680A40AF";
paths = (
{
closed = 1;
nodes = (
"1094 -30 OFFCURVE",
"1393 99 OFFCURVE",
"1546 316 OFFCURVE",
"1545 447 QCURVE SMOOTH",
"1544 616 OFFCURVE",
"1308 803 OFFCURVE",
"1108 803 QCURVE SMOOTH",
"948 803 OFFCURVE",
"685 679 OFFCURVE",
"569 573 QCURVE",
"546 661 OFFCURVE",
"546 768 QCURVE SMOOTH",
"546 986 OFFCURVE",
"726 1224 OFFCURVE",
"874 1224 QCURVE SMOOTH",
"992 1224 OFFCURVE",
"1135 1082 OFFCURVE",
"1153 968 QCURVE",
"1554 968 LINE",
"1545 1146 OFFCURVE",
"1370 1410 OFFCURVE",
"1068 1556 OFFCURVE",
"867 1556 QCURVE SMOOTH",
"634 1556 OFFCURVE",
"296 1356 OFFCURVE",
"113 1000 OFFCURVE",
"113 766 QCURVE SMOOTH",
"113 445 OFFCURVE",
"276 236 QCURVE",
"242 191 OFFCURVE",
"175 97 OFFCURVE",
"141 49 QCURVE",
"413 -136 LINE",
"478 -41 OFFCURVE",
"533 37 QCURVE",
"685 -30 OFFCURVE",
"874 -30 QCURVE SMOOTH"
);
},
{
closed = 1;
nodes = (
"851 418 OFFCURVE",
"1008 521 OFFCURVE",
"1078 521 QCURVE SMOOTH",
"1112 521 OFFCURVE",
"1170 477 OFFCURVE",
"1168 434 QCURVE SMOOTH",
"1165 375 OFFCURVE",
"1013 298 OFFCURVE",
"874 298 QCURVE SMOOTH",
"813 298 OFFCURVE",
"760 320 QCURVE"
);
}
);
width = 1663;
}
);
leftKerningGroup = uniE02C;
note = uni0255;
rightKerningGroup = uni0063;
unicode = 0255;
},
{
glyphname = uni0064;
layers = (
{
layerId = "17EDFB39-10F1-469C-9F8C-2D18680A40AF";
paths = (
{
closed = 1;
nodes = (
"860 -25 OFFCURVE",
"1033 57 OFFCURVE",
"1143 182 OFFCURVE",
"1172 246 QCURVE",
"1190 246 LINE",
"1190 0 LINE",
"1610 0 LINE",
"1610 2048 LINE",
"1185 2048 LINE",
"1185 1278 LINE",
"1172 1278 LINE",
"1144 1341 OFFCURVE",
"1037 1469 OFFCURVE",
"864 1556 OFFCURVE",
"735 1556 QCURVE SMOOTH",
"567 1556 OFFCURVE",
"284 1381 OFFCURVE",
"113 1030 OFFCURVE",
"113 766 QCURVE SMOOTH",
"113 509 OFFCURVE",
"279 156 OFFCURVE",
"561 -25 OFFCURVE",
"736 -25 QCURVE SMOOTH"
);
},
{
closed = 1;
nodes = (
"714 314 OFFCURVE",
"548 567 OFFCURVE",
"548 768 QCURVE SMOOTH",
"548 968 OFFCURVE",
"713 1217 OFFCURVE",
"871 1217 QCURVE SMOOTH",
"1026 1217 OFFCURVE",
"1194 974 OFFCURVE",
"1194 768 QCURVE SMOOTH",
"1194 563 OFFCURVE",
"1025 314 OFFCURVE",
"871 314 QCURVE SMOOTH"
);
}
);
width = 1789;
}
);
leftKerningGroup = uniE02C;
note = uni0064;
rightKerningGroup = uni018E;
unicode = 0064;
},
{
glyphname = uni0256;
layers = (
{
layerId = "17EDFB39-10F1-469C-9F8C-2D18680A40AF";
paths = (
{
closed = 1;
nodes = (
"1781 -576 OFFCURVE",
"1894 -567 OFFCURVE",
"1930 -562 QCURVE",
"1930 -237 LINE",
"1905 -240 OFFCURVE",
"1852 -245 OFFCURVE",
"1825 -245 QCURVE SMOOTH",
"1744 -245 OFFCURVE",
"1610 -184 OFFCURVE",
"1610 -94 QCURVE SMOOTH",
"1610 2048 LINE",
"1185 2048 LINE",
"1185 1278 LINE",
"1172 1278 LINE",
"1144 1341 OFFCURVE",
"1037 1469 OFFCURVE",
"864 1556 OFFCURVE",
"735 1556 QCURVE SMOOTH",
"567 1556 OFFCURVE",
"284 1381 OFFCURVE",
"113 1030 OFFCURVE",
"113 766 QCURVE SMOOTH",
"113 509 OFFCURVE",
"279 156 OFFCURVE",
"561 -25 OFFCURVE",
"736 -25 QCURVE SMOOTH",
"860 -25 OFFCURVE",
"1033 57 OFFCURVE",
"1143 182 OFFCURVE",
"1172 246 QCURVE",
"1187 246 LINE",
"1187 -94 LINE SMOOTH",
"1187 -282 OFFCURVE",
"1327 -492 OFFCURVE",
"1565 -576 OFFCURVE",
"1710 -576 QCURVE SMOOTH"
);
},
{
closed = 1;
nodes = (
"714 314 OFFCURVE",
"548 567 OFFCURVE",
"548 768 QCURVE SMOOTH",
"548 968 OFFCURVE",
"713 1217 OFFCURVE",
"871 1217 QCURVE SMOOTH",
"1026 1217 OFFCURVE",
"1194 974 OFFCURVE",
"1194 768 QCURVE SMOOTH",
"1194 563 OFFCURVE",
"1025 314 OFFCURVE",
"871 314 QCURVE SMOOTH"
);
}
);
width = 1781;
}
);
leftKerningGroup = uniE02C;
note = uni0256;
rightKerningGroup = uni0256;
unicode = 0256;
},
{
glyphname = uni0257;
layers = (
{
layerId = "17EDFB39-10F1-469C-9F8C-2D18680A40AF";
paths = (
{
closed = 1;
nodes = (
"861 -25 OFFCURVE",
"1034 57 OFFCURVE",
"1143 182 OFFCURVE",
"1172 246 QCURVE",
"1190 246 LINE",
"1190 0 LINE",
"1610 0 LINE",
"1610 1586 LINE SMOOTH",
"1610 1664 OFFCURVE",
"1692 1729 OFFCURVE",
"1806 1743 OFFCURVE",
"1853 1743 QCURVE SMOOTH",
"1875 1743 OFFCURVE",
"1926 1739 OFFCURVE",
"1955 1733 QCURVE",
"1955 2057 LINE",
"1921 2064 OFFCURVE",
"1801 2078 OFFCURVE",
"1738 2078 QCURVE SMOOTH",
"1646 2078 OFFCURVE",
"1452 2038 OFFCURVE",
"1287 1932 OFFCURVE",
"1185 1739 OFFCURVE",
"1185 1586 QCURVE SMOOTH",
"1185 1278 LINE",
"1172 1278 LINE",
"1144 1341 OFFCURVE",
"1037 1469 OFFCURVE",
"864 1556 OFFCURVE",
"735 1556 QCURVE SMOOTH",
"567 1556 OFFCURVE",
"284 1381 OFFCURVE",
"113 1030 OFFCURVE",
"113 766 QCURVE SMOOTH",
"113 509 OFFCURVE",
"279 156 OFFCURVE",
"561 -25 OFFCURVE",
"736 -25 QCURVE SMOOTH"
);
},
{
closed = 1;
nodes = (
"714 314 OFFCURVE",
"548 567 OFFCURVE",
"548 768 QCURVE SMOOTH",
"548 968 OFFCURVE",
"713 1217 OFFCURVE",
"871 1217 QCURVE SMOOTH",
"1026 1217 OFFCURVE",
"1194 974 OFFCURVE",
"1194 768 QCURVE SMOOTH",
"1194 563 OFFCURVE",
"1025 314 OFFCURVE",
"871 314 QCURVE SMOOTH"
);
}
);
width = 1847;
}
);
leftKerningGroup = uniE02C;
note = uni0257;
unicode = 0257;
},
{
glyphname = uni0221;
layers = (
{
layerId = "17EDFB39-10F1-469C-9F8C-2D18680A40AF";
paths = (
{
closed = 1;
nodes = (
"865 -25 OFFCURVE",
"1038 57 OFFCURVE",
"1148 182 OFFCURVE",
"1177 246 QCURVE",
"1182 246 LINE",
"1182 -23 LINE",
"827 -310 LINE",
"1013 -565 LINE",
"1259 -367 LINE",
"1320 -462 OFFCURVE",
"1556 -576 OFFCURVE",
"1746 -576 QCURVE SMOOTH",
"1995 -576 OFFCURVE",
"2251 -383 OFFCURVE",
"2250 -219 QCURVE SMOOTH",
"2251 -47 OFFCURVE",
"1979 169 OFFCURVE",
"1732 169 QCURVE SMOOTH",
"1672 169 OFFCURVE",
"1615 162 QCURVE",
"1615 2048 LINE",
"1190 2048 LINE",
"1190 1278 LINE",
"1177 1278 LINE",
"1149 1341 OFFCURVE",
"1042 1469 OFFCURVE",
"869 1556 OFFCURVE",
"740 1556 QCURVE SMOOTH",
"572 1556 OFFCURVE",
"289 1381 OFFCURVE",
"118 1030 OFFCURVE",
"118 766 QCURVE SMOOTH",
"118 509 OFFCURVE",
"284 156 OFFCURVE",
"566 -25 OFFCURVE",
"741 -25 QCURVE SMOOTH"
);
},
{
closed = 1;
nodes = (
"719 314 OFFCURVE",
"553 567 OFFCURVE",
"553 768 QCURVE SMOOTH",
"553 968 OFFCURVE",
"718 1217 OFFCURVE",
"876 1217 QCURVE SMOOTH",
"1031 1217 OFFCURVE",
"1199 974 OFFCURVE",
"1199 768 QCURVE SMOOTH",
"1199 563 OFFCURVE",
"1030 314 OFFCURVE",
"876 314 QCURVE SMOOTH"
);
},
{
closed = 1;
nodes = (
"1682 -84 OFFCURVE",
"1736 -87 QCURVE SMOOTH",
"1812 -88 OFFCURVE",
"1885 -159 OFFCURVE",
"1884 -210 QCURVE SMOOTH",
"1885 -259 OFFCURVE",
"1811 -322 OFFCURVE",
"1755 -322 QCURVE SMOOTH",
"1697 -322 OFFCURVE",
"1611 -247 OFFCURVE",
"1610 -166 QCURVE SMOOTH",
"1610 -117 LINE"
);
}
);
width = 2022;
}
);
leftKerningGroup = uniE02C;
note = uni0221;
unicode = 0221;
},
{
glyphname = uni02A4;
layers = (
{
layerId = "17EDFB39-10F1-469C-9F8C-2D18680A40AF";
paths = (
{
closed = 1;
nodes = (
"1555 1201 LINE",
"2182 1201 LINE",
"1701 626 LINE",
"1701 367 LINE",
"1891 367 LINE SMOOTH",
"2064 367 OFFCURVE",
"2286 208 OFFCURVE",
"2286 32 QCURVE SMOOTH",
"2286 -103 OFFCURVE",
"2104 -271 OFFCURVE",
"1938 -271 QCURVE SMOOTH",
"1775 -271 OFFCURVE",
"1598 -166 OFFCURVE",
"1563 -92 QCURVE",
"1153 -92 LINE",
"1200 -295 OFFCURVE",
"1440 -515 OFFCURVE",
"1769 -600 OFFCURVE",
"1947 -600 QCURVE SMOOTH",
"2167 -600 OFFCURVE",
"2505 -459 OFFCURVE",
"2698 -188 OFFCURVE",
"2698 5 QCURVE SMOOTH",
"2698 261 OFFCURVE",
"2407 584 OFFCURVE",
"2136 626 QCURVE",
"2662 1260 LINE",
"2661 1536 LINE",
"1555 1536 LINE",
"1555 2048 LINE",
"1130 2048 LINE",
"1130 1359 LINE",
"1114 1359 LINE",
"1073 1442 OFFCURVE",
"879 1556 OFFCURVE",
"735 1556 QCURVE SMOOTH",
"569 1556 OFFCURVE",
"285 1381 OFFCURVE",
"113 1030 OFFCURVE",
"113 766 QCURVE SMOOTH",
"113 508 OFFCURVE",
"280 156 OFFCURVE",
"563 -25 OFFCURVE",
"736 -25 QCURVE SMOOTH",
"881 -25 OFFCURVE",
"1073 86 OFFCURVE",
"1114 169 QCURVE",
"1135 169 LINE",
"1135 0 LINE",
"1555 0 LINE"
);
},
{
closed = 1;
nodes = (
"517 975 OFFCURVE",
"685 1217 OFFCURVE",
"854 1217 QCURVE SMOOTH",
"971 1217 OFFCURVE",
"1110 1098 OFFCURVE",
"1172 895 OFFCURVE",
"1172 768 QCURVE SMOOTH",
"1172 643 OFFCURVE",
"1111 437 OFFCURVE",
"972 314 OFFCURVE",
"854 314 QCURVE SMOOTH",
"686 314 OFFCURVE",
"517 560 OFFCURVE",
"517 768 QCURVE SMOOTH"
);
}
);
width = 2807;
}
);
leftKerningGroup = uniE02C;
note = uni02A4;
unicode = 02A4;
},
{
glyphname = uni0065;
layers = (
{
layerId = "17EDFB39-10F1-469C-9F8C-2D18680A40AF";
paths = (
{
closed = 1;
nodes = (
"1155 -30 OFFCURVE",
"1521 226 OFFCURVE",
"1566 440 QCURVE",
"1172 466 LINE",
"1140 378 OFFCURVE",
"984 288 OFFCURVE",
"877 288 QCURVE SMOOTH",
"717 288 OFFCURVE",
"529 486 OFFCURVE",
"529 658 QCURVE SMOOTH",
"529 659 LINE",
"1575 659 LINE",
"1575 776 LINE SMOOTH",
"1575 1037 OFFCURVE",
"1383 1384 OFFCURVE",
"1056 1556 OFFCURVE",
"853 1556 QCURVE SMOOTH",
"627 1556 OFFCURVE",
"292 1356 OFFCURVE",
"108 998 OFFCURVE",
"108 761 QCURVE SMOOTH",
"108 518 OFFCURVE",
"292 163 OFFCURVE",
"634 -30 OFFCURVE",
"870 -30 QCURVE SMOOTH"
);
},
{
closed = 1;
nodes = (
"536 1054 OFFCURVE",
"718 1238 OFFCURVE",
"860 1238 QCURVE SMOOTH",
"999 1238 OFFCURVE",
"1173 1060 OFFCURVE",
"1174 923 QCURVE",
"529 923 LINE"
);
}
);
width = 1683;
}
);
leftKerningGroup = uniE02C;
note = uni0065;
rightKerningGroup = uni0250;
unicode = 0065;
},
{
glyphname = uni0247;
layers = (
{
layerId = "17EDFB39-10F1-469C-9F8C-2D18680A40AF";
paths = (
{
closed = 1;
nodes = (
"1169 2048 LINE",
"996 1545 LINE",
"927 1556 OFFCURVE",
"853 1556 QCURVE SMOOTH",
"627 1556 OFFCURVE",
"292 1356 OFFCURVE",
"108 998 OFFCURVE",
"108 761 QCURVE SMOOTH",
"108 510 OFFCURVE",
"305 147 OFFCURVE",
"485 55 QCURVE",
"268 -576 LINE",
"513 -576 LINE",
"705 -17 LINE",
"784 -30 OFFCURVE",
"870 -30 QCURVE SMOOTH",
"1155 -30 OFFCURVE",
"1521 226 OFFCURVE",
"1566 440 QCURVE",
"1172 466 LINE",
"1140 378 OFFCURVE",
"984 288 OFFCURVE",
"877 288 QCURVE SMOOTH",
"843 288 OFFCURVE",
"811 293 QCURVE",
"937 659 LINE",
"1575 659 LINE",
"1575 776 LINE SMOOTH",
"1575 1039 OFFCURVE",
"1379 1386 OFFCURVE",
"1216 1472 QCURVE",
"1414 2048 LINE"
);
},
{
closed = 1;
nodes = (
"529 923 LINE",
"536 1054 OFFCURVE",
"718 1238 OFFCURVE",
"860 1238 QCURVE SMOOTH",
"875 1238 OFFCURVE",
"890 1237 QCURVE",
"783 923 LINE"
);
},
{
closed = 1;
nodes = (
"606 407 LINE",
"529 504 OFFCURVE",
"529 658 QCURVE SMOOTH",
"529 659 LINE",
"692 659 LINE"
);
},
{
closed = 1;
nodes = (
"1173 1048 OFFCURVE",
"1174 923 QCURVE",
"1028 923 LINE",
"1100 1134 LINE"
);
}
);
width = 1693;
}
);
leftKerningGroup = uniE02C;
note = uni0247;
rightKerningGroup = uni0250;
unicode = 0247;
},
{
glyphname = uni0066;
layers = (
{
layerId = "17EDFB39-10F1-469C-9F8C-2D18680A40AF";
paths = (
{
closed = 1;
nodes = (
"691 1536 LINE",
"691 1639 LINE SMOOTH",
"691 1717 OFFCURVE",
"764 1804 OFFCURVE",
"858 1804 QCURVE SMOOTH",
"896 1804 OFFCURVE",
"970 1790 OFFCURVE",
"995 1782 QCURVE",
"1070 2102 LINE",
"1030 2114 OFFCURVE",
"867 2144 OFFCURVE",
"769 2144 QCURVE SMOOTH",
"552 2144 OFFCURVE",
"265 1898 OFFCURVE",
"265 1647 QCURVE SMOOTH",
"265 1536 LINE",
"48 1536 LINE",
"48 1216 LINE",
"265 1216 LINE",
"265 0 LINE",
"691 0 LINE",
"691 1216 LINE",
"996 1216 LINE",
"996 1536 LINE"
);
}
);
width = 1086;
}
);
leftKerningGroup = uni0066;
note = uni0066;
rightKerningGroup = uni0066;
unicode = 0066;
},
{
glyphname = uni1E9C;
layers = (
{
layerId = "17EDFB39-10F1-469C-9F8C-2D18680A40AF";
paths = (
{
closed = 1;
nodes = (
"252 955 LINE",
"252 0 LINE",
"678 0 LINE",
"678 1099 LINE",
"950 1192 LINE",
"950 1536 LINE",
"678 1444 LINE",
"678 1639 LINE SMOOTH",
"678 1717 OFFCURVE",
"751 1804 OFFCURVE",
"845 1804 QCURVE SMOOTH",
"883 1804 OFFCURVE",
"957 1790 OFFCURVE",
"982 1782 QCURVE",
"1057 2102 LINE",
"1017 2114 OFFCURVE",
"854 2144 OFFCURVE",
"756 2144 QCURVE SMOOTH",
"539 2144 OFFCURVE",
"252 1898 OFFCURVE",
"252 1647 QCURVE SMOOTH",
"252 1301 LINE",
"62 1237 LINE",
"62 890 LINE"
);
}
);
width = 1073;
}
);
leftKerningGroup = uni0066;
note = uni1E9C;
rightKerningGroup = uni0066;
unicode = 1E9C;
},
{
glyphname = uni0067;
layers = (
{
layerId = "17EDFB39-10F1-469C-9F8C-2D18680A40AF";
paths = (
{
closed = 1;
nodes = (
"1082 -598 OFFCURVE",
"1420 -466 OFFCURVE",
"1613 -206 OFFCURVE",
"1613 -15 QCURVE SMOOTH",
"1613 1536 LINE",
"1190 1536 LINE",
"1190 1278 LINE",
"1174 1278 LINE",
"1146 1341 OFFCURVE",
"1038 1469 OFFCURVE",
"864 1556 OFFCURVE",
"735 1556 QCURVE SMOOTH",
"567 1556 OFFCURVE",
"284 1381 OFFCURVE",
"113 1033 OFFCURVE",
"113 771 QCURVE SMOOTH",
"113 516 OFFCURVE",
"280 184 OFFCURVE",
"563 22 OFFCURVE",
"736 22 QCURVE SMOOTH",
"920 22 OFFCURVE",
"1132 177 OFFCURVE",
"1174 272 QCURVE",
"1192 272 LINE",
"1192 -9 LINE SMOOTH",
"1192 -160 OFFCURVE",
"1011 -292 OFFCURVE",
"872 -292 QCURVE SMOOTH",
"731 -292 OFFCURVE",
"580 -189 OFFCURVE",
"554 -127 QCURVE",
"160 -180 LINE",
"198 -354 OFFCURVE",
"552 -598 OFFCURVE",
"862 -598 QCURVE SMOOTH"
);
},
{
closed = 1;
nodes = (
"714 342 OFFCURVE",
"548 574 OFFCURVE",
"548 773 QCURVE SMOOTH",
"548 969 OFFCURVE",
"713 1217 OFFCURVE",
"871 1217 QCURVE SMOOTH",
"1026 1217 OFFCURVE",
"1194 975 OFFCURVE",
"1194 773 QCURVE SMOOTH",
"1194 570 OFFCURVE",
"1025 342 OFFCURVE",
"871 342 QCURVE SMOOTH"
);
}
);
width = 1783;
}
);
leftKerningGroup = uniE02C;
note = uni0067;
rightKerningGroup = uni0067;
unicode = 0067;
},
{
glyphname = uni0260;
layers = (
{
layerId = "17EDFB39-10F1-469C-9F8C-2D18680A40AF";
paths = (
{
closed = 1;
nodes = (
"1087 -598 OFFCURVE",
"1425 -466 OFFCURVE",
"1618 -206 OFFCURVE",
"1618 -15 QCURVE SMOOTH",
"1618 1536 LINE",
"1610 1536 LINE",
"1610 1594 LINE SMOOTH",
"1611 1684 OFFCURVE",
"1757 1745 OFFCURVE",
"1839 1745 QCURVE SMOOTH",
"1866 1745 OFFCURVE",
"1897 1742 OFFCURVE",
"1944 1737 QCURVE",
"1944 2062 LINE",
"1903 2067 OFFCURVE",
"1800 2076 OFFCURVE",
"1724 2076 QCURVE SMOOTH",
"1593 2076 OFFCURVE",
"1348 2000 OFFCURVE",
"1191 1792 OFFCURVE",
"1190 1594 QCURVE SMOOTH",
"1190 1447 LINE",
"1195 1447 LINE",
"1195 1278 LINE",
"1179 1278 LINE",
"1151 1341 OFFCURVE",
"1043 1469 OFFCURVE",
"869 1556 OFFCURVE",
"740 1556 QCURVE SMOOTH",
"572 1556 OFFCURVE",
"289 1381 OFFCURVE",
"118 1033 OFFCURVE",
"118 771 QCURVE SMOOTH",
"118 516 OFFCURVE",
"285 184 OFFCURVE",
"568 22 OFFCURVE",
"741 22 QCURVE SMOOTH",
"925 22 OFFCURVE",
"1137 177 OFFCURVE",
"1179 272 QCURVE",
"1197 272 LINE",
"1197 -9 LINE SMOOTH",
"1197 -160 OFFCURVE",
"1016 -292 OFFCURVE",
"877 -292 QCURVE SMOOTH",
"736 -292 OFFCURVE",
"585 -189 OFFCURVE",
"559 -127 QCURVE",
"165 -180 LINE",
"203 -354 OFFCURVE",
"557 -598 OFFCURVE",
"867 -598 QCURVE SMOOTH"
);
},
{
closed = 1;
nodes = (
"719 342 OFFCURVE",
"553 574 OFFCURVE",
"553 773 QCURVE SMOOTH",
"553 969 OFFCURVE",
"718 1217 OFFCURVE",
"876 1217 QCURVE SMOOTH",
"1031 1217 OFFCURVE",
"1199 975 OFFCURVE",
"1199 773 QCURVE SMOOTH",
"1199 570 OFFCURVE",
"1030 342 OFFCURVE",
"876 342 QCURVE SMOOTH"
);
}
);
width = 1829;
}
);
leftKerningGroup = uniE02C;
note = uni0260;
rightKerningGroup = uni0067;
unicode = 0260;
},
{
glyphname = uni0068;
layers = (
{
layerId = "17EDFB39-10F1-469C-9F8C-2D18680A40AF";
paths = (
{
closed = 1;
nodes = (
"597 1037 OFFCURVE",
"762 1202 OFFCURVE",
"892 1202 QCURVE SMOOTH",
"1022 1202 OFFCURVE",
"1167 1044 OFFCURVE",
"1166 902 QCURVE SMOOTH",
"1166 0 LINE",
"1592 0 LINE",
"1592 978 LINE SMOOTH",
"1593 1248 OFFCURVE",
"1301 1556 OFFCURVE",
"1061 1556 QCURVE SMOOTH",
"886 1556 OFFCURVE",
"655 1401 OFFCURVE",
"602 1265 QCURVE",
"584 1265 LINE",
"584 2048 LINE",
"170 2048 LINE",
"170 0 LINE",
"596 0 LINE",
"596 888 LINE SMOOTH"
);
}
);
width = 1758;
}
);
leftKerningGroup = uni0042;
note = uni0068;
rightKerningGroup = uni0061;
unicode = 0068;
},
{
glyphname = uni0452;
layers = (
{
layerId = "17EDFB39-10F1-469C-9F8C-2D18680A40AF";
paths = (
{
closed = 1;
nodes = (
"597 1037 OFFCURVE",
"762 1202 OFFCURVE",
"892 1202 QCURVE SMOOTH",
"1022 1202 OFFCURVE",
"1167 1044 OFFCURVE",
"1166 902 QCURVE SMOOTH",
"1166 -94 LINE SMOOTH",
"1166 -184 OFFCURVE",
"1034 -245 OFFCURVE",
"952 -245 QCURVE SMOOTH",
"924 -245 OFFCURVE",
"873 -240 OFFCURVE",
"847 -237 QCURVE",
"847 -562 LINE",
"888 -567 OFFCURVE",
"992 -576 OFFCURVE",
"1065 -576 QCURVE SMOOTH",
"1211 -576 OFFCURVE",
"1450 -492 OFFCURVE",
"1592 -282 OFFCURVE",
"1592 -94 QCURVE SMOOTH",
"1592 978 LINE SMOOTH",
"1593 1248 OFFCURVE",
"1301 1556 OFFCURVE",
"1061 1556 QCURVE SMOOTH",
"886 1556 OFFCURVE",
"655 1401 OFFCURVE",
"602 1265 QCURVE",
"584 1265 LINE",
"584 1647 LINE",
"874 1647 LINE",
"874 1898 LINE",
"584 1898 LINE",
"584 2048 LINE",
"170 2048 LINE",
"170 1898 LINE",
"-124 1898 LINE",
"-124 1647 LINE",
"170 1647 LINE",
"170 0 LINE",
"596 0 LINE",
"596 888 LINE SMOOTH"
);
}
);
width = 1762;
}
);
leftKerningGroup = uni0042;
note = uni0452;
rightKerningGroup = uni0061;
unicode = 0452;
},
{
glyphname = uni0266;
layers = (
{
layerId = "17EDFB39-10F1-469C-9F8C-2D18680A40AF";
paths = (
{
closed = 1;
nodes = (
"597 1037 OFFCURVE",
"758 1202 OFFCURVE",
"887 1202 QCURVE SMOOTH",
"1015 1202 OFFCURVE",
"1161 1043 OFFCURVE",
"1160 902 QCURVE SMOOTH",
"1160 0 LINE",
"1586 0 LINE",
"1586 978 LINE SMOOTH",
"1586 1247 OFFCURVE",
"1296 1556 OFFCURVE",
"1056 1556 QCURVE SMOOTH",
"885 1556 OFFCURVE",
"646 1399 OFFCURVE",
"594 1265 QCURVE",
"576 1265 LINE",
"576 1597 LINE SMOOTH",
"576 1686 OFFCURVE",
"722 1745 OFFCURVE",
"803 1745 QCURVE SMOOTH",
"832 1745 OFFCURVE",
"883 1740 OFFCURVE",
"908 1737 QCURVE",
"908 2062 LINE",
"869 2067 OFFCURVE",
"764 2076 OFFCURVE",
"690 2076 QCURVE SMOOTH",
"560 2076 OFFCURVE",
"321 2002 OFFCURVE",
"170 1795 OFFCURVE",
"170 1597 QCURVE SMOOTH",
"170 0 LINE",
"596 0 LINE",
"596 888 LINE SMOOTH"
);
}
);
width = 1751;
}
);
leftKerningGroup = uni0042;
note = uni0266;
rightKerningGroup = uni0061;
unicode = 0266;
},
{
glyphname = uni0267;
layers = (
{
layerId = "17EDFB39-10F1-469C-9F8C-2D18680A40AF";
paths = (
{
closed = 1;
nodes = (
"597 1037 OFFCURVE",
"758 1202 OFFCURVE",
"887 1202 QCURVE SMOOTH",
"1015 1202 OFFCURVE",
"1161 1043 OFFCURVE",
"1160 902 QCURVE SMOOTH",
"1160 -94 LINE SMOOTH",
"1160 -184 OFFCURVE",
"1026 -245 OFFCURVE",
"946 -245 QCURVE SMOOTH",
"917 -245 OFFCURVE",
"866 -240 OFFCURVE",
"841 -237 QCURVE",
"841 -562 LINE",
"879 -567 OFFCURVE",
"984 -576 OFFCURVE",
"1058 -576 QCURVE SMOOTH",
"1203 -576 OFFCURVE",
"1443 -492 OFFCURVE",
"1586 -282 OFFCURVE",
"1586 -94 QCURVE SMOOTH",
"1586 978 LINE SMOOTH",
"1586 1247 OFFCURVE",
"1296 1556 OFFCURVE",
"1056 1556 QCURVE SMOOTH",
"885 1556 OFFCURVE",
"646 1399 OFFCURVE",
"594 1265 QCURVE",
"576 1265 LINE",
"576 1597 LINE SMOOTH",
"576 1686 OFFCURVE",
"722 1745 OFFCURVE",
"803 1745 QCURVE SMOOTH",
"832 1745 OFFCURVE",
"883 1740 OFFCURVE",
"908 1737 QCURVE",
"908 2062 LINE",
"869 2067 OFFCURVE",
"764 2076 OFFCURVE",
"690 2076 QCURVE SMOOTH",
"560 2076 OFFCURVE",
"321 2002 OFFCURVE",
"170 1795 OFFCURVE",
"170 1597 QCURVE SMOOTH",
"170 0 LINE",
"596 0 LINE",
"596 888 LINE SMOOTH"
);
}
);
width = 1751;
}
);
leftKerningGroup = uni0042;
note = uni0267;
rightKerningGroup = uni0061;
unicode = 0267;
},
{
glyphname = uni0195;
layers = (
{
layerId = "17EDFB39-10F1-469C-9F8C-2D18680A40AF";
paths = (
{
closed = 1;
nodes = (
"596 0 LINE",
"596 888 LINE SMOOTH",
"597 1037 OFFCURVE",
"762 1202 OFFCURVE",
"892 1202 QCURVE SMOOTH",
"1022 1202 OFFCURVE",
"1166 1044 OFFCURVE",
"1166 902 QCURVE SMOOTH",
"1166 598 LINE SMOOTH",
"1166 301 OFFCURVE",
"1491 -28 OFFCURVE",
"1786 -28 QCURVE SMOOTH",
"2201 -28 OFFCURVE",
"2597 661 OFFCURVE",
"2597 1366 QCURVE SMOOTH",
"2597 1536 LINE",
"2171 1536 LINE",
"2171 1366 LINE SMOOTH",
"2171 840 OFFCURVE",
"1981 324 OFFCURVE",
"1802 324 QCURVE SMOOTH",
"1723 324 OFFCURVE",
"1592 442 OFFCURVE",
"1592 598 QCURVE SMOOTH",
"1592 978 LINE SMOOTH",
"1592 1248 OFFCURVE",
"1301 1556 OFFCURVE",
"1061 1556 QCURVE SMOOTH",
"886 1556 OFFCURVE",
"655 1401 OFFCURVE",
"602 1265 QCURVE",
"584 1265 LINE",
"584 2048 LINE",
"170 2048 LINE",
"170 0 LINE"
);
}
);
width = 2767;
}
);
leftKerningGroup = uni0042;
note = uni0195;
rightKerningGroup = uni01F6;
unicode = 0195;
},
{
glyphname = uni0265;
layers = (
{
layerId = "17EDFB39-10F1-469C-9F8C-2D18680A40AF";
paths = (
{
closed = 1;
nodes = (
"1166 500 OFFCURVE",
"1001 334 OFFCURVE",
"870 334 QCURVE SMOOTH",
"740 334 OFFCURVE",
"596 492 OFFCURVE",
"596 634 QCURVE SMOOTH",
"596 1536 LINE",
"170 1536 LINE",
"170 558 LINE SMOOTH",
"170 288 OFFCURVE",
"461 -20 OFFCURVE",
"702 -20 QCURVE SMOOTH",
"876 -20 OFFCURVE",
"1109 135 OFFCURVE",
"1161 271 QCURVE",
"1178 271 LINE",
"1178 -576 LINE",
"1592 -576 LINE",
"1592 1536 LINE",
"1166 1536 LINE",
"1166 648 LINE SMOOTH"
);
}
);
width = 1762;
}
);
leftKerningGroup = uni0265;
note = uni0265;
rightKerningGroup = uni0067;
unicode = 0265;
},
{
glyphname = uni02AE;
layers = (
{
layerId = "17EDFB39-10F1-469C-9F8C-2D18680A40AF";
paths = (
{
closed = 1;
nodes = (
"96 1220 OFFCURVE",
"148 1225 OFFCURVE",
"174 1225 QCURVE SMOOTH",
"256 1225 OFFCURVE",
"389 1164 OFFCURVE",
"389 1074 QCURVE SMOOTH",
"389 558 LINE SMOOTH",
"389 288 OFFCURVE",
"679 -20 OFFCURVE",
"920 -20 QCURVE SMOOTH",
"1095 -20 OFFCURVE",
"1327 135 OFFCURVE",
"1379 271 QCURVE",
"1397 271 LINE",
"1397 -576 LINE",
"1810 -576 LINE",
"1810 1536 LINE",
"1385 1536 LINE",
"1385 648 LINE SMOOTH",
"1385 500 OFFCURVE",
"1220 334 OFFCURVE",
"1089 334 QCURVE SMOOTH",
"959 334 OFFCURVE",
"814 492 OFFCURVE",
"814 634 QCURVE SMOOTH",
"814 1074 LINE SMOOTH",
"814 1263 OFFCURVE",
"672 1472 OFFCURVE",
"433 1556 OFFCURVE",
"287 1556 QCURVE SMOOTH",
"214 1556 OFFCURVE",
"109 1547 OFFCURVE",
"70 1542 QCURVE",
"70 1217 LINE"
);
}
);
width = 1981;
}
);
leftKerningGroup = uni02AE;
note = uni02AE;
rightKerningGroup = uni0067;
unicode = 02AE;
},
{
glyphname = uni02AF;
layers = (
{
layerId = "17EDFB39-10F1-469C-9F8C-2D18680A40AF";
paths = (
{
closed = 1;
nodes = (
"96 1220 OFFCURVE",
"148 1225 OFFCURVE",
"174 1225 QCURVE SMOOTH",
"256 1225 OFFCURVE",
"389 1164 OFFCURVE",
"389 1074 QCURVE SMOOTH",
"389 558 LINE SMOOTH",
"389 288 OFFCURVE",
"679 -20 OFFCURVE",
"920 -20 QCURVE SMOOTH",
"1095 -20 OFFCURVE",
"1327 135 OFFCURVE",
"1379 271 QCURVE",
"1397 271 LINE",
"1397 -94 LINE SMOOTH",
"1397 -282 OFFCURVE",
"1536 -492 OFFCURVE",
"1772 -576 OFFCURVE",
"1917 -576 QCURVE SMOOTH",
"1993 -576 OFFCURVE",
"2096 -567 OFFCURVE",
"2137 -562 QCURVE",
"2137 -237 LINE",
"2113 -240 OFFCURVE",
"2057 -245 OFFCURVE",
"2032 -245 QCURVE SMOOTH",
"1949 -245 OFFCURVE",
"1810 -184 OFFCURVE",
"1810 -94 QCURVE SMOOTH",
"1810 1536 LINE",
"1385 1536 LINE",
"1385 648 LINE SMOOTH",
"1385 500 OFFCURVE",
"1220 334 OFFCURVE",
"1089 334 QCURVE SMOOTH",
"959 334 OFFCURVE",
"814 492 OFFCURVE",
"814 634 QCURVE SMOOTH",
"814 1074 LINE SMOOTH",
"814 1263 OFFCURVE",
"672 1472 OFFCURVE",
"433 1556 OFFCURVE",
"287 1556 QCURVE SMOOTH",
"214 1556 OFFCURVE",
"109 1547 OFFCURVE",
"70 1542 QCURVE",
"70 1217 LINE"
);
}
);
width = 2019;
}
);
leftKerningGroup = uni02AE;
note = uni02AF;
rightKerningGroup = uni0256;
unicode = 02AF;
},
{
glyphname = uni0131;
layers = (
{
layerId = "17EDFB39-10F1-469C-9F8C-2D18680A40AF";
paths = (
{
closed = 1;
nodes = (
"596 0 LINE",
"596 1536 LINE",
"170 1536 LINE",
"170 0 LINE"
);
}
);
width = 766;
}
);
leftKerningGroup = uni0069;
note = uni0131;
rightKerningGroup = uni01C8;
unicode = 0131;
},
{
glyphname = uni0237;
lastChange = "2019-07-10 00:34:58 +0000";
layers = (
{
layerId = "17EDFB39-10F1-469C-9F8C-2D18680A40AF";
paths = (
{
closed = 1;
nodes = (
"170 -124 LINE SMOOTH",
"170 -191 OFFCURVE",
"107 -238 OFFCURVE",
"74 -238 QCURVE SMOOTH",
"61 -238 OFFCURVE",
"-55 -237 OFFCURVE",
"-72 -236 QCURVE",
"-72 -569 LINE",
"-47 -570 OFFCURVE",
"260 -570 OFFCURVE",
"277 -571 QCURVE SMOOTH",
"424 -578 OFFCURVE",
"596 -379 OFFCURVE",
"596 -201 QCURVE SMOOTH",
"596 1536 LINE",
"170 1536 LINE"
);
}
);
width = 766;
},
{
associatedMasterId = "17EDFB39-10F1-469C-9F8C-2D18680A40AF";
layerId = "F719BC86-BBD6-4AB2-BAB3-F012899FDB97";
name = "Jul 9 19, 18:42";
paths = (
{
closed = 1;
nodes = (
"170 -64 LINE SMOOTH",
"170 -151 OFFCURVE",
"87 -238 OFFCURVE",
"-16 -238 QCURVE SMOOTH",
"-29 -238 OFFCURVE",
"-55 -237 OFFCURVE",
"-72 -236 QCURVE",
"-72 -569 LINE",
"-47 -570 OFFCURVE",
"-10 -571 OFFCURVE",
"7 -571 QCURVE SMOOTH",
"284 -578 OFFCURVE",
"596 -338 OFFCURVE",
"596 -71 QCURVE SMOOTH",
"596 1536 LINE",
"170 1536 LINE"
);
}
);
visible = 1;
width = 766;
}
);
leftKerningGroup = uni0191;
note = uni0237;
rightKerningGroup = uni01C8;
unicode = 0237;
},
{
glyphname = uniE04F;
layers = (
{
layerId = "17EDFB39-10F1-469C-9F8C-2D18680A40AF";
paths = (
{
closed = 1;
nodes = (
"747 -595 OFFCURVE",
"978 -460 OFFCURVE",
"1082 -241 OFFCURVE",
"1090 -117 QCURVE",
"1462 -117 LINE",
"1462 174 LINE",
"1091 174 LINE",
"1091 1536 LINE",
"665 1536 LINE",
"665 174 LINE",
"520 174 LINE SMOOTH",
"294 174 OFFCURVE",
"45 -37 OFFCURVE",
"46 -210 QCURVE SMOOTH",
"47 -379 OFFCURVE",
"296 -595 OFFCURVE",
"549 -595 QCURVE SMOOTH"
);
},
{
closed = 1;
nodes = (
"666 -167 LINE SMOOTH",
"666 -230 OFFCURVE",
"619 -326 OFFCURVE",
"542 -326 QCURVE SMOOTH",
"490 -326 OFFCURVE",
"412 -278 OFFCURVE",
"413 -223 QCURVE SMOOTH",
"414 -165 OFFCURVE",
"502 -117 OFFCURVE",
"558 -117 QCURVE SMOOTH",
"666 -117 LINE"
);
}
);
width = 1329;
}
);
note = uniE04F;
rightKerningGroup = uni01C8;
unicode = E04F;
},
{
glyphname = uni006B;
layers = (
{
layerId = "17EDFB39-10F1-469C-9F8C-2D18680A40AF";
paths = (
{
closed = 1;
nodes = (
"596 0 LINE",
"596 488 LINE",
"711 619 LINE",
"1130 0 LINE",
"1629 0 LINE",
"1030 871 LINE",
"1600 1536 LINE",
"1111 1536 LINE",
"619 953 LINE",
"596 953 LINE",
"596 2048 LINE",
"170 2048 LINE",
"170 0 LINE"
);
}
);
width = 1638;
}
);
leftKerningGroup = uni0042;
note = uni006B;
rightKerningGroup = uni006B;
unicode = 006B;
},
{
glyphname = uni0199;
layers = (
{
layerId = "17EDFB39-10F1-469C-9F8C-2D18680A40AF";
paths = (
{
closed = 1;
nodes = (
"1616 0 LINE",
"1001 880 LINE",
"1581 1536 LINE",
"1084 1536 LINE",
"616 998 LINE",
"596 998 LINE",
"596 1594 LINE SMOOTH",
"597 1684 OFFCURVE",
"729 1745 OFFCURVE",
"810 1745 QCURVE SMOOTH",
"837 1745 OFFCURVE",
"890 1740 OFFCURVE",
"915 1737 QCURVE",
"915 2062 LINE",
"876 2067 OFFCURVE",
"765 2076 OFFCURVE",
"698 2076 QCURVE SMOOTH",
"568 2076 OFFCURVE",
"326 2000 OFFCURVE",
"171 1792 OFFCURVE",
"170 1594 QCURVE SMOOTH",
"170 0 LINE",
"596 0 LINE",
"596 414 LINE",
"744 576 LINE",
"1150 0 LINE"
);
}
);
width = 1625;
}
);
leftKerningGroup = uni0042;
note = uni0199;
rightKerningGroup = uni006B;
unicode = 0199;
},
{
glyphname = uni006C;
layers = (
{
layerId = "17EDFB39-10F1-469C-9F8C-2D18680A40AF";
paths = (
{
closed = 1;
nodes = (
"170 2048 LINE",
"170 0 LINE",
"596 0 LINE",
"596 2048 LINE"
);
}
);
width = 766;
}
);
leftKerningGroup = uni0042;
note = uni006C;
rightKerningGroup = uni018E;
unicode = 006C;
},
{
glyphname = uni0142;
layers = (
{
layerId = "17EDFB39-10F1-469C-9F8C-2D18680A40AF";
paths = (
{
closed = 1;
nodes = (
"596 1272 LINE",
"596 2048 LINE",
"170 2048 LINE",
"170 1135 LINE",
"-21 1074 LINE",
"-21 838 LINE",
"170 899 LINE",
"170 0 LINE",
"596 0 LINE",
"596 1036 LINE",
"787 1097 LINE",
"787 1333 LINE"
);
}
);
width = 766;
}
);
leftKerningGroup = uni0042;
note = uni0142;
rightKerningGroup = uni018E;
unicode = 0142;
},
{
glyphname = uni026D;
layers = (
{
layerId = "17EDFB39-10F1-469C-9F8C-2D18680A40AF";
paths = (
{
closed = 1;
nodes = (
"170 2048 LINE",
"170 -94 LINE SMOOTH",
"170 -282 OFFCURVE",
"312 -492 OFFCURVE",
"552 -576 OFFCURVE",
"698 -576 QCURVE SMOOTH",
"772 -576 OFFCURVE",
"876 -567 OFFCURVE",
"915 -562 QCURVE",
"915 -237 LINE",
"890 -240 OFFCURVE",
"837 -245 OFFCURVE",
"810 -245 QCURVE SMOOTH",
"729 -245 OFFCURVE",
"596 -184 OFFCURVE",
"596 -94 QCURVE SMOOTH",
"596 2048 LINE"
);
}
);
width = 915;
}
);
leftKerningGroup = uni0042;
note = uni026D;
rightKerningGroup = uni0256;
unicode = 026D;
},
{
glyphname = uni026C;
layers = (
{
layerId = "17EDFB39-10F1-469C-9F8C-2D18680A40AF";
paths = (
{
closed = 1;
nodes = (
"1386 1044 LINE",
"1088 1044 LINE",
"1088 2048 LINE",
"662 2048 LINE",
"662 1548 LINE",
"609 1556 OFFCURVE",
"550 1556 QCURVE SMOOTH",
"382 1556 OFFCURVE",
"158 1442 OFFCURVE",
"47 1252 OFFCURVE",
"47 1139 QCURVE SMOOTH",
"47 970 OFFCURVE",
"283 757 OFFCURVE",
"506 757 QCURVE SMOOTH",
"662 757 LINE",
"662 0 LINE",
"1088 0 LINE",
"1088 757 LINE",
"1386 757 LINE"
);
},
{
closed = 1;
nodes = (
"662 1044 LINE",
"546 1044 LINE SMOOTH",
"481 1044 OFFCURVE",
"412 1109 OFFCURVE",
"413 1149 QCURVE SMOOTH",
"412 1190 OFFCURVE",
"488 1254 OFFCURVE",
"544 1254 QCURVE SMOOTH",
"606 1254 OFFCURVE",
"662 1171 OFFCURVE",
"662 1100 QCURVE SMOOTH"
);
}
);
width = 1418;
}
);
leftKerningGroup = uni02AE;
note = uni026C;
rightKerningGroup = uni04A2;
unicode = 026C;
},
{
glyphname = uni0234;
layers = (
{
layerId = "17EDFB39-10F1-469C-9F8C-2D18680A40AF";
paths = (
{
closed = 1;
nodes = (
"146 2048 LINE",
"146 13 LINE",
"66 -35 OFFCURVE",
"-10 -89 QCURVE",
"-233 -277 LINE",
"-23 -517 LINE",
"220 -311 LINE",
"298 -443 OFFCURVE",
"567 -576 OFFCURVE",
"707 -576 QCURVE SMOOTH",
"846 -576 OFFCURVE",
"1048 -457 OFFCURVE",
"1159 -267 OFFCURVE",
"1159 -162 QCURVE SMOOTH",
"1159 -56 OFFCURVE",
"1053 120 OFFCURVE",
"866 226 OFFCURVE",
"742 226 QCURVE SMOOTH",
"665 226 OFFCURVE",
"572 202 QCURVE",
"572 2048 LINE"
);
},
{
closed = 1;
nodes = (
"635 -67 OFFCURVE",
"700 -67 QCURVE SMOOTH",
"754 -67 OFFCURVE",
"816 -135 OFFCURVE",
"817 -171 QCURVE SMOOTH",
"816 -217 OFFCURVE",
"756 -286 OFFCURVE",
"712 -286 QCURVE SMOOTH",
"642 -286 OFFCURVE",
"571 -198 OFFCURVE",
"572 -127 QCURVE SMOOTH",
"572 -118 OFFCURVE",
"572 -87 QCURVE"
);
}
);
width = 1187;
}
);
leftKerningGroup = uni0042;
note = uni0234;
rightKerningGroup = uni0256;
unicode = 0234;
},
{
glyphname = uniE050;
layers = (
{
layerId = "17EDFB39-10F1-469C-9F8C-2D18680A40AF";
paths = (
{
closed = 1;
nodes = (
"170 403 LINE SMOOTH",
"171 183 OFFCURVE",
"405 -19 OFFCURVE",
"650 -10 QCURVE SMOOTH",
"730 -6 OFFCURVE",
"825 14 OFFCURVE",
"858 24 QCURVE",
"790 334 LINE",
"777 330 OFFCURVE",
"742 323 OFFCURVE",
"710 322 QCURVE SMOOTH",
"649 321 OFFCURVE",
"597 387 OFFCURVE",
"596 460 QCURVE SMOOTH",
"596 2048 LINE",
"170 2048 LINE"
);
}
);
width = 848;
}
);
leftKerningGroup = uni0042;
note = uniE050;
rightKerningGroup = uni018E;
unicode = E050;
},
{
glyphname = uniE051;
layers = (
{
layerId = "17EDFB39-10F1-469C-9F8C-2D18680A40AF";
paths = (
{
closed = 1;
nodes = (
"625 1275 LINE",
"625 2048 LINE",
"199 2048 LINE",
"199 1138 LINE",
"-2 1074 LINE",
"-2 838 LINE",
"199 902 LINE",
"199 403 LINE SMOOTH",
"200 183 OFFCURVE",
"434 -19 OFFCURVE",
"679 -10 QCURVE SMOOTH",
"759 -6 OFFCURVE",
"854 14 OFFCURVE",
"887 24 QCURVE",
"819 334 LINE",
"806 330 OFFCURVE",
"771 323 OFFCURVE",
"739 322 QCURVE SMOOTH",
"678 321 OFFCURVE",
"626 387 OFFCURVE",
"625 460 QCURVE SMOOTH",
"625 1039 LINE",
"806 1097 LINE",
"806 1333 LINE"
);
}
);
width = 877;
}
);
leftKerningGroup = uni0042;
note = uniE051;
rightKerningGroup = uni018E;
unicode = E051;
},
{
glyphname = uniE054;
layers = (
{
layerId = "17EDFB39-10F1-469C-9F8C-2D18680A40AF";
paths = (
{
closed = 1;
nodes = (
"1386 1044 LINE",
"1095 1044 LINE",
"1095 2048 LINE",
"669 2048 LINE",
"669 1547 LINE",
"613 1556 OFFCURVE",
"550 1556 QCURVE SMOOTH",
"382 1556 OFFCURVE",
"158 1442 OFFCURVE",
"47 1252 OFFCURVE",
"47 1139 QCURVE SMOOTH",
"47 970 OFFCURVE",
"283 757 OFFCURVE",
"506 757 QCURVE SMOOTH",
"669 757 LINE",
"669 403 LINE SMOOTH",
"670 183 OFFCURVE",
"904 -19 OFFCURVE",
"1149 -10 QCURVE SMOOTH",
"1229 -6 OFFCURVE",
"1324 14 OFFCURVE",
"1357 24 QCURVE",
"1289 334 LINE",
"1276 330 OFFCURVE",
"1241 323 OFFCURVE",
"1209 322 QCURVE SMOOTH",
"1148 321 OFFCURVE",
"1096 387 OFFCURVE",
"1095 460 QCURVE SMOOTH",
"1095 757 LINE",
"1386 757 LINE"
);
},
{
closed = 1;
nodes = (
"546 1044 LINE SMOOTH",
"481 1044 OFFCURVE",
"412 1109 OFFCURVE",
"413 1149 QCURVE SMOOTH",
"412 1190 OFFCURVE",
"488 1254 OFFCURVE",
"544 1254 QCURVE SMOOTH",
"606 1254 OFFCURVE",
"662 1171 OFFCURVE",
"662 1100 QCURVE SMOOTH",
"662 1044 LINE"
);
}
);
width = 1418;
}
);
leftKerningGroup = uni02AE;
note = uniE054;
rightKerningGroup = uni04A2;
unicode = E054;
},
{
glyphname = uni006D;
layers = (
{
layerId = "17EDFB39-10F1-469C-9F8C-2D18680A40AF";
paths = (
{
closed = 1;
nodes = (
"596 0 LINE",
"596 922 LINE SMOOTH",
"596 1050 OFFCURVE",
"740 1205 OFFCURVE",
"846 1205 QCURVE SMOOTH",
"951 1205 OFFCURVE",
"1080 1071 OFFCURVE",
"1080 958 QCURVE SMOOTH",
"1080 0 LINE",
"1493 0 LINE",
"1493 938 LINE SMOOTH",
"1493 1057 OFFCURVE",
"1623 1205 OFFCURVE",
"1739 1205 QCURVE SMOOTH",
"1841 1205 OFFCURVE",
"1977 1077 OFFCURVE",
"1977 949 QCURVE SMOOTH",
"1977 0 LINE",
"2402 0 LINE",
"2402 1033 LINE SMOOTH",
"2402 1283 OFFCURVE",
"2133 1556 OFFCURVE",
"1918 1556 QCURVE SMOOTH",
"1749 1556 OFFCURVE",
"1502 1397 OFFCURVE",
"1455 1265 QCURVE",
"1439 1265 LINE",
"1402 1399 OFFCURVE",
"1180 1556 OFFCURVE",
"1022 1556 QCURVE SMOOTH",
"867 1556 OFFCURVE",
"642 1401 OFFCURVE",
"594 1265 QCURVE",
"576 1265 LINE",
"576 1536 LINE",
"170 1536 LINE",
"170 0 LINE"
);
}
);
width = 2568;
}
);
leftKerningGroup = uni0250;
note = uni006D;
rightKerningGroup = uni0061;
unicode = 006D;
},
{
glyphname = uni0271;
layers = (
{
layerId = "17EDFB39-10F1-469C-9F8C-2D18680A40AF";
paths = (
{
closed = 1;
nodes = (
"596 0 LINE",
"596 922 LINE SMOOTH",
"596 1050 OFFCURVE",
"740 1205 OFFCURVE",
"846 1205 QCURVE SMOOTH",
"951 1205 OFFCURVE",
"1080 1071 OFFCURVE",
"1080 958 QCURVE SMOOTH",
"1080 0 LINE",
"1493 0 LINE",
"1493 938 LINE SMOOTH",
"1493 1057 OFFCURVE",
"1623 1205 OFFCURVE",
"1739 1205 QCURVE SMOOTH",
"1841 1205 OFFCURVE",
"1977 1077 OFFCURVE",
"1977 949 QCURVE SMOOTH",
"1977 -94 LINE SMOOTH",
"1977 -184 OFFCURVE",
"1845 -245 OFFCURVE",
"1762 -245 QCURVE SMOOTH",
"1734 -245 OFFCURVE",
"1684 -240 OFFCURVE",
"1658 -237 QCURVE",
"1658 -562 LINE",
"1698 -567 OFFCURVE",
"1802 -576 OFFCURVE",
"1875 -576 QCURVE SMOOTH",
"2021 -576 OFFCURVE",
"2260 -492 OFFCURVE",
"2402 -282 OFFCURVE",
"2402 -94 QCURVE SMOOTH",
"2402 1033 LINE SMOOTH",
"2402 1283 OFFCURVE",
"2133 1556 OFFCURVE",
"1918 1556 QCURVE SMOOTH",
"1749 1556 OFFCURVE",
"1502 1397 OFFCURVE",
"1455 1265 QCURVE",
"1439 1265 LINE",
"1402 1399 OFFCURVE",
"1180 1556 OFFCURVE",
"1022 1556 QCURVE SMOOTH",
"867 1556 OFFCURVE",
"642 1401 OFFCURVE",
"594 1265 QCURVE",
"576 1265 LINE",
"576 1536 LINE",
"170 1536 LINE",
"170 0 LINE"
);
}
);
width = 2568;
}
);
leftKerningGroup = uni0250;
note = uni0271;
rightKerningGroup = uni0061;
unicode = 0271;
},
{
glyphname = uni0270;
layers = (
{
layerId = "17EDFB39-10F1-469C-9F8C-2D18680A40AF";
paths = (
{
closed = 1;
nodes = (
"2398 -576 LINE",
"2398 1536 LINE",
"1972 1536 LINE",
"1972 614 LINE SMOOTH",
"1972 487 OFFCURVE",
"1829 331 OFFCURVE",
"1722 331 QCURVE SMOOTH",
"1617 331 OFFCURVE",
"1488 465 OFFCURVE",
"1488 578 QCURVE SMOOTH",
"1488 1536 LINE",
"1075 1536 LINE",
"1075 598 LINE SMOOTH",
"1075 479 OFFCURVE",
"945 331 OFFCURVE",
"829 331 QCURVE SMOOTH",
"727 331 OFFCURVE",
"591 459 OFFCURVE",
"591 587 QCURVE SMOOTH",
"591 1536 LINE",
"166 1536 LINE",
"166 503 LINE SMOOTH",
"166 253 OFFCURVE",
"436 -20 OFFCURVE",
"650 -20 QCURVE SMOOTH",
"819 -20 OFFCURVE",
"1066 139 OFFCURVE",
"1113 271 QCURVE",
"1129 271 LINE",
"1166 138 OFFCURVE",
"1388 -20 OFFCURVE",
"1546 -20 QCURVE SMOOTH",
"1701 -20 OFFCURVE",
"1926 135 OFFCURVE",
"1974 271 QCURVE",
"1992 271 LINE",
"1992 -576 LINE"
);
}
);
width = 2568;
}
);
leftKerningGroup = uni0265;
note = uni0270;
rightKerningGroup = uni0067;
unicode = 0270;
},
{
glyphname = uni006E;
layers = (
{
layerId = "17EDFB39-10F1-469C-9F8C-2D18680A40AF";
paths = (
{
closed = 1;
nodes = (
"597 1037 OFFCURVE",
"758 1202 OFFCURVE",
"887 1202 QCURVE SMOOTH",
"1015 1202 OFFCURVE",
"1161 1043 OFFCURVE",
"1160 902 QCURVE SMOOTH",
"1160 0 LINE",
"1586 0 LINE",
"1586 978 LINE SMOOTH",
"1586 1247 OFFCURVE",
"1296 1556 OFFCURVE",
"1056 1556 QCURVE SMOOTH",
"885 1556 OFFCURVE",
"646 1399 OFFCURVE",
"594 1265 QCURVE",
"576 1265 LINE",
"576 1536 LINE",
"170 1536 LINE",
"170 0 LINE",
"596 0 LINE",
"596 888 LINE SMOOTH"
);
}
);
width = 1751;
}
);
leftKerningGroup = uni0250;
note = uni006E;
rightKerningGroup = uni0061;
unicode = 006E;
},
{
glyphname = uni0273;
layers = (
{
layerId = "17EDFB39-10F1-469C-9F8C-2D18680A40AF";
paths = (
{
closed = 1;
nodes = (
"597 1037 OFFCURVE",
"758 1202 OFFCURVE",
"887 1202 QCURVE SMOOTH",
"1015 1202 OFFCURVE",
"1161 1043 OFFCURVE",
"1160 902 QCURVE SMOOTH",
"1160 -94 LINE SMOOTH",
"1160 -282 OFFCURVE",
"1301 -492 OFFCURVE",
"1540 -576 OFFCURVE",
"1685 -576 QCURVE SMOOTH",
"1761 -576 OFFCURVE",
"1864 -567 OFFCURVE",
"1905 -562 QCURVE",
"1905 -237 LINE",
"1858 -241 OFFCURVE",
"1827 -245 OFFCURVE",
"1800 -245 QCURVE SMOOTH",
"1717 -245 OFFCURVE",
"1586 -184 OFFCURVE",
"1586 -94 QCURVE SMOOTH",
"1586 978 LINE SMOOTH",
"1586 1247 OFFCURVE",
"1296 1556 OFFCURVE",
"1056 1556 QCURVE SMOOTH",
"885 1556 OFFCURVE",
"646 1399 OFFCURVE",
"594 1265 QCURVE",
"576 1265 LINE",
"576 1536 LINE",
"170 1536 LINE",
"170 0 LINE",
"596 0 LINE",
"596 888 LINE SMOOTH"
);
}
);
width = 1818;
}
);
leftKerningGroup = uni0250;
note = uni0273;
rightKerningGroup = uni0256;
unicode = 0273;
},
{
glyphname = uni014B;
layers = (
{
layerId = "17EDFB39-10F1-469C-9F8C-2D18680A40AF";
paths = (
{
closed = 1;
nodes = (
"597 1037 OFFCURVE",
"758 1202 OFFCURVE",
"887 1202 QCURVE SMOOTH",
"1015 1202 OFFCURVE",
"1161 1043 OFFCURVE",
"1160 902 QCURVE SMOOTH",
"1160 -85 LINE SMOOTH",
"1160 -171 OFFCURVE",
"1063 -247 OFFCURVE",
"977 -247 QCURVE SMOOTH",
"940 -247 OFFCURVE",
"879 -239 OFFCURVE",
"850 -232 QCURVE",
"822 -578 LINE",
"875 -589 OFFCURVE",
"982 -595 OFFCURVE",
"1037 -595 QCURVE SMOOTH",
"1283 -595 OFFCURVE",
"1586 -339 OFFCURVE",
"1586 -85 QCURVE SMOOTH",
"1586 978 LINE SMOOTH",
"1586 1247 OFFCURVE",
"1296 1556 OFFCURVE",
"1056 1556 QCURVE SMOOTH",
"885 1556 OFFCURVE",
"646 1399 OFFCURVE",
"594 1265 QCURVE",
"576 1265 LINE",
"576 1536 LINE",
"170 1536 LINE",
"170 0 LINE",
"596 0 LINE",
"596 888 LINE SMOOTH"
);
}
);
width = 1778;
}
);
leftKerningGroup = uni0250;
note = uni014B;
unicode = 014B;
},
{
glyphname = uni0235;
layers = (
{
layerId = "17EDFB39-10F1-469C-9F8C-2D18680A40AF";
paths = (
{
closed = 1;
nodes = (
"597 1037 OFFCURVE",
"758 1202 OFFCURVE",
"887 1202 QCURVE SMOOTH",
"1015 1202 OFFCURVE",
"1161 1043 OFFCURVE",
"1160 902 QCURVE SMOOTH",
"1160 221 LINE",
"1100 169 OFFCURVE",
"1040 100 QCURVE SMOOTH",
"817 -146 LINE",
"1029 -335 LINE",
"1193 -151 LINE",
"1246 -289 OFFCURVE",
"1502 -429 OFFCURVE",
"1668 -428 QCURVE SMOOTH",
"1902 -427 OFFCURVE",
"2173 -195 OFFCURVE",
"2173 -14 QCURVE SMOOTH",
"2173 107 OFFCURVE",
"2055 291 OFFCURVE",
"1855 396 OFFCURVE",
"1729 396 QCURVE SMOOTH",
"1692 396 OFFCURVE",
"1621 395 OFFCURVE",
"1586 392 QCURVE",
"1586 978 LINE SMOOTH",
"1586 1247 OFFCURVE",
"1296 1556 OFFCURVE",
"1056 1556 QCURVE SMOOTH",
"885 1556 OFFCURVE",
"646 1399 OFFCURVE",
"594 1265 QCURVE",
"576 1265 LINE",
"576 1536 LINE",
"170 1536 LINE",
"170 0 LINE",
"596 0 LINE",
"596 888 LINE SMOOTH"
);
},
{
closed = 1;
nodes = (
"1586 117 LINE",
"1651 132 OFFCURVE",
"1699 131 QCURVE SMOOTH",
"1755 130 OFFCURVE",
"1830 66 OFFCURVE",
"1830 8 QCURVE SMOOTH",
"1830 -49 OFFCURVE",
"1769 -118 OFFCURVE",
"1716 -118 QCURVE SMOOTH",
"1661 -118 OFFCURVE",
"1586 -46 OFFCURVE",
"1586 11 QCURVE SMOOTH"
);
}
);
width = 2258;
}
);
leftKerningGroup = uni0250;
note = uni0235;
rightKerningGroup = uni04A2;
unicode = 0235;
},
{
glyphname = uni0272;
layers = (
{
layerId = "17EDFB39-10F1-469C-9F8C-2D18680A40AF";
paths = (
{
closed = 1;
nodes = (
"221 -85 LINE SMOOTH",
"221 -171 OFFCURVE",
"124 -247 OFFCURVE",
"38 -247 QCURVE SMOOTH",
"1 -247 OFFCURVE",
"-60 -239 OFFCURVE",
"-89 -232 QCURVE",
"-118 -578 LINE",
"-65 -589 OFFCURVE",
"43 -595 OFFCURVE",
"98 -595 QCURVE SMOOTH",
"343 -595 OFFCURVE",
"646 -339 OFFCURVE",
"646 -85 QCURVE SMOOTH",
"646 888 LINE SMOOTH",
"647 1037 OFFCURVE",
"808 1202 OFFCURVE",
"937 1202 QCURVE SMOOTH",
"1065 1202 OFFCURVE",
"1211 1043 OFFCURVE",
"1210 902 QCURVE SMOOTH",
"1210 0 LINE",
"1636 0 LINE",
"1636 978 LINE SMOOTH",
"1636 1247 OFFCURVE",
"1346 1556 OFFCURVE",
"1106 1556 QCURVE SMOOTH",
"935 1556 OFFCURVE",
"696 1399 OFFCURVE",
"644 1265 QCURVE",
"626 1265 LINE",
"626 1536 LINE",
"220 1536 LINE",
"220 0 LINE",
"221 0 LINE"
);
}
);
width = 1802;
}
);
leftKerningGroup = uni0191;
note = uni0272;
rightKerningGroup = uni0061;
unicode = 0272;
},
{
glyphname = uni006F;
layers = (
{
layerId = "17EDFB39-10F1-469C-9F8C-2D18680A40AF";
paths = (
{
closed = 1;
nodes = (
"1097 -30 OFFCURVE",
"1436 169 OFFCURVE",
"1620 526 OFFCURVE",
"1620 762 QCURVE SMOOTH",
"1620 1000 OFFCURVE",
"1436 1357 OFFCURVE",
"1097 1556 OFFCURVE",
"864 1556 QCURVE SMOOTH",
"631 1556 OFFCURVE",
"292 1357 OFFCURVE",
"108 1000 OFFCURVE",
"108 762 QCURVE SMOOTH",
"108 526 OFFCURVE",
"292 169 OFFCURVE",
"631 -30 OFFCURVE",
"864 -30 QCURVE SMOOTH"
);
},
{
closed = 1;
nodes = (
"705 300 OFFCURVE",
"541 564 OFFCURVE",
"541 765 QCURVE SMOOTH",
"541 966 OFFCURVE",
"705 1231 OFFCURVE",
"866 1231 QCURVE SMOOTH",
"1024 1231 OFFCURVE",
"1187 966 OFFCURVE",
"1187 765 QCURVE SMOOTH",
"1187 564 OFFCURVE",
"1024 300 OFFCURVE",
"866 300 QCURVE SMOOTH"
);
}
);
width = 1728;
}
);
leftKerningGroup = uniE02C;
note = uni006F;
rightKerningGroup = uni0062;
unicode = 006F;
},
{
glyphname = uni00F8;
layers = (
{
layerId = "17EDFB39-10F1-469C-9F8C-2D18680A40AF";
paths = (
{
closed = 1;
nodes = (
"508 44 LINE",
"665 -32 OFFCURVE",
"864 -32 QCURVE SMOOTH",
"1097 -32 OFFCURVE",
"1436 167 OFFCURVE",
"1620 524 OFFCURVE",
"1620 760 QCURVE SMOOTH",
"1620 941 OFFCURVE",
"1512 1237 OFFCURVE",
"1411 1342 QCURVE",
"1514 1490 LINE",
"1317 1622 LINE",
"1218 1480 LINE",
"1061 1554 OFFCURVE",
"864 1554 QCURVE SMOOTH",
"631 1554 OFFCURVE",
"292 1355 OFFCURVE",
"108 998 OFFCURVE",
"108 760 QCURVE SMOOTH",
"108 580 OFFCURVE",
"216 286 OFFCURVE",
"316 181 QCURVE",
"214 34 LINE",
"409 -98 LINE"
);
},
{
closed = 1;
nodes = (
"541 642 OFFCURVE",
"541 763 QCURVE SMOOTH",
"541 964 OFFCURVE",
"705 1229 OFFCURVE",
"866 1229 QCURVE SMOOTH",
"950 1229 OFFCURVE",
"1015 1188 QCURVE",
"570 546 LINE"
);
},
{
closed = 1;
nodes = (
"780 298 OFFCURVE",
"713 340 QCURVE",
"1158 979 LINE",
"1187 883 OFFCURVE",
"1187 763 QCURVE SMOOTH",
"1187 562 OFFCURVE",
"1024 298 OFFCURVE",
"866 298 QCURVE SMOOTH"
);
}
);
width = 1733;
}
);
leftKerningGroup = uniE02C;
note = uni00F8;
rightKerningGroup = uni0062;
unicode = 00F8;
},
{
glyphname = uni01A1;
layers = (
{
layerId = "17EDFB39-10F1-469C-9F8C-2D18680A40AF";
paths = (
{
closed = 1;
nodes = (
"1526 1517 OFFCURVE",
"1491 1356 OFFCURVE",
"1440 1311 QCURVE",
"1342 1428 OFFCURVE",
"1049 1556 OFFCURVE",
"864 1556 QCURVE SMOOTH",
"631 1556 OFFCURVE",
"292 1357 OFFCURVE",
"108 1000 OFFCURVE",
"108 762 QCURVE SMOOTH",
"108 526 OFFCURVE",
"292 169 OFFCURVE",
"631 -30 OFFCURVE",
"864 -30 QCURVE SMOOTH",
"1097 -30 OFFCURVE",
"1436 169 OFFCURVE",
"1620 526 OFFCURVE",
"1620 762 QCURVE SMOOTH",
"1620 975 OFFCURVE",
"1544 1144 QCURVE",
"1667 1205 OFFCURVE",
"1780 1451 OFFCURVE",
"1780 1626 QCURVE",
"1526 1626 LINE"
);
},
{
closed = 1;
nodes = (
"705 300 OFFCURVE",
"541 564 OFFCURVE",
"541 765 QCURVE SMOOTH",
"541 966 OFFCURVE",
"705 1231 OFFCURVE",
"866 1231 QCURVE SMOOTH",
"1024 1231 OFFCURVE",
"1187 966 OFFCURVE",
"1187 765 QCURVE SMOOTH",
"1187 564 OFFCURVE",
"1024 300 OFFCURVE",
"866 300 QCURVE SMOOTH"
);
}
);
width = 1780;
}
);
leftKerningGroup = uniE02C;
note = uni01A1;
rightKerningGroup = uni01A1;
unicode = 01A1;
},
{
glyphname = uni0473;
layers = (
{
layerId = "17EDFB39-10F1-469C-9F8C-2D18680A40AF";
paths = (
{
closed = 1;
nodes = (
"1097 -30 OFFCURVE",
"1436 169 OFFCURVE",
"1620 526 OFFCURVE",
"1620 762 QCURVE SMOOTH",
"1620 1000 OFFCURVE",
"1436 1357 OFFCURVE",
"1097 1556 OFFCURVE",
"864 1556 QCURVE SMOOTH",
"631 1556 OFFCURVE",
"292 1357 OFFCURVE",
"108 1000 OFFCURVE",
"108 762 QCURVE SMOOTH",
"108 526 OFFCURVE",
"292 169 OFFCURVE",
"631 -30 OFFCURVE",
"864 -30 QCURVE SMOOTH"
);
},
{
closed = 1;
nodes = (
"573 1044 OFFCURVE",
"732 1231 OFFCURVE",
"866 1231 QCURVE SMOOTH",
"998 1231 OFFCURVE",
"1155 1044 OFFCURVE",
"1178 893 QCURVE",
"550 893 LINE"
);
},
{
closed = 1;
nodes = (
"732 300 OFFCURVE",
"573 487 OFFCURVE",
"550 637 QCURVE",
"1178 637 LINE",
"1155 487 OFFCURVE",
"998 300 OFFCURVE",
"866 300 QCURVE SMOOTH"
);
}
);
width = 1733;
}
);
leftKerningGroup = uniE02C;
note = uni0473;
rightKerningGroup = uni0062;
unicode = 0473;
},
{
glyphname = uni0070;
layers = (
{
layerId = "17EDFB39-10F1-469C-9F8C-2D18680A40AF";
paths = (
{
closed = 1;
nodes = (
"596 -576 LINE",
"596 246 LINE",
"609 246 LINE",
"639 182 OFFCURVE",
"748 57 OFFCURVE",
"921 -25 OFFCURVE",
"1045 -25 QCURVE SMOOTH",
"1220 -25 OFFCURVE",
"1502 156 OFFCURVE",
"1668 509 OFFCURVE",
"1668 766 QCURVE SMOOTH",
"1668 1030 OFFCURVE",
"1497 1381 OFFCURVE",
"1215 1556 OFFCURVE",
"1046 1556 QCURVE SMOOTH",
"918 1556 OFFCURVE",
"744 1469 OFFCURVE",
"638 1341 OFFCURVE",
"609 1278 QCURVE",
"590 1278 LINE",
"590 1536 LINE",
"170 1536 LINE",
"170 -576 LINE"
);
},
{
closed = 1;
nodes = (
"587 974 OFFCURVE",
"755 1217 OFFCURVE",
"910 1217 QCURVE SMOOTH",
"1068 1217 OFFCURVE",
"1233 968 OFFCURVE",
"1233 768 QCURVE SMOOTH",
"1233 567 OFFCURVE",
"1067 314 OFFCURVE",
"910 314 QCURVE SMOOTH",
"756 314 OFFCURVE",
"587 563 OFFCURVE",
"587 768 QCURVE SMOOTH"
);
}
);
width = 1781;
}
);
leftKerningGroup = uni0250;
note = uni0070;
rightKerningGroup = uni0062;
unicode = 0070;
},
{
glyphname = uni048F;
layers = (
{
layerId = "17EDFB39-10F1-469C-9F8C-2D18680A40AF";
paths = (
{
closed = 1;
nodes = (
"606 -576 LINE",
"606 246 LINE",
"619 246 LINE",
"649 182 OFFCURVE",
"758 57 OFFCURVE",
"931 -25 OFFCURVE",
"1055 -25 QCURVE SMOOTH",
"1179 -25 OFFCURVE",
"1286 20 QCURVE",
"1402 -118 LINE",
"1550 1 LINE",
"1447 124 LINE",
"1553 223 OFFCURVE",
"1678 545 OFFCURVE",
"1678 766 QCURVE SMOOTH",
"1678 1030 OFFCURVE",
"1507 1381 OFFCURVE",
"1225 1556 OFFCURVE",
"1056 1556 QCURVE SMOOTH",
"928 1556 OFFCURVE",
"754 1469 OFFCURVE",
"648 1341 OFFCURVE",
"619 1278 QCURVE",
"600 1278 LINE",
"600 1536 LINE",
"180 1536 LINE",
"180 -576 LINE"
);
},
{
closed = 1;
nodes = (
"857 535 LINE",
"1026 332 LINE",
"977 314 OFFCURVE",
"920 314 QCURVE SMOOTH",
"766 314 OFFCURVE",
"597 563 OFFCURVE",
"597 768 QCURVE SMOOTH",
"597 974 OFFCURVE",
"765 1217 OFFCURVE",
"920 1217 QCURVE SMOOTH",
"1078 1217 OFFCURVE",
"1243 968 OFFCURVE",
"1243 768 QCURVE SMOOTH",
"1243 575 OFFCURVE",
"1169 455 QCURVE",
"1002 654 LINE"
);
}
);
width = 1723;
}
);
leftKerningGroup = uni0250;
note = uni048F;
rightKerningGroup = uni0062;
unicode = 048F;
},
{
glyphname = uni01A5;
layers = (
{
layerId = "17EDFB39-10F1-469C-9F8C-2D18680A40AF";
paths = (
{
closed = 1;
nodes = (
"590 1658 OFFCURVE",
"757 1655 QCURVE SMOOTH",
"798 1654 OFFCURVE",
"875 1640 OFFCURVE",
"893 1635 QCURVE",
"893 1919 LINE",
"863 1927 OFFCURVE",
"750 1943 OFFCURVE",
"675 1943 QCURVE SMOOTH",
"416 1943 OFFCURVE",
"170 1752 OFFCURVE",
"170 1536 QCURVE SMOOTH",
"170 -576 LINE",
"596 -576 LINE",
"596 246 LINE",
"609 246 LINE",
"639 182 OFFCURVE",
"748 57 OFFCURVE",
"921 -25 OFFCURVE",
"1045 -25 QCURVE SMOOTH",
"1220 -25 OFFCURVE",
"1502 156 OFFCURVE",
"1668 509 OFFCURVE",
"1668 766 QCURVE SMOOTH",
"1668 1030 OFFCURVE",
"1497 1381 OFFCURVE",
"1215 1556 OFFCURVE",
"1046 1556 QCURVE SMOOTH",
"918 1556 OFFCURVE",
"744 1469 OFFCURVE",
"638 1341 OFFCURVE",
"609 1278 QCURVE",
"590 1278 LINE",
"590 1536 LINE SMOOTH"
);
},
{
closed = 1;
nodes = (
"587 974 OFFCURVE",
"755 1217 OFFCURVE",
"910 1217 QCURVE SMOOTH",
"1068 1217 OFFCURVE",
"1233 968 OFFCURVE",
"1233 768 QCURVE SMOOTH",
"1233 567 OFFCURVE",
"1067 314 OFFCURVE",
"910 314 QCURVE SMOOTH",
"756 314 OFFCURVE",
"587 563 OFFCURVE",
"587 768 QCURVE SMOOTH"
);
}
);
width = 1781;
}
);
leftKerningGroup = uni0250;
note = uni01A5;
rightKerningGroup = uni0062;
unicode = 01A5;
},
{
glyphname = uni02A0;
layers = (
{
layerId = "17EDFB39-10F1-469C-9F8C-2D18680A40AF";
paths = (
{
closed = 1;
nodes = (
"1610 1656 OFFCURVE",
"1777 1655 QCURVE SMOOTH",
"1818 1654 OFFCURVE",
"1895 1640 OFFCURVE",
"1913 1635 QCURVE",
"1913 1919 LINE",
"1883 1927 OFFCURVE",
"1770 1943 OFFCURVE",
"1695 1943 QCURVE SMOOTH",
"1436 1943 OFFCURVE",
"1190 1752 OFFCURVE",
"1190 1536 QCURVE",
"1191 1536 LINE",
"1191 1278 LINE",
"1172 1278 LINE",
"1144 1341 OFFCURVE",
"1037 1469 OFFCURVE",
"864 1556 OFFCURVE",
"735 1556 QCURVE SMOOTH",
"567 1556 OFFCURVE",
"284 1381 OFFCURVE",
"113 1030 OFFCURVE",
"113 766 QCURVE SMOOTH",
"113 509 OFFCURVE",
"279 156 OFFCURVE",
"561 -25 OFFCURVE",
"736 -25 QCURVE SMOOTH",
"860 -25 OFFCURVE",
"1033 57 OFFCURVE",
"1143 182 OFFCURVE",
"1172 246 QCURVE",
"1185 246 LINE",
"1185 -576 LINE",
"1611 -576 LINE",
"1611 1536 LINE",
"1610 1536 LINE"
);
},
{
closed = 1;
nodes = (
"1194 563 OFFCURVE",
"1025 314 OFFCURVE",
"871 314 QCURVE SMOOTH",
"714 314 OFFCURVE",
"548 567 OFFCURVE",
"548 768 QCURVE SMOOTH",
"548 968 OFFCURVE",
"713 1217 OFFCURVE",
"871 1217 QCURVE SMOOTH",
"1026 1217 OFFCURVE",
"1194 974 OFFCURVE",
"1194 768 QCURVE SMOOTH"
);
}
);
width = 1929;
}
);
leftKerningGroup = uni0250;
note = uni02A0;
rightKerningGroup = uni0062;
unicode = 02A0;
},
{
glyphname = uni024B;
layers = (
{
layerId = "17EDFB39-10F1-469C-9F8C-2D18680A40AF";
paths = (
{
closed = 1;
nodes = (
"1780 -576 OFFCURVE",
"1894 -567 OFFCURVE",
"1930 -562 QCURVE",
"1930 -237 LINE",
"1904 -240 OFFCURVE",
"1851 -245 OFFCURVE",
"1825 -245 QCURVE SMOOTH",
"1743 -245 OFFCURVE",
"1610 -184 OFFCURVE",
"1610 -94 QCURVE SMOOTH",
"1610 1536 LINE",
"1190 1536 LINE",
"1190 1278 LINE",
"1172 1278 LINE",
"1144 1341 OFFCURVE",
"1037 1469 OFFCURVE",
"864 1556 OFFCURVE",
"735 1556 QCURVE SMOOTH",
"567 1556 OFFCURVE",
"284 1381 OFFCURVE",
"113 1030 OFFCURVE",
"113 766 QCURVE SMOOTH",
"113 509 OFFCURVE",
"279 156 OFFCURVE",
"561 -25 OFFCURVE",
"736 -25 QCURVE SMOOTH",
"860 -25 OFFCURVE",
"1033 57 OFFCURVE",
"1143 182 OFFCURVE",
"1172 246 QCURVE",
"1185 246 LINE",
"1185 -94 LINE SMOOTH",
"1185 -282 OFFCURVE",
"1326 -492 OFFCURVE",
"1564 -576 OFFCURVE",
"1710 -576 QCURVE SMOOTH"
);
},
{
closed = 1;
nodes = (
"714 314 OFFCURVE",
"548 567 OFFCURVE",
"548 768 QCURVE SMOOTH",
"548 968 OFFCURVE",
"713 1217 OFFCURVE",
"871 1217 QCURVE SMOOTH",
"1026 1217 OFFCURVE",
"1194 974 OFFCURVE",
"1194 768 QCURVE SMOOTH",
"1194 563 OFFCURVE",
"1025 314 OFFCURVE",
"871 314 QCURVE SMOOTH"
);
}
);
width = 1930;
}
);
leftKerningGroup = uni0250;
note = uni024B;
rightKerningGroup = uni0256;
unicode = 024B;
},
{
glyphname = uni024A;
layers = (
{
layerId = "17EDFB39-10F1-469C-9F8C-2D18680A40AF";
paths = (
{
closed = 1;
nodes = (
"1594 2048 LINE",
"1594 1749 LINE",
"1574 1749 LINE",
"1500 1889 OFFCURVE",
"1209 2076 OFFCURVE",
"1000 2076 QCURVE SMOOTH",
"815 2076 OFFCURVE",
"502 1917 OFFCURVE",
"270 1632 OFFCURVE",
"142 1250 OFFCURVE",
"142 1027 QCURVE SMOOTH",
"142 802 OFFCURVE",
"269 418 OFFCURVE",
"499 130 OFFCURVE",
"813 -30 OFFCURVE",
"1000 -30 QCURVE SMOOTH",
"1206 -30 OFFCURVE",
"1499 158 OFFCURVE",
"1574 302 QCURVE",
"1590 302 LINE",
"1590 -94 LINE SMOOTH",
"1590 -282 OFFCURVE",
"1731 -492 OFFCURVE",
"1970 -576 OFFCURVE",
"2115 -576 QCURVE SMOOTH",
"2187 -576 OFFCURVE",
"2298 -567 OFFCURVE",
"2335 -562 QCURVE",
"2335 -237 LINE",
"2310 -240 OFFCURVE",
"2257 -245 OFFCURVE",
"2230 -245 QCURVE SMOOTH",
"2147 -245 OFFCURVE",
"2016 -184 OFFCURVE",
"2016 -94 QCURVE SMOOTH",
"2016 2048 LINE"
);
},
{
closed = 1;
nodes = (
"853 355 OFFCURVE",
"582 708 OFFCURVE",
"582 1026 QCURVE SMOOTH",
"582 1334 OFFCURVE",
"850 1696 OFFCURVE",
"1088 1696 QCURVE SMOOTH",
"1340 1696 OFFCURVE",
"1592 1327 OFFCURVE",
"1592 1026 QCURVE SMOOTH",
"1592 722 OFFCURVE",
"1346 355 OFFCURVE",
"1086 355 QCURVE SMOOTH"
);
}
);
width = 2335;
}
);
note = uni024A;
rightKerningGroup = uni0256;
unicode = 024A;
},
{
glyphname = uni0072;
layers = (
{
layerId = "17EDFB39-10F1-469C-9F8C-2D18680A40AF";
paths = (
{
closed = 1;
nodes = (
"596 0 LINE",
"596 869 LINE SMOOTH",
"596 1011 OFFCURVE",
"781 1188 OFFCURVE",
"922 1188 QCURVE SMOOTH",
"966 1188 OFFCURVE",
"1072 1175 OFFCURVE",
"1102 1165 QCURVE",
"1102 1543 LINE",
"1039 1558 OFFCURVE",
"968 1558 QCURVE SMOOTH",
"839 1558 OFFCURVE",
"641 1411 OFFCURVE",
"599 1268 QCURVE",
"583 1268 LINE",
"583 1536 LINE",
"170 1536 LINE",
"170 0 LINE"
);
}
);
width = 1151;
}
);
leftKerningGroup = uni0250;
note = uni0072;
rightKerningGroup = uni0072;
unicode = 0072;
},
{
glyphname = uniE05D;
layers = (
{
layerId = "17EDFB39-10F1-469C-9F8C-2D18680A40AF";
paths = (
{
closed = 1;
nodes = (
"772 -576 OFFCURVE",
"875 -567 OFFCURVE",
"915 -562 QCURVE",
"915 -237 LINE",
"890 -240 OFFCURVE",
"837 -245 OFFCURVE",
"810 -245 QCURVE SMOOTH",
"729 -245 OFFCURVE",
"596 -184 OFFCURVE",
"596 -94 QCURVE SMOOTH",
"596 869 LINE SMOOTH",
"596 1011 OFFCURVE",
"781 1188 OFFCURVE",
"922 1188 QCURVE SMOOTH",
"966 1188 OFFCURVE",
"1072 1175 OFFCURVE",
"1102 1165 QCURVE",
"1102 1543 LINE",
"1039 1558 OFFCURVE",
"968 1558 QCURVE SMOOTH",
"839 1558 OFFCURVE",
"641 1411 OFFCURVE",
"599 1268 QCURVE",
"583 1268 LINE",
"583 1536 LINE",
"170 1536 LINE",
"170 -94 LINE SMOOTH",
"170 -282 OFFCURVE",
"312 -492 OFFCURVE",
"551 -576 OFFCURVE",
"698 -576 QCURVE SMOOTH"
);
}
);
width = 1151;
}
);
leftKerningGroup = uni0250;
note = uniE05D;
rightKerningGroup = uni0072;
unicode = E05D;
},
{
glyphname = uni027B;
layers = (
{
layerId = "17EDFB39-10F1-469C-9F8C-2D18680A40AF";
paths = (
{
closed = 1;
nodes = (
"1227 -600 OFFCURVE",
"1324 -582 QCURVE",
"1324 -302 LINE",
"1296 -306 OFFCURVE",
"1246 -310 OFFCURVE",
"1217 -310 QCURVE SMOOTH",
"981 -310 OFFCURVE",
"981 -103 QCURVE SMOOTH",
"981 1536 LINE",
"555 1536 LINE",
"555 667 LINE SMOOTH",
"555 525 OFFCURVE",
"370 348 OFFCURVE",
"229 348 QCURVE SMOOTH",
"185 348 OFFCURVE",
"79 361 OFFCURVE",
"49 371 QCURVE",
"49 -7 LINE",
"112 -22 OFFCURVE",
"183 -22 QCURVE SMOOTH",
"312 -22 OFFCURVE",
"510 126 OFFCURVE",
"552 268 QCURVE",
"568 268 LINE",
"568 -122 LINE SMOOTH",
"568 -312 OFFCURVE",
"714 -519 OFFCURVE",
"957 -600 OFFCURVE",
"1104 -600 QCURVE SMOOTH"
);
}
);
width = 1292;
}
);
note = uni027B;
rightKerningGroup = uni0256;
unicode = 027B;
},
{
glyphname = uni027F;
layers = (
{
layerId = "17EDFB39-10F1-469C-9F8C-2D18680A40AF";
paths = (
{
closed = 1;
nodes = (
"899 1045 LINE SMOOTH",
"899 1194 OFFCURVE",
"805 1382 OFFCURVE",
"647 1484 OFFCURVE",
"453 1522 OFFCURVE",
"354 1522 QCURVE SMOOTH",
"288 1522 OFFCURVE",
"182 1511 OFFCURVE",
"137 1502 QCURVE",
"137 1220 LINE",
"159 1223 OFFCURVE",
"217 1228 OFFCURVE",
"242 1228 QCURVE SMOOTH",
"299 1228 OFFCURVE",
"411 1197 OFFCURVE",
"486 1116 OFFCURVE",
"486 1041 QCURVE SMOOTH",
"486 -574 LINE",
"899 -574 LINE"
);
}
);
width = 1060;
}
);
note = uni027F;
rightKerningGroup = uni0061;
unicode = 027F;
},
{
glyphname = uni027E;
layers = (
{
layerId = "17EDFB39-10F1-469C-9F8C-2D18680A40AF";
paths = (
{
closed = 1;
nodes = (
"574 1041 LINE SMOOTH",
"574 1116 OFFCURVE",
"649 1197 OFFCURVE",
"763 1228 OFFCURVE",
"821 1228 QCURVE SMOOTH",
"850 1228 OFFCURVE",
"900 1223 OFFCURVE",
"926 1220 QCURVE",
"926 1502 LINE",
"880 1511 OFFCURVE",
"771 1522 OFFCURVE",
"703 1522 QCURVE SMOOTH",
"604 1522 OFFCURVE",
"412 1484 OFFCURVE",
"254 1382 OFFCURVE",
"161 1194 OFFCURVE",
"161 1045 QCURVE SMOOTH",
"161 0 LINE",
"574 0 LINE"
);
}
);
width = 1062;
}
);
leftKerningGroup = uni0250;
note = uni027E;
rightKerningGroup = uni0072;
unicode = 027E;
},
{
glyphname = uniE05E;
layers = (
{
layerId = "17EDFB39-10F1-469C-9F8C-2D18680A40AF";
paths = (
{
closed = 1;
nodes = (
"596 -576 LINE",
"596 869 LINE SMOOTH",
"596 1011 OFFCURVE",
"781 1188 OFFCURVE",
"922 1188 QCURVE SMOOTH",
"966 1188 OFFCURVE",
"1072 1175 OFFCURVE",
"1102 1165 QCURVE",
"1102 1543 LINE",
"1039 1558 OFFCURVE",
"968 1558 QCURVE SMOOTH",
"839 1558 OFFCURVE",
"641 1411 OFFCURVE",
"599 1268 QCURVE",
"583 1268 LINE",
"583 1536 LINE",
"170 1536 LINE",
"170 -576 LINE"
);
}
);
width = 1151;
}
);
leftKerningGroup = uni0250;
note = uniE05E;
rightKerningGroup = uni0072;
unicode = E05E;
},
{
glyphname = uniE05F;
layers = (
{
layerId = "17EDFB39-10F1-469C-9F8C-2D18680A40AF";
paths = (
{
closed = 1;
nodes = (
"596 0 LINE",
"596 869 LINE SMOOTH",
"597 1010 OFFCURVE",
"776 1186 OFFCURVE",
"905 1186 QCURVE SMOOTH",
"949 1186 OFFCURVE",
"1020 1165 OFFCURVE",
"1050 1150 QCURVE",
"1178 1502 LINE",
"1136 1528 OFFCURVE",
"1030 1558 OFFCURVE",
"968 1558 QCURVE SMOOTH",
"838 1558 OFFCURVE",
"641 1411 OFFCURVE",
"599 1268 QCURVE",
"583 1268 LINE",
"583 1536 LINE",
"170 1536 LINE",
"170 0 LINE"
);
}
);
width = 1188;
}
);
leftKerningGroup = uni0250;
note = uniE05F;
rightKerningGroup = uni0072;
unicode = E05F;
},
{
glyphname = uni027D;
layers = (
{
layerId = "17EDFB39-10F1-469C-9F8C-2D18680A40AF";
paths = (
{
closed = 1;
nodes = (
"772 -576 OFFCURVE",
"876 -567 OFFCURVE",
"915 -562 QCURVE",
"915 -237 LINE",
"890 -240 OFFCURVE",
"837 -245 OFFCURVE",
"810 -245 QCURVE SMOOTH",
"729 -245 OFFCURVE",
"596 -184 OFFCURVE",
"596 -94 QCURVE SMOOTH",
"596 869 LINE SMOOTH",
"597 1010 OFFCURVE",
"776 1186 OFFCURVE",
"905 1186 QCURVE SMOOTH",
"949 1186 OFFCURVE",
"1020 1165 OFFCURVE",
"1050 1150 QCURVE",
"1178 1502 LINE",
"1136 1528 OFFCURVE",
"1030 1558 OFFCURVE",
"968 1558 QCURVE SMOOTH",
"838 1558 OFFCURVE",
"641 1411 OFFCURVE",
"599 1268 QCURVE",
"583 1268 LINE",
"583 1536 LINE",
"170 1536 LINE",
"170 -94 LINE SMOOTH",
"170 -282 OFFCURVE",
"312 -492 OFFCURVE",
"552 -576 OFFCURVE",
"698 -576 QCURVE SMOOTH"
);
}
);
width = 1188;
}
);
leftKerningGroup = uni0250;
note = uni027D;
rightKerningGroup = uni0072;
unicode = 027D;
},
{
glyphname = uni027C;
layers = (
{
layerId = "17EDFB39-10F1-469C-9F8C-2D18680A40AF";
paths = (
{
closed = 1;
nodes = (
"596 -576 LINE",
"596 869 LINE SMOOTH",
"597 1010 OFFCURVE",
"776 1186 OFFCURVE",
"905 1186 QCURVE SMOOTH",
"949 1186 OFFCURVE",
"1020 1165 OFFCURVE",
"1050 1150 QCURVE",
"1178 1502 LINE",
"1136 1528 OFFCURVE",
"1030 1558 OFFCURVE",
"968 1558 QCURVE SMOOTH",
"838 1558 OFFCURVE",
"641 1411 OFFCURVE",
"599 1268 QCURVE",
"583 1268 LINE",
"583 1536 LINE",
"170 1536 LINE",
"170 -576 LINE"
);
}
);
width = 1188;
}
);
leftKerningGroup = uni0250;
note = uni027C;
rightKerningGroup = uni0072;
unicode = 027C;
},
{
glyphname = uni0073;
layers = (
{
layerId = "17EDFB39-10F1-469C-9F8C-2D18680A40AF";
paths = (
{
closed = 1;
nodes = (
"1420 1310 OFFCURVE",
"1085 1556 OFFCURVE",
"794 1556 QCURVE SMOOTH",
"499 1556 OFFCURVE",
"142 1300 OFFCURVE",
"143 1078 QCURVE SMOOTH",
"141 728 OFFCURVE",
"587 639 QCURVE SMOOTH",
"853 586 LINE SMOOTH",
"1047 547 OFFCURVE",
"1050 433 QCURVE SMOOTH",
"1049 365 OFFCURVE",
"912 277 OFFCURVE",
"800 277 QCURVE SMOOTH",
"686 277 OFFCURVE",
"541 373 OFFCURVE",
"521 467 QCURVE",
"102 445 LINE",
"132 225 OFFCURVE",
"494 -30 OFFCURVE",
"799 -30 QCURVE SMOOTH",
"998 -30 OFFCURVE",
"1306 97 OFFCURVE",
"1483 325 OFFCURVE",
"1483 476 QCURVE SMOOTH",
"1482 801 OFFCURVE",
"1039 892 QCURVE SMOOTH",
"761 948 LINE SMOOTH",
"654 971 OFFCURVE",
"565 1047 OFFCURVE",
"566 1102 QCURVE SMOOTH",
"565 1171 OFFCURVE",
"702 1254 OFFCURVE",
"801 1254 QCURVE SMOOTH",
"912 1254 OFFCURVE",
"1042 1148 OFFCURVE",
"1058 1074 QCURVE",
"1448 1098 LINE"
);
}
);
width = 1582;
}
);
leftKerningGroup = uni0073;
note = uni0073;
rightKerningGroup = uni0073;
unicode = 0073;
},
{
glyphname = uni0282;
layers = (
{
layerId = "17EDFB39-10F1-469C-9F8C-2D18680A40AF";
paths = (
{
closed = 1;
nodes = (
"102 -82 LINE SMOOTH",
"102 -306 OFFCURVE",
"364 -555 OFFCURVE",
"578 -555 QCURVE SMOOTH",
"628 -555 OFFCURVE",
"713 -547 OFFCURVE",
"758 -537 QCURVE",
"758 -256 LINE",
"730 -261 OFFCURVE",
"676 -264 OFFCURVE",
"648 -264 QCURVE SMOOTH",
"551 -264 OFFCURVE",
"424 -170 OFFCURVE",
"424 -61 QCURVE SMOOTH",
"424 37 LINE",
"582 -30 OFFCURVE",
"799 -30 QCURVE SMOOTH",
"998 -30 OFFCURVE",
"1306 97 OFFCURVE",
"1483 325 OFFCURVE",
"1483 476 QCURVE SMOOTH",
"1482 801 OFFCURVE",
"1039 892 QCURVE SMOOTH",
"761 948 LINE SMOOTH",
"654 971 OFFCURVE",
"565 1047 OFFCURVE",
"566 1102 QCURVE SMOOTH",
"565 1171 OFFCURVE",
"702 1254 OFFCURVE",
"801 1254 QCURVE SMOOTH",
"912 1254 OFFCURVE",
"1042 1148 OFFCURVE",
"1058 1074 QCURVE",
"1448 1098 LINE",
"1420 1310 OFFCURVE",
"1085 1556 OFFCURVE",
"794 1556 QCURVE SMOOTH",
"499 1556 OFFCURVE",
"142 1300 OFFCURVE",
"143 1078 QCURVE SMOOTH",
"141 728 OFFCURVE",
"587 639 QCURVE SMOOTH",
"853 586 LINE SMOOTH",
"1047 547 OFFCURVE",
"1050 433 QCURVE SMOOTH",
"1049 365 OFFCURVE",
"912 277 OFFCURVE",
"800 277 QCURVE SMOOTH",
"686 277 OFFCURVE",
"541 373 OFFCURVE",
"521 467 QCURVE",
"102 445 LINE"
);
}
);
width = 1582;
}
);
leftKerningGroup = uni0073;
note = uni0282;
rightKerningGroup = uni0073;
unicode = 0282;
},
{
glyphname = uni023F;
layers = (
{
layerId = "17EDFB39-10F1-469C-9F8C-2D18680A40AF";
paths = (
{
closed = 1;
nodes = (
"1420 1310 OFFCURVE",
"1085 1556 OFFCURVE",
"794 1556 QCURVE SMOOTH",
"499 1556 OFFCURVE",
"142 1300 OFFCURVE",
"143 1078 QCURVE SMOOTH",
"141 728 OFFCURVE",
"587 639 QCURVE SMOOTH",
"853 586 LINE SMOOTH",
"1047 547 OFFCURVE",
"1050 433 QCURVE SMOOTH",
"1049 365 OFFCURVE",
"912 277 OFFCURVE",
"800 277 QCURVE SMOOTH",
"686 277 OFFCURVE",
"541 373 OFFCURVE",
"521 467 QCURVE",
"102 445 LINE",
"122 300 OFFCURVE",
"208 194 QCURVE",
"432 -191 LINE SMOOTH",
"489 -288 OFFCURVE",
"625 -465 OFFCURVE",
"808 -576 OFFCURVE",
"932 -576 QCURVE SMOOTH",
"1063 -576 OFFCURVE",
"1263 -456 OFFCURVE",
"1332 -397 QCURVE",
"1204 -174 LINE",
"1158 -213 OFFCURVE",
"1031 -285 OFFCURVE",
"946 -285 QCURVE SMOOTH",
"904 -285 OFFCURVE",
"831 -246 OFFCURVE",
"744 -134 OFFCURVE",
"681 -25 QCURVE",
"738 -30 OFFCURVE",
"799 -30 QCURVE SMOOTH",
"998 -30 OFFCURVE",
"1306 97 OFFCURVE",
"1483 325 OFFCURVE",
"1483 476 QCURVE SMOOTH",
"1482 801 OFFCURVE",
"1039 892 QCURVE SMOOTH",
"761 948 LINE SMOOTH",
"654 971 OFFCURVE",
"565 1047 OFFCURVE",
"566 1102 QCURVE SMOOTH",
"565 1171 OFFCURVE",
"702 1254 OFFCURVE",
"801 1254 QCURVE SMOOTH",
"912 1254 OFFCURVE",
"1042 1148 OFFCURVE",
"1058 1074 QCURVE",
"1448 1098 LINE"
);
}
);
width = 1587;
}
);
leftKerningGroup = uni0073;
note = uni023F;
rightKerningGroup = uni0073;
unicode = 023F;
},
{
glyphname = uni00DF;
layers = (
{
layerId = "17EDFB39-10F1-469C-9F8C-2D18680A40AF";
paths = (
{
closed = 1;
nodes = (
"604 0 LINE",
"604 1445 LINE SMOOTH",
"604 1570 OFFCURVE",
"766 1719 OFFCURVE",
"897 1719 QCURVE SMOOTH",
"1030 1719 OFFCURVE",
"1180 1572 OFFCURVE",
"1178 1459 QCURVE SMOOTH",
"1177 1355 OFFCURVE",
"1048 1202 OFFCURVE",
"939 1202 QCURVE SMOOTH",
"833 1202 LINE",
"833 870 LINE",
"991 870 LINE SMOOTH",
"1144 870 OFFCURVE",
"1321 725 OFFCURVE",
"1322 605 QCURVE SMOOTH",
"1324 489 OFFCURVE",
"1162 347 OFFCURVE",
"1026 347 QCURVE SMOOTH",
"825 347 LINE",
"825 0 LINE",
"1094 0 LINE SMOOTH",
"1289 0 OFFCURVE",
"1585 132 OFFCURVE",
"1752 385 OFFCURVE",
"1753 564 QCURVE SMOOTH",
"1754 779 OFFCURVE",
"1518 1063 OFFCURVE",
"1318 1076 QCURVE",
"1318 1098 LINE",
"1455 1137 OFFCURVE",
"1614 1363 OFFCURVE",
"1614 1522 QCURVE SMOOTH",
"1614 1704 OFFCURVE",
"1414 1951 OFFCURVE",
"1082 2076 OFFCURVE",
"883 2076 QCURVE SMOOTH",
"670 2076 OFFCURVE",
"353 1939 OFFCURVE",
"178 1684 OFFCURVE",
"178 1507 QCURVE SMOOTH",
"178 0 LINE"
);
}
);
width = 1870;
}
);
leftKerningGroup = uni0042;
note = uni00DF;
rightKerningGroup = uni0042;
unicode = 00DF;
},
{
glyphname = uniE06A;
layers = (
{
layerId = "17EDFB39-10F1-469C-9F8C-2D18680A40AF";
paths = (
{
closed = 1;
nodes = (
"592 1598 OFFCURVE",
"724 1724 OFFCURVE",
"826 1724 QCURVE SMOOTH",
"928 1724 OFFCURVE",
"1060 1620 OFFCURVE",
"1060 1526 QCURVE SMOOTH",
"1060 1459 OFFCURVE",
"1013 1360 OFFCURVE",
"953 1269 OFFCURVE",
"906 1160 OFFCURVE",
"906 1082 QCURVE SMOOTH",
"906 977 OFFCURVE",
"991 842 OFFCURVE",
"1117 747 OFFCURVE",
"1242 664 OFFCURVE",
"1327 563 OFFCURVE",
"1327 486 QCURVE SMOOTH",
"1327 398 OFFCURVE",
"1197 312 OFFCURVE",
"1097 312 QCURVE SMOOTH",
"985 312 OFFCURVE",
"851 354 OFFCURVE",
"810 371 QCURVE",
"704 50 LINE",
"764 16 OFFCURVE",
"984 -28 OFFCURVE",
"1098 -28 QCURVE SMOOTH",
"1319 -28 OFFCURVE",
"1602 103 OFFCURVE",
"1738 326 OFFCURVE",
"1738 465 QCURVE SMOOTH",
"1738 583 OFFCURVE",
"1657 747 OFFCURVE",
"1537 864 OFFCURVE",
"1416 956 OFFCURVE",
"1335 1046 OFFCURVE",
"1335 1101 QCURVE SMOOTH",
"1335 1160 OFFCURVE",
"1376 1252 OFFCURVE",
"1429 1347 OFFCURVE",
"1470 1467 OFFCURVE",
"1470 1552 QCURVE SMOOTH",
"1470 1719 OFFCURVE",
"1301 1953 OFFCURVE",
"1009 2076 OFFCURVE",
"826 2076 QCURVE SMOOTH",
"534 2076 OFFCURVE",
"178 1757 OFFCURVE",
"178 1443 QCURVE SMOOTH",
"178 0 LINE",
"592 0 LINE",
"592 1443 LINE SMOOTH"
);
}
);
width = 1841;
}
);
leftKerningGroup = uni0042;
note = uniE06A;
rightKerningGroup = uni0042;
unicode = E06A;
},
{
glyphname = uni0074;
lastChange = "2019-07-10 02:24:31 +0000";
layers = (
{
layerId = "17EDFB39-10F1-469C-9F8C-2D18680A40AF";
paths = (
{
closed = 1;
nodes = (
"698 1536 LINE",
"698 1904 LINE",
"272 1904 LINE",
"272 1536 LINE",
"62 1536 LINE",
"62 1216 LINE",
"272 1216 LINE",
"272 316 LINE SMOOTH",
"272 174 OFFCURVE",
"443 0 OFFCURVE",
"579 0 QCURVE SMOOTH",
"1015 0 LINE",
"1015 336 LINE",
"801 336 LINE",
"739 336 OFFCURVE",
"698 391 OFFCURVE",
"698 432 QCURVE SMOOTH",
"698 1216 LINE",
"987 1216 LINE",
"987 1536 LINE"
);
}
);
width = 1094;
},
{
associatedMasterId = "17EDFB39-10F1-469C-9F8C-2D18680A40AF";
layerId = "7622F31E-15AC-4C4D-A637-5647CCD8B55B";
name = "Jul 9 19, 22:22";
paths = (
{
closed = 1;
nodes = (
"698 1536 LINE",
"698 1904 LINE",
"272 1904 LINE",
"272 1536 LINE",
"62 1536 LINE",
"62 1216 LINE",
"272 1216 LINE",
"272 416 LINE SMOOTH",
"271 190 OFFCURVE",
"552 -31 OFFCURVE",
"784 -21 QCURVE SMOOTH",
"867 -18 OFFCURVE",
"983 9 OFFCURVE",
"1015 19 QCURVE",
"948 336 LINE",
"932 333 OFFCURVE",
"872 322 OFFCURVE",
"842 322 QCURVE SMOOTH",
"778 322 OFFCURVE",
"698 384 OFFCURVE",
"698 472 QCURVE SMOOTH",
"698 1216 LINE",
"987 1216 LINE",
"987 1536 LINE"
);
}
);
visible = 1;
width = 1094;
}
);
leftKerningGroup = uni02AE;
note = uni0074;
rightKerningGroup = uni04A2;
unicode = 0074;
},
{
glyphname = uni01AB;
layers = (
{
layerId = "17EDFB39-10F1-469C-9F8C-2D18680A40AF";
paths = (
{
closed = 1;
nodes = (
"698 1536 LINE",
"698 1904 LINE",
"272 1904 LINE",
"272 1536 LINE",
"62 1536 LINE",
"62 1216 LINE",
"272 1216 LINE",
"272 416 LINE SMOOTH",
"271 204 OFFCURVE",
"519 -16 OFFCURVE",
"727 -22 QCURVE",
"727 -94 LINE SMOOTH",
"727 -170 OFFCURVE",
"652 -251 OFFCURVE",
"541 -281 OFFCURVE",
"486 -281 QCURVE SMOOTH",
"454 -281 OFFCURVE",
"403 -276 OFFCURVE",
"379 -273 QCURVE",
"379 -554 LINE",
"424 -565 OFFCURVE",
"509 -574 OFFCURVE",
"558 -574 QCURVE SMOOTH",
"771 -574 OFFCURVE",
"1026 -325 OFFCURVE",
"1026 -94 QCURVE SMOOTH",
"1026 357 LINE",
"864 323 LINE",
"852 322 OFFCURVE",
"842 322 QCURVE SMOOTH",
"778 322 OFFCURVE",
"698 384 OFFCURVE",
"698 472 QCURVE SMOOTH",
"698 1216 LINE",
"987 1216 LINE",
"987 1536 LINE"
);
}
);
width = 1104;
}
);
leftKerningGroup = uni02AE;
note = uni01AB;
rightKerningGroup = uni04A2;
unicode = 01AB;
},
{
glyphname = uni0288;
layers = (
{
layerId = "17EDFB39-10F1-469C-9F8C-2D18680A40AF";
paths = (
{
closed = 1;
nodes = (
"698 1536 LINE",
"698 1904 LINE",
"272 1904 LINE",
"272 1536 LINE",
"62 1536 LINE",
"62 1216 LINE",
"272 1216 LINE",
"272 -150 LINE SMOOTH",
"271 -376 OFFCURVE",
"553 -595 OFFCURVE",
"784 -586 QCURVE SMOOTH",
"867 -583 OFFCURVE",
"984 -557 OFFCURVE",
"1015 -546 QCURVE",
"948 -229 LINE",
"933 -232 OFFCURVE",
"872 -243 OFFCURVE",
"842 -243 QCURVE SMOOTH",
"778 -243 OFFCURVE",
"698 -181 OFFCURVE",
"698 -93 QCURVE SMOOTH",
"698 1216 LINE",
"987 1216 LINE",
"987 1536 LINE"
);
}
);
width = 1100;
}
);
leftKerningGroup = uni02AE;
note = uni0288;
rightKerningGroup = uni0256;
unicode = 0288;
},
{
glyphname = uni0236;
layers = (
{
layerId = "17EDFB39-10F1-469C-9F8C-2D18680A40AF";
paths = (
{
closed = 1;
nodes = (
"390 1536 LINE",
"180 1536 LINE",
"180 1216 LINE",
"390 1216 LINE",
"390 537 LINE",
"227 419 OFFCURVE",
"62 246 QCURVE",
"250 10 LINE",
"352 119 OFFCURVE",
"452 206 QCURVE",
"522 79 OFFCURVE",
"779 -32 OFFCURVE",
"922 -32 QCURVE SMOOTH",
"1101 -32 OFFCURVE",
"1313 96 OFFCURVE",
"1406 289 OFFCURVE",
"1406 387 QCURVE SMOOTH",
"1406 551 OFFCURVE",
"1180 770 OFFCURVE",
"986 770 QCURVE SMOOTH",
"904 770 OFFCURVE",
"816 748 QCURVE",
"816 1216 LINE",
"1106 1216 LINE",
"1106 1536 LINE",
"816 1536 LINE",
"816 1904 LINE",
"390 1904 LINE"
);
},
{
closed = 1;
nodes = (
"890 477 OFFCURVE",
"944 477 QCURVE SMOOTH",
"1006 477 OFFCURVE",
"1064 416 OFFCURVE",
"1064 373 QCURVE SMOOTH",
"1064 319 OFFCURVE",
"998 258 OFFCURVE",
"951 258 QCURVE SMOOTH",
"893 258 OFFCURVE",
"816 333 OFFCURVE",
"816 388 QCURVE SMOOTH",
"816 447 LINE"
);
}
);
width = 1491;
}
);
leftKerningGroup = uni02AE;
note = uni0236;
rightKerningGroup = uni04A2;
unicode = 0236;
},
{
glyphname = uni02A8;
layers = (
{
layerId = "17EDFB39-10F1-469C-9F8C-2D18680A40AF";
paths = (
{
closed = 1;
nodes = (
"698 1536 LINE",
"698 1904 LINE",
"272 1904 LINE",
"272 1536 LINE",
"62 1536 LINE",
"62 1216 LINE",
"272 1216 LINE",
"272 434 LINE SMOOTH",
"271 211 OFFCURVE",
"515 -18 OFFCURVE",
"747 -18 QCURVE SMOOTH",
"889 -18 OFFCURVE",
"1122 62 OFFCURVE",
"1219 123 QCURVE",
"1312 50 OFFCURVE",
"1556 -30 OFFCURVE",
"1704 -30 QCURVE SMOOTH",
"1908 -30 OFFCURVE",
"2206 110 OFFCURVE",
"2369 342 OFFCURVE",
"2368 478 QCURVE SMOOTH",
"2367 637 OFFCURVE",
"2142 829 OFFCURVE",
"1932 829 QCURVE SMOOTH",
"1659 829 OFFCURVE",
"1384 649 QCURVE",
"1376 704 OFFCURVE",
"1376 768 QCURVE SMOOTH",
"1376 986 OFFCURVE",
"1556 1224 OFFCURVE",
"1704 1224 QCURVE SMOOTH",
"1823 1224 OFFCURVE",
"1965 1082 OFFCURVE",
"1983 968 QCURVE",
"2385 968 LINE",
"2376 1146 OFFCURVE",
"2200 1410 OFFCURVE",
"1898 1556 OFFCURVE",
"1698 1556 QCURVE SMOOTH",
"1465 1556 OFFCURVE",
"1126 1355 OFFCURVE",
"943 998 OFFCURVE",
"943 762 QCURVE SMOOTH",
"943 541 OFFCURVE",
"1025 367 QCURVE",
"917 297 OFFCURVE",
"829 297 QCURVE SMOOTH",
"771 297 OFFCURVE",
"698 363 OFFCURVE",
"698 441 QCURVE SMOOTH",
"698 1216 LINE",
"987 1216 LINE",
"987 1536 LINE"
);
},
{
closed = 1;
nodes = (
"1615 438 OFFCURVE",
"1788 511 OFFCURVE",
"1866 511 QCURVE SMOOTH",
"1978 511 OFFCURVE",
"1978 434 QCURVE SMOOTH",
"1978 373 OFFCURVE",
"1862 307 OFFCURVE",
"1766 307 QCURVE SMOOTH",
"1625 307 OFFCURVE",
"1532 375 QCURVE"
);
}
);
width = 2493;
}
);
leftKerningGroup = uni02AE;
note = uni02A8;
rightKerningGroup = uni0250;
unicode = 02A8;
},
{
glyphname = uni0167;
layers = (
{
layerId = "17EDFB39-10F1-469C-9F8C-2D18680A40AF";
paths = (
{
closed = 1;
nodes = (
"272 770 LINE",
"272 416 LINE SMOOTH",
"271 190 OFFCURVE",
"552 -31 OFFCURVE",
"784 -21 QCURVE SMOOTH",
"867 -18 OFFCURVE",
"983 9 OFFCURVE",
"1015 19 QCURVE",
"948 336 LINE",
"932 333 OFFCURVE",
"872 322 OFFCURVE",
"842 322 QCURVE SMOOTH",
"778 322 OFFCURVE",
"698 384 OFFCURVE",
"698 472 QCURVE SMOOTH",
"698 770 LINE",
"987 770 LINE",
"987 974 LINE",
"698 974 LINE",
"698 1216 LINE",
"987 1216 LINE",
"987 1536 LINE",
"698 1536 LINE",
"698 1904 LINE",
"272 1904 LINE",
"272 1536 LINE",
"62 1536 LINE",
"62 1216 LINE",
"272 1216 LINE",
"272 974 LINE",
"62 974 LINE",
"62 770 LINE"
);
}
);
width = 1094;
}
);
leftKerningGroup = uni02AE;
note = uni0167;
rightKerningGroup = uni04A2;
unicode = 0167;
},
{
glyphname = uni0075;
layers = (
{
layerId = "17EDFB39-10F1-469C-9F8C-2D18680A40AF";
paths = (
{
closed = 1;
nodes = (
"1156 500 OFFCURVE",
"977 340 OFFCURVE",
"862 340 QCURVE SMOOTH",
"741 340 OFFCURVE",
"597 498 OFFCURVE",
"596 634 QCURVE SMOOTH",
"596 1536 LINE",
"170 1536 LINE",
"170 558 LINE SMOOTH",
"171 289 OFFCURVE",
"458 -20 OFFCURVE",
"690 -20 QCURVE SMOOTH",
"863 -20 OFFCURVE",
"1104 144 OFFCURVE",
"1156 279 QCURVE",
"1172 279 LINE",
"1172 0 LINE",
"1581 0 LINE",
"1581 1536 LINE",
"1155 1536 LINE",
"1155 654 LINE SMOOTH"
);
}
);
width = 1751;
}
);
leftKerningGroup = uni0265;
note = uni0075;
rightKerningGroup = uni01F6;
unicode = 0075;
},
{
glyphname = uni01B0;
layers = (
{
layerId = "17EDFB39-10F1-469C-9F8C-2D18680A40AF";
paths = (
{
closed = 1;
nodes = (
"1793 1475 OFFCURVE",
"1726 1312 OFFCURVE",
"1591 1291 QCURVE",
"1591 1536 LINE",
"1165 1536 LINE",
"1165 654 LINE SMOOTH",
"1166 500 OFFCURVE",
"987 340 OFFCURVE",
"872 340 QCURVE SMOOTH",
"751 340 OFFCURVE",
"607 498 OFFCURVE",
"606 634 QCURVE SMOOTH",
"606 1536 LINE",
"180 1536 LINE",
"180 558 LINE SMOOTH",
"181 289 OFFCURVE",
"468 -20 OFFCURVE",
"700 -20 QCURVE SMOOTH",
"873 -20 OFFCURVE",
"1114 144 OFFCURVE",
"1166 279 QCURVE",
"1182 279 LINE",
"1182 0 LINE",
"1591 0 LINE",
"1591 1098 LINE",
"1844 1120 OFFCURVE",
"2040 1384 OFFCURVE",
"2041 1621 QCURVE",
"1794 1621 LINE"
);
}
);
width = 1997;
}
);
leftKerningGroup = uni0265;
note = uni01B0;
rightKerningGroup = uni01F6;
unicode = 01B0;
},
{
glyphname = uni00B5;
layers = (
{
layerId = "17EDFB39-10F1-469C-9F8C-2D18680A40AF";
paths = (
{
closed = 1;
nodes = (
"579 -557 LINE",
"579 218 LINE",
"591 218 LINE",
"638 118 OFFCURVE",
"823 9 OFFCURVE",
"938 9 QCURVE SMOOTH",
"1054 9 OFFCURVE",
"1240 118 OFFCURVE",
"1286 218 QCURVE",
"1298 218 LINE",
"1298 0 LINE",
"1706 0 LINE",
"1706 1536 LINE",
"1281 1536 LINE",
"1281 654 LINE SMOOTH",
"1281 515 OFFCURVE",
"1092 340 OFFCURVE",
"938 340 QCURVE SMOOTH",
"786 340 OFFCURVE",
"597 515 OFFCURVE",
"596 654 QCURVE SMOOTH",
"596 1536 LINE",
"170 1536 LINE",
"170 -557 LINE"
);
}
);
width = 1877;
}
);
leftKerningGroup = uni0265;
note = uni00B5;
rightKerningGroup = uni01F6;
unicode = 00B5;
},
{
glyphname = uni0289;
layers = (
{
layerId = "17EDFB39-10F1-469C-9F8C-2D18680A40AF";
paths = (
{
closed = 1;
nodes = (
"1651 1006 LINE",
"1651 1536 LINE",
"1225 1536 LINE",
"1225 1006 LINE",
"666 1006 LINE",
"666 1536 LINE",
"240 1536 LINE",
"240 1006 LINE",
"0 1006 LINE",
"0 760 LINE",
"240 760 LINE",
"240 558 LINE SMOOTH",
"241 289 OFFCURVE",
"528 -20 OFFCURVE",
"760 -20 QCURVE SMOOTH",
"933 -20 OFFCURVE",
"1174 144 OFFCURVE",
"1226 279 QCURVE",
"1242 279 LINE",
"1242 0 LINE",
"1651 0 LINE",
"1651 760 LINE",
"1890 760 LINE",
"1890 1006 LINE"
);
},
{
closed = 1;
nodes = (
"1226 500 OFFCURVE",
"1047 340 OFFCURVE",
"932 340 QCURVE SMOOTH",
"811 340 OFFCURVE",
"667 498 OFFCURVE",
"666 634 QCURVE SMOOTH",
"666 760 LINE",
"1225 760 LINE",
"1225 654 LINE SMOOTH"
);
}
);
width = 1890;
}
);
leftKerningGroup = uni0265;
note = uni0289;
rightKerningGroup = uni01F6;
unicode = 0289;
},
{
glyphname = uni0076;
layers = (
{
layerId = "17EDFB39-10F1-469C-9F8C-2D18680A40AF";
paths = (
{
closed = 1;
nodes = (
"1151 1536 LINE",
"833 437 LINE",
"817 437 LINE",
"498 1536 LINE",
"48 1536 LINE",
"585 0 LINE",
"1065 0 LINE",
"1602 1536 LINE"
);
}
);
width = 1650;
}
);
leftKerningGroup = uni0076;
note = uni0076;
rightKerningGroup = uni0076;
unicode = 0076;
},
{
glyphname = uni0077;
layers = (
{
layerId = "17EDFB39-10F1-469C-9F8C-2D18680A40AF";
paths = (
{
closed = 1;
nodes = (
"923 0 LINE",
"1187 966 LINE",
"1206 966 LINE",
"1470 0 LINE",
"1921 0 LINE",
"2338 1536 LINE",
"1908 1536 LINE",
"1674 510 LINE",
"1661 510 LINE",
"1409 1536 LINE",
"986 1536 LINE",
"738 504 LINE",
"724 504 LINE",
"486 1536 LINE",
"55 1536 LINE",
"473 0 LINE"
);
}
);
width = 2394;
}
);
leftKerningGroup = uni0077;
note = uni0077;
rightKerningGroup = uni0077;
unicode = 0077;
},
{
glyphname = uni0078;
layers = (
{
layerId = "17EDFB39-10F1-469C-9F8C-2D18680A40AF";
paths = (
{
closed = 1;
nodes = (
"86 1536 LINE",
"526 768 LINE",
"70 0 LINE",
"510 0 LINE",
"808 531 LINE",
"1111 0 LINE",
"1546 0 LINE",
"1089 768 LINE",
"1534 1536 LINE",
"1097 1536 LINE",
"808 999 LINE",
"526 1536 LINE"
);
}
);
width = 1616;
}
);
leftKerningGroup = uni029E;
note = uni0078;
rightKerningGroup = uni0078;
unicode = 0078;
},
{
glyphname = uni03C7;
layers = (
{
layerId = "17EDFB39-10F1-469C-9F8C-2D18680A40AF";
paths = (
{
closed = 1;
nodes = (
"528 -568 LINE",
"885 95 LINE",
"1071 -263 LINE SMOOTH",
"1136 -385 OFFCURVE",
"1272 -517 OFFCURVE",
"1461 -568 OFFCURVE",
"1605 -568 QCURVE SMOOTH",
"1697 -568 LINE",
"1697 -240 LINE",
"1605 -240 LINE SMOOTH",
"1548 -240 OFFCURVE",
"1488 -225 OFFCURVE",
"1445 -169 OFFCURVE",
"1412 -107 QCURVE SMOOTH",
"1100 480 LINE",
"1677 1536 LINE",
"1250 1536 LINE",
"888 871 LINE",
"696 1232 LINE SMOOTH",
"630 1356 OFFCURVE",
"493 1490 OFFCURVE",
"304 1542 OFFCURVE",
"161 1542 QCURVE SMOOTH",
"70 1542 LINE",
"70 1214 LINE",
"161 1214 LINE SMOOTH",
"219 1214 OFFCURVE",
"277 1200 OFFCURVE",
"321 1141 OFFCURVE",
"356 1075 QCURVE SMOOTH",
"674 488 LINE",
"101 -568 LINE"
);
}
);
width = 1735;
}
);
leftKerningGroup = uni0076;
note = uni03C7;
rightKerningGroup = uni0256;
unicode = 03C7;
},
{
glyphname = uni0079;
layers = (
{
layerId = "17EDFB39-10F1-469C-9F8C-2D18680A40AF";
paths = (
{
closed = 1;
nodes = (
"671 -573 OFFCURVE",
"941 -350 OFFCURVE",
"1005 -166 QCURVE SMOOTH",
"1602 1534 LINE",
"1151 1536 LINE",
"830 408 LINE",
"814 408 LINE",
"496 1536 LINE",
"48 1536 LINE",
"599 -44 LINE",
"574 -109 LINE SMOOTH",
"529 -213 OFFCURVE",
"374 -246 OFFCURVE",
"261 -211 QCURVE",
"165 -530 LINE",
"211 -549 OFFCURVE",
"352 -573 OFFCURVE",
"433 -573 QCURVE SMOOTH"
);
}
);
width = 1650;
}
);
leftKerningGroup = uni0076;
note = uni0079;
rightKerningGroup = uni0076;
unicode = 0079;
},
{
glyphname = uni01B4;
layers = (
{
layerId = "17EDFB39-10F1-469C-9F8C-2D18680A40AF";
paths = (
{
closed = 1;
nodes = (
"1477 1336 LINE SMOOTH",
"1510 1426 OFFCURVE",
"1584 1525 OFFCURVE",
"1658 1544 QCURVE SMOOTH",
"1684 1549 OFFCURVE",
"1743 1543 OFFCURVE",
"1780 1535 QCURVE",
"1813 1865 LINE",
"1810 1865 LINE SMOOTH",
"1683 1882 OFFCURVE",
"1522 1891 OFFCURVE",
"1442 1868 QCURVE",
"1306 1840 OFFCURVE",
"1134 1633 OFFCURVE",
"1090 1502 QCURVE SMOOTH",
"1053 1386 LINE",
"815 658 LINE",
"513 1536 LINE",
"70 1536 LINE",
"630 41 LINE",
"604 -42 LINE SMOOTH",
"575 -139 OFFCURVE",
"441 -248 OFFCURVE",
"301 -248 QCURVE SMOOTH",
"266 -248 OFFCURVE",
"228 -242 QCURVE",
"228 -573 LINE",
"278 -589 OFFCURVE",
"362 -600 OFFCURVE",
"420 -600 QCURVE SMOOTH",
"578 -600 OFFCURVE",
"801 -480 OFFCURVE",
"938 -304 OFFCURVE",
"965 -221 QCURVE SMOOTH",
"1457 1278 LINE"
);
}
);
width = 1757;
}
);
leftKerningGroup = uni0076;
note = uni01B4;
rightKerningGroup = uni0066;
unicode = 01B4;
},
{
glyphname = uni024F;
layers = (
{
layerId = "17EDFB39-10F1-469C-9F8C-2D18680A40AF";
paths = (
{
closed = 1;
nodes = (
"1441 1036 LINE",
"1616 1534 LINE",
"1165 1536 LINE",
"1023 1036 LINE",
"651 1036 LINE",
"510 1536 LINE",
"62 1536 LINE",
"236 1036 LINE",
"53 1036 LINE",
"53 821 LINE",
"311 821 LINE",
"613 -44 LINE",
"588 -109 LINE SMOOTH",
"543 -213 OFFCURVE",
"388 -246 OFFCURVE",
"275 -211 QCURVE",
"179 -530 LINE",
"225 -549 OFFCURVE",
"366 -573 OFFCURVE",
"447 -573 QCURVE SMOOTH",
"685 -573 OFFCURVE",
"955 -350 OFFCURVE",
"1019 -166 QCURVE SMOOTH",
"1366 821 LINE",
"1610 821 LINE",
"1610 1036 LINE"
);
},
{
closed = 1;
nodes = (
"844 408 LINE",
"828 408 LINE",
"712 821 LINE",
"962 821 LINE"
);
}
);
width = 1666;
}
);
leftKerningGroup = uni0076;
note = uni024F;
rightKerningGroup = uni0076;
unicode = 024F;
},
{
glyphname = uni007A;
layers = (
{
layerId = "17EDFB39-10F1-469C-9F8C-2D18680A40AF";
paths = (
{
closed = 1;
nodes = (
"1453 0 LINE",
"1453 340 LINE",
"721 340 LINE",
"721 351 LINE",
"1427 1259 LINE",
"1427 1536 LINE",
"188 1536 LINE",
"188 1196 LINE",
"914 1196 LINE",
"914 1185 LINE",
"162 254 LINE",
"162 0 LINE"
);
}
);
width = 1610;
}
);
leftKerningGroup = uni007A;
note = uni007A;
rightKerningGroup = uni01F2;
unicode = 007A;
},
{
glyphname = uni0225;
layers = (
{
layerId = "17EDFB39-10F1-469C-9F8C-2D18680A40AF";
paths = (
{
closed = 1;
nodes = (
"1505 -373 LINE",
"1505 -191 LINE SMOOTH",
"1505 54 OFFCURVE",
"1214 338 OFFCURVE",
"943 338 QCURVE SMOOTH",
"693 338 LINE",
"1426 1288 LINE",
"1426 1536 LINE",
"184 1536 LINE",
"184 1198 LINE",
"898 1198 LINE",
"164 250 LINE",
"164 0 LINE",
"943 0 LINE SMOOTH",
"1032 0 OFFCURVE",
"1121 -83 OFFCURVE",
"1151 -207 OFFCURVE",
"1151 -270 QCURVE SMOOTH",
"1151 -373 LINE"
);
}
);
width = 1599;
}
);
leftKerningGroup = uni007A;
note = uni0225;
rightKerningGroup = uni01F2;
unicode = 0225;
},
{
glyphname = uni0240;
layers = (
{
layerId = "17EDFB39-10F1-469C-9F8C-2D18680A40AF";
paths = (
{
closed = 1;
nodes = (
"1426 1288 LINE",
"1426 1536 LINE",
"184 1536 LINE",
"184 1198 LINE",
"898 1198 LINE",
"164 250 LINE",
"164 0 LINE",
"619 0 LINE SMOOTH",
"738 0 OFFCURVE",
"897 -116 OFFCURVE",
"1022 -288 OFFCURVE",
"1153 -460 OFFCURVE",
"1328 -576 OFFCURVE",
"1460 -576 QCURVE SMOOTH",
"1592 -576 OFFCURVE",
"1791 -461 OFFCURVE",
"1860 -397 QCURVE",
"1720 -119 LINE",
"1685 -148 OFFCURVE",
"1563 -224 OFFCURVE",
"1498 -224 QCURVE SMOOTH",
"1422 -224 OFFCURVE",
"1310 -110 OFFCURVE",
"1203 57 OFFCURVE",
"1067 224 OFFCURVE",
"870 338 OFFCURVE",
"722 338 QCURVE SMOOTH",
"693 338 LINE"
);
}
);
width = 1785;
}
);
leftKerningGroup = uni007A;
note = uni0240;
rightKerningGroup = uni0256;
unicode = 0240;
},
{
glyphname = uni0290;
layers = (
{
layerId = "17EDFB39-10F1-469C-9F8C-2D18680A40AF";
paths = (
{
closed = 1;
nodes = (
"1154 -122 LINE SMOOTH",
"1154 -351 OFFCURVE",
"1407 -600 OFFCURVE",
"1623 -600 QCURVE SMOOTH",
"1669 -600 OFFCURVE",
"1753 -592 OFFCURVE",
"1798 -582 QCURVE",
"1798 -298 LINE",
"1749 -306 OFFCURVE",
"1690 -306 QCURVE SMOOTH",
"1635 -306 OFFCURVE",
"1525 -276 OFFCURVE",
"1453 -196 OFFCURVE",
"1453 -122 QCURVE SMOOTH",
"1453 340 LINE",
"721 340 LINE",
"721 351 LINE",
"1427 1259 LINE",
"1427 1536 LINE",
"188 1536 LINE",
"188 1196 LINE",
"914 1196 LINE",
"914 1185 LINE",
"162 254 LINE",
"162 0 LINE",
"1154 0 LINE"
);
}
);
width = 1798;
}
);
leftKerningGroup = uni007A;
note = uni0290;
rightKerningGroup = uni0256;
unicode = 0290;
},
{
glyphname = uni0291;
layers = (
{
layerId = "17EDFB39-10F1-469C-9F8C-2D18680A40AF";
paths = (
{
closed = 1;
nodes = (
"1576 0 OFFCURVE",
"1826 149 OFFCURVE",
"1945 371 OFFCURVE",
"1946 481 QCURVE SMOOTH",
"1945 593 OFFCURVE",
"1837 761 OFFCURVE",
"1662 855 OFFCURVE",
"1558 855 QCURVE SMOOTH",
"1391 855 OFFCURVE",
"1095 599 OFFCURVE",
"902 338 QCURVE",
"698 338 LINE",
"1430 1288 LINE",
"1430 1536 LINE",
"189 1536 LINE",
"189 1198 LINE",
"903 1198 LINE",
"169 250 LINE",
"169 0 LINE",
"662 0 LINE",
"530 -188 LINE",
"796 -350 LINE",
"1052 0 LINE",
"1378 0 LINE SMOOTH"
);
},
{
closed = 1;
nodes = (
"1372 439 OFFCURVE",
"1467 526 OFFCURVE",
"1518 526 QCURVE SMOOTH",
"1552 526 OFFCURVE",
"1605 490 OFFCURVE",
"1606 461 QCURVE SMOOTH",
"1605 409 OFFCURVE",
"1511 338 OFFCURVE",
"1402 338 QCURVE SMOOTH",
"1296 338 LINE"
);
}
);
width = 2001;
}
);
leftKerningGroup = uni007A;
note = uni0291;
rightKerningGroup = uni01F2;
unicode = 0291;
},
{
glyphname = uni00DE;
layers = (
{
layerId = "17EDFB39-10F1-469C-9F8C-2D18680A40AF";
paths = (
{
closed = 1;
nodes = (
"174 0 LINE",
"607 0 LINE",
"607 422 LINE",
"907 422 LINE SMOOTH",
"1154 422 OFFCURVE",
"1495 584 OFFCURVE",
"1672 866 OFFCURVE",
"1672 1046 QCURVE SMOOTH",
"1672 1226 OFFCURVE",
"1495 1509 OFFCURVE",
"1154 1672 OFFCURVE",
"907 1672 QCURVE SMOOTH",
"607 1672 LINE",
"607 2048 LINE",
"174 2048 LINE"
);
},
{
closed = 1;
nodes = (
"607 1337 LINE",
"907 1337 LINE SMOOTH",
"1092 1337 OFFCURVE",
"1258 1162 OFFCURVE",
"1258 1042 QCURVE SMOOTH",
"1258 924 OFFCURVE",
"1092 754 OFFCURVE",
"907 754 QCURVE SMOOTH",
"607 754 LINE"
);
}
);
width = 1889;
}
);
leftKerningGroup = uni0042;
note = uni00DE;
unicode = 00DE;
},
{
glyphname = uni0393;
layers = (
{
layerId = "17EDFB39-10F1-469C-9F8C-2D18680A40AF";
paths = (
{
closed = 1;
nodes = (
"178 2048 LINE",
"178 0 LINE",
"611 0 LINE",
"611 1691 LINE",
"1537 1691 LINE",
"1537 2048 LINE"
);
}
);
width = 1637;
}
);
leftKerningGroup = uni0042;
note = uni0393;
rightKerningGroup = uni04A4;
unicode = 0393;
},
{
glyphname = uni0394;
layers = (
{
layerId = "17EDFB39-10F1-469C-9F8C-2D18680A40AF";
paths = (
{
closed = 1;
nodes = (
"2038 0 LINE",
"1332 2048 LINE",
"774 2048 LINE",
"67 0 LINE"
);
},
{
closed = 1;
nodes = (
"1045 1580 LINE",
"1061 1580 LINE",
"1461 357 LINE",
"645 357 LINE"
);
}
);
width = 2106;
}
);
leftKerningGroup = uni0394;
note = uni0394;
rightKerningGroup = uni0394;
unicode = "0394,2206";
},
{
glyphname = uni0398;
layers = (
{
layerId = "17EDFB39-10F1-469C-9F8C-2D18680A40AF";
paths = (
{
closed = 1;
nodes = (
"1998 1357 OFFCURVE",
"1754 1828 OFFCURVE",
"1335 2076 OFFCURVE",
"1072 2076 QCURVE SMOOTH",
"808 2076 OFFCURVE",
"386 1828 OFFCURVE",
"142 1357 OFFCURVE",
"142 1022 QCURVE SMOOTH",
"142 688 OFFCURVE",
"386 219 OFFCURVE",
"808 -28 OFFCURVE",
"1072 -28 QCURVE SMOOTH",
"1335 -28 OFFCURVE",
"1754 218 OFFCURVE",
"1998 687 OFFCURVE",
"1998 1022 QCURVE SMOOTH"
);
},
{
closed = 1;
nodes = (
"1563 786 OFFCURVE",
"1436 493 OFFCURVE",
"1215 358 OFFCURVE",
"1072 358 QCURVE SMOOTH",
"930 358 OFFCURVE",
"705 493 OFFCURVE",
"576 786 OFFCURVE",
"576 1022 QCURVE SMOOTH",
"575 1372 OFFCURVE",
"858 1690 OFFCURVE",
"1072 1690 QCURVE SMOOTH",
"1286 1690 OFFCURVE",
"1563 1374 OFFCURVE",
"1563 1022 QCURVE SMOOTH"
);
},
{
closed = 1;
nodes = (
"808 1194 LINE",
"808 858 LINE",
"1335 858 LINE",
"1335 1194 LINE"
);
}
);
width = 2139;
}
);
leftKerningGroup = uni0398;
note = uni0398;
rightKerningGroup = uni0398;
unicode = 0398;
},
{
glyphname = uni039E;
layers = (
{
layerId = "17EDFB39-10F1-469C-9F8C-2D18680A40AF";
paths = (
{
closed = 1;
nodes = (
"1622 0 LINE",
"1622 347 LINE",
"222 347 LINE",
"222 0 LINE"
);
},
{
closed = 1;
nodes = (
"1558 1660 LINE",
"1558 2012 LINE",
"260 2012 LINE",
"260 1660 LINE"
);
},
{
closed = 1;
nodes = (
"1458 841 LINE",
"1458 1176 LINE",
"393 1176 LINE",
"393 841 LINE"
);
}
);
width = 1844;
}
);
note = uni039E;
unicode = 039E;
},
{
glyphname = uni03A0;
layers = (
{
layerId = "17EDFB39-10F1-469C-9F8C-2D18680A40AF";
paths = (
{
closed = 1;
nodes = (
"235 2048 LINE",
"235 0 LINE",
"663 0 LINE",
"663 1696 LINE",
"1491 1696 LINE",
"1491 0 LINE",
"1919 0 LINE",
"1919 2048 LINE"
);
}
);
width = 2154;
}
);
leftKerningGroup = uni0042;
note = uni03A0;
unicode = 03A0;
},
{
glyphname = uni03A3;
layers = (
{
layerId = "17EDFB39-10F1-469C-9F8C-2D18680A40AF";
paths = (
{
closed = 1;
nodes = (
"819 357 LINE",
"1294 1010 LINE",
"1294 1031 LINE",
"821 1681 LINE",
"1648 1681 LINE",
"1648 2040 LINE",
"215 2040 LINE",
"215 1828 LINE",
"834 1020 LINE",
"215 210 LINE",
"215 0 LINE",
"1678 0 LINE",
"1678 357 LINE"
);
}
);
width = 1894;
}
);
note = uni03A3;
unicode = 03A3;
},
{
glyphname = uni03A6;
layers = (
{
layerId = "17EDFB39-10F1-469C-9F8C-2D18680A40AF";
paths = (
{
closed = 1;
nodes = (
"993 2004 LINE",
"993 1773 LINE",
"749 1765 OFFCURVE",
"378 1567 OFFCURVE",
"168 1219 OFFCURVE",
"168 985 QCURVE SMOOTH",
"168 759 OFFCURVE",
"379 424 OFFCURVE",
"750 235 OFFCURVE",
"993 227 QCURVE",
"993 0 LINE",
"1408 0 LINE",
"1408 227 LINE",
"1649 236 OFFCURVE",
"2016 428 OFFCURVE",
"2222 764 OFFCURVE",
"2222 989 QCURVE SMOOTH",
"2222 1222 OFFCURVE",
"2016 1568 OFFCURVE",
"1649 1764 OFFCURVE",
"1408 1773 QCURVE",
"1408 2004 LINE"
);
},
{
closed = 1;
nodes = (
"993 603 LINE",
"815 613 OFFCURVE",
"581 804 OFFCURVE",
"581 985 QCURVE SMOOTH",
"581 1182 OFFCURVE",
"816 1388 OFFCURVE",
"993 1399 QCURVE"
);
},
{
closed = 1;
nodes = (
"1585 1388 OFFCURVE",
"1815 1185 OFFCURVE",
"1814 989 QCURVE SMOOTH",
"1815 809 OFFCURVE",
"1586 614 OFFCURVE",
"1408 603 QCURVE",
"1408 1399 LINE"
);
}
);
width = 2390;
}
);
leftKerningGroup = uni0398;
note = uni03A6;
rightKerningGroup = uni0398;
unicode = 03A6;
},
{
glyphname = uni03A8;
layers = (
{
layerId = "17EDFB39-10F1-469C-9F8C-2D18680A40AF";
paths = (
{
closed = 1;
nodes = (
"1725 1379 LINE SMOOTH",
"1725 1144 OFFCURVE",
"1547 918 OFFCURVE",
"1388 894 QCURVE",
"1388 2048 LINE",
"965 2048 LINE",
"965 895 LINE",
"599 955 OFFCURVE",
"599 1379 QCURVE SMOOTH",
"599 2048 LINE",
"178 2048 LINE",
"178 1379 LINE SMOOTH",
"178 1126 OFFCURVE",
"373 767 OFFCURVE",
"727 564 OFFCURVE",
"965 546 QCURVE",
"965 0 LINE",
"1388 0 LINE",
"1388 548 LINE",
"1733 580 OFFCURVE",
"2150 1006 OFFCURVE",
"2150 1379 QCURVE SMOOTH",
"2150 2048 LINE",
"1725 2048 LINE"
);
}
);
width = 2329;
}
);
note = uni03A8;
unicode = 03A8;
},
{
glyphname = uni03A9;
layers = (
{
layerId = "17EDFB39-10F1-469C-9F8C-2D18680A40AF";
paths = (
{
closed = 1;
nodes = (
"939 0 LINE",
"939 448 LINE",
"777 514 OFFCURVE",
"564 855 OFFCURVE",
"564 1078 QCURVE SMOOTH",
"564 1254 OFFCURVE",
"700 1530 OFFCURVE",
"941 1690 OFFCURVE",
"1096 1690 QCURVE SMOOTH",
"1253 1690 OFFCURVE",
"1493 1530 OFFCURVE",
"1628 1254 OFFCURVE",
"1628 1078 QCURVE SMOOTH",
"1628 855 OFFCURVE",
"1415 514 OFFCURVE",
"1253 448 QCURVE",
"1253 0 LINE",
"2065 0 LINE",
"2065 357 LINE",
"1682 357 LINE",
"1682 373 LINE",
"1859 486 OFFCURVE",
"2065 855 OFFCURVE",
"2065 1111 QCURVE SMOOTH",
"2065 1394 OFFCURVE",
"1816 1829 OFFCURVE",
"1379 2076 OFFCURVE",
"1096 2076 QCURVE SMOOTH",
"813 2076 OFFCURVE",
"376 1829 OFFCURVE",
"127 1394 OFFCURVE",
"127 1111 QCURVE SMOOTH",
"127 855 OFFCURVE",
"333 486 OFFCURVE",
"510 373 QCURVE",
"510 357 LINE",
"127 357 LINE",
"127 0 LINE"
);
}
);
width = 2192;
}
);
note = uni03A9;
unicode = "03A9,2126";
},
{
glyphname = uni01B1;
layers = (
{
layerId = "17EDFB39-10F1-469C-9F8C-2D18680A40AF";
paths = (
{
closed = 1;
nodes = (
"127 655 OFFCURVE",
"376 219 OFFCURVE",
"813 -28 OFFCURVE",
"1096 -28 QCURVE SMOOTH",
"1379 -28 OFFCURVE",
"1816 219 OFFCURVE",
"2065 655 OFFCURVE",
"2065 937 QCURVE SMOOTH",
"2065 1194 OFFCURVE",
"1859 1563 OFFCURVE",
"1682 1675 QCURVE",
"1682 1691 LINE",
"2065 1691 LINE",
"2065 2048 LINE",
"1253 2048 LINE",
"1253 1600 LINE",
"1415 1534 OFFCURVE",
"1628 1194 OFFCURVE",
"1628 970 QCURVE SMOOTH",
"1628 795 OFFCURVE",
"1492 518 OFFCURVE",
"1252 358 OFFCURVE",
"1096 358 QCURVE SMOOTH",
"941 358 OFFCURVE",
"700 518 OFFCURVE",
"564 795 OFFCURVE",
"564 970 QCURVE SMOOTH",
"564 1194 OFFCURVE",
"777 1534 OFFCURVE",
"939 1600 QCURVE",
"939 2048 LINE",
"127 2048 LINE",
"127 1691 LINE",
"510 1691 LINE",
"510 1675 LINE",
"333 1563 OFFCURVE",
"127 1194 OFFCURVE",
"127 937 QCURVE SMOOTH"
);
}
);
width = 2192;
}
);
note = uni01B1;
unicode = 01B1;
},
{
glyphname = uni03D2;
layers = (
{
layerId = "17EDFB39-10F1-469C-9F8C-2D18680A40AF";
paths = (
{
closed = 1;
nodes = (
"1202 0 LINE",
"1202 638 LINE",
"1620 1586 LINE SMOOTH",
"1639 1628 OFFCURVE",
"1708 1681 OFFCURVE",
"1760 1681 QCURVE SMOOTH",
"1780 1681 OFFCURVE",
"1838 1677 OFFCURVE",
"1845 1676 QCURVE",
"1897 2008 LINE",
"1851 2022 OFFCURVE",
"1740 2044 OFFCURVE",
"1687 2044 QCURVE SMOOTH",
"1531 2044 OFFCURVE",
"1323 1869 OFFCURVE",
"1253 1689 QCURVE SMOOTH",
"997 1042 LINE",
"740 1703 LINE SMOOTH",
"664 1899 OFFCURVE",
"446 2044 OFFCURVE",
"302 2044 QCURVE SMOOTH",
"241 2044 OFFCURVE",
"139 2021 OFFCURVE",
"94 2006 QCURVE",
"144 1676 LINE",
"149 1677 OFFCURVE",
"209 1681 OFFCURVE",
"229 1681 QCURVE SMOOTH",
"326 1681 OFFCURVE",
"368 1586 QCURVE SMOOTH",
"782 634 LINE",
"782 0 LINE"
);
}
);
width = 1991;
}
);
note = uni03D2;
unicode = 03D2;
},
{
glyphname = uni0194;
layers = (
{
layerId = "17EDFB39-10F1-469C-9F8C-2D18680A40AF";
paths = (
{
closed = 1;
nodes = (
"839 507 LINE",
"762 340 OFFCURVE",
"624 56 OFFCURVE",
"538 -155 OFFCURVE",
"538 -212 QCURVE SMOOTH",
"538 -349 OFFCURVE",
"680 -521 OFFCURVE",
"913 -600 OFFCURVE",
"1049 -600 QCURVE SMOOTH",
"1186 -600 OFFCURVE",
"1412 -521 OFFCURVE",
"1548 -349 OFFCURVE",
"1548 -212 QCURVE SMOOTH",
"1548 -156 OFFCURVE",
"1467 56 OFFCURVE",
"1336 339 OFFCURVE",
"1262 505 QCURVE",
"1981 2012 LINE",
"1487 2012 LINE",
"1049 991 LINE",
"608 2012 LINE",
"117 2012 LINE"
);
},
{
closed = 1;
nodes = (
"1092 -31 OFFCURVE",
"1130 -150 OFFCURVE",
"1130 -198 QCURVE SMOOTH",
"1130 -235 OFFCURVE",
"1098 -299 OFFCURVE",
"1049 -299 QCURVE SMOOTH",
"1002 -299 OFFCURVE",
"967 -240 OFFCURVE",
"967 -198 QCURVE SMOOTH",
"967 -148 OFFCURVE",
"1010 -28 OFFCURVE",
"1051 60 QCURVE"
);
}
);
width = 2098;
}
);
leftKerningGroup = uni0056;
note = uni0194;
rightKerningGroup = uni0056;
unicode = 0194;
},
{
glyphname = uni0411;
layers = (
{
layerId = "17EDFB39-10F1-469C-9F8C-2D18680A40AF";
paths = (
{
closed = 1;
nodes = (
"944 0 LINE SMOOTH",
"1187 0 OFFCURVE",
"1541 166 OFFCURVE",
"1732 461 OFFCURVE",
"1732 654 QCURVE SMOOTH",
"1732 848 OFFCURVE",
"1541 1134 OFFCURVE",
"1187 1291 OFFCURVE",
"944 1291 QCURVE SMOOTH",
"611 1291 LINE",
"611 1691 LINE",
"1537 1691 LINE",
"1537 2048 LINE",
"178 2048 LINE",
"178 0 LINE"
);
},
{
closed = 1;
nodes = (
"611 949 LINE",
"944 949 LINE SMOOTH",
"1118 949 OFFCURVE",
"1303 780 OFFCURVE",
"1303 658 QCURVE SMOOTH",
"1303 532 OFFCURVE",
"1118 348 OFFCURVE",
"944 348 QCURVE SMOOTH",
"611 348 LINE"
);
}
);
width = 1834;
}
);
leftKerningGroup = uni0042;
note = uni0411;
rightKerningGroup = uni0042;
unicode = 0411;
},
{
glyphname = uni0490;
layers = (
{
layerId = "17EDFB39-10F1-469C-9F8C-2D18680A40AF";
paths = (
{
closed = 1;
nodes = (
"611 0 LINE",
"611 1691 LINE",
"1544 1691 LINE",
"1544 2545 LINE",
"1133 2545 LINE",
"1133 2048 LINE",
"178 2048 LINE",
"178 0 LINE"
);
}
);
width = 1644;
}
);
leftKerningGroup = uni0042;
note = uni0490;
rightKerningGroup = uni04A4;
unicode = 0490;
},
{
glyphname = uni0414;
layers = (
{
layerId = "17EDFB39-10F1-469C-9F8C-2D18680A40AF";
paths = (
{
closed = 1;
nodes = (
"483 -494 LINE",
"483 0 LINE",
"1718 0 LINE",
"1718 -492 LINE",
"2134 -492 LINE",
"2134 345 LINE",
"1910 345 LINE",
"1910 2048 LINE",
"555 2048 LINE",
"497 1182 LINE SMOOTH",
"480 914 OFFCURVE",
"396 583 OFFCURVE",
"277 396 OFFCURVE",
"206 345 QCURVE",
"67 345 LINE",
"67 -494 LINE"
);
},
{
closed = 1;
nodes = (
"783 472 OFFCURVE",
"893 878 OFFCURVE",
"913 1182 QCURVE SMOOTH",
"945 1691 LINE",
"1494 1691 LINE",
"1494 345 LINE",
"706 345 LINE"
);
}
);
width = 2219;
}
);
note = uni0414;
unicode = 0414;
},
{
glyphname = uni0416;
layers = (
{
layerId = "17EDFB39-10F1-469C-9F8C-2D18680A40AF";
paths = (
{
closed = 1;
nodes = (
"1318 2048 LINE",
"1318 1205 LINE",
"1101 1205 LINE",
"641 2048 LINE",
"108 2048 LINE",
"723 1080 LINE",
"81 0 LINE",
"594 0 LINE",
"1038 805 LINE",
"1318 805 LINE",
"1318 0 LINE",
"1738 0 LINE",
"1738 805 LINE",
"2025 805 LINE",
"2458 0 LINE",
"2975 0 LINE",
"2345 1083 LINE",
"2945 2048 LINE",
"2414 2048 LINE",
"1966 1205 LINE",
"1738 1205 LINE",
"1738 2048 LINE"
);
}
);
width = 3056;
}
);
leftKerningGroup = uni0058;
note = uni0416;
rightKerningGroup = uni0058;
unicode = 0416;
},
{
glyphname = uni041A;
layers = (
{
layerId = "17EDFB39-10F1-469C-9F8C-2D18680A40AF";
paths = (
{
closed = 1;
nodes = (
"1950 0 LINE",
"1125 1071 LINE",
"2020 2048 LINE",
"1462 2048 LINE",
"712 1230 LINE",
"611 1230 LINE",
"611 2048 LINE",
"178 2048 LINE",
"178 0 LINE",
"611 0 LINE",
"611 873 LINE",
"743 873 LINE",
"1409 0 LINE"
);
}
);
width = 2070;
}
);
leftKerningGroup = uni0042;
note = uni041A;
rightKerningGroup = uni004B;
unicode = 041A;
},
{
glyphname = uni049C;
layers = (
{
layerId = "17EDFB39-10F1-469C-9F8C-2D18680A40AF";
paths = (
{
closed = 1;
nodes = (
"729 1205 LINE",
"606 1205 LINE",
"606 2048 LINE",
"178 2048 LINE",
"178 0 LINE",
"606 0 LINE",
"606 801 LINE",
"729 801 LINE",
"729 491 LINE",
"968 491 LINE",
"968 801 LINE",
"1046 801 LINE",
"1446 0 LINE",
"1965 0 LINE",
"1377 1082 LINE",
"1912 2048 LINE",
"1403 2048 LINE",
"1014 1205 LINE",
"968 1205 LINE",
"968 1558 LINE",
"729 1558 LINE"
);
}
);
width = 2003;
}
);
leftKerningGroup = uni0042;
note = uni049C;
rightKerningGroup = uni004B;
unicode = 049C;
},
{
glyphname = uni04C3;
layers = (
{
layerId = "17EDFB39-10F1-469C-9F8C-2D18680A40AF";
paths = (
{
closed = 1;
nodes = (
"599 0 LINE",
"599 814 LINE",
"982 814 LINE SMOOTH",
"1188 814 OFFCURVE",
"1421 547 OFFCURVE",
"1418 314 QCURVE SMOOTH",
"1416 94 OFFCURVE",
"1219 -159 OFFCURVE",
"1049 -159 QCURVE",
"1050 -490 LINE",
"1296 -490 OFFCURVE",
"1650 -291 OFFCURVE",
"1840 80 OFFCURVE",
"1839 336 QCURVE SMOOTH",
"1838 660 OFFCURVE",
"1479 1066 OFFCURVE",
"1160 1111 QCURVE",
"1829 2048 LINE",
"1318 2048 LINE",
"742 1205 LINE",
"599 1205 LINE",
"599 2048 LINE",
"178 2048 LINE",
"178 0 LINE"
);
}
);
width = 1953;
}
);
leftKerningGroup = uni0042;
note = uni04C3;
rightKerningGroup = uni0042;
unicode = 04C3;
},
{
glyphname = uni041B;
layers = (
{
layerId = "17EDFB39-10F1-469C-9F8C-2D18680A40AF";
paths = (
{
closed = 1;
nodes = (
"179 0 LINE SMOOTH",
"426 0 OFFCURVE",
"711 208 OFFCURVE",
"842 645 OFFCURVE",
"858 988 QCURVE SMOOTH",
"890 1701 LINE",
"1457 1701 LINE",
"1457 0 LINE",
"1878 0 LINE",
"1878 2048 LINE",
"488 2048 LINE",
"454 1137 LINE SMOOTH",
"444 852 OFFCURVE",
"375 515 OFFCURVE",
"238 363 OFFCURVE",
"125 353 QCURVE SMOOTH",
"67 348 LINE",
"67 0 LINE"
);
}
);
width = 2056;
}
);
leftKerningGroup = uni041B;
note = uni041B;
rightKerningGroup = uni018E;
unicode = 041B;
},
{
glyphname = uni0472;
layers = (
{
layerId = "17EDFB39-10F1-469C-9F8C-2D18680A40AF";
paths = (
{
closed = 1;
nodes = (
"2060 1359 OFFCURVE",
"1807 1829 OFFCURVE",
"1373 2076 OFFCURVE",
"1101 2076 QCURVE SMOOTH",
"828 2076 OFFCURVE",
"394 1829 OFFCURVE",
"142 1359 OFFCURVE",
"142 1024 QCURVE SMOOTH",
"142 691 OFFCURVE",
"394 220 OFFCURVE",
"828 -28 OFFCURVE",
"1101 -28 QCURVE SMOOTH",
"1373 -28 OFFCURVE",
"1807 219 OFFCURVE",
"2060 689 OFFCURVE",
"2060 1024 QCURVE SMOOTH"
);
},
{
closed = 1;
nodes = (
"889 355 OFFCURVE",
"615 633 OFFCURVE",
"587 897 QCURVE",
"754 944 OFFCURVE",
"984 904 OFFCURVE",
"1088 871 QCURVE SMOOTH",
"1161 848 OFFCURVE",
"1313 812 OFFCURVE",
"1494 820 OFFCURVE",
"1610 862 QCURVE",
"1576 614 OFFCURVE",
"1305 355 OFFCURVE",
"1101 355 QCURVE SMOOTH"
);
},
{
closed = 1;
nodes = (
"1447 1106 OFFCURVE",
"1215 1145 OFFCURVE",
"1111 1179 QCURVE SMOOTH",
"1038 1202 OFFCURVE",
"887 1237 OFFCURVE",
"708 1230 OFFCURVE",
"592 1190 QCURVE",
"627 1436 OFFCURVE",
"897 1693 OFFCURVE",
"1101 1693 QCURVE SMOOTH",
"1312 1693 OFFCURVE",
"1586 1417 OFFCURVE",
"1614 1154 QCURVE"
);
}
);
width = 2202;
}
);
note = uni0472;
unicode = 0472;
},
{
glyphname = uni040F;
layers = (
{
layerId = "17EDFB39-10F1-469C-9F8C-2D18680A40AF";
paths = (
{
closed = 1;
nodes = (
"811 0 LINE",
"811 -496 LINE",
"1234 -496 LINE",
"1234 0 LINE",
"1867 0 LINE",
"1867 2048 LINE",
"1442 2048 LINE",
"1442 348 LINE",
"599 348 LINE",
"599 2048 LINE",
"178 2048 LINE",
"178 0 LINE"
);
}
);
width = 2046;
}
);
leftKerningGroup = uni0042;
note = uni040F;
unicode = 040F;
},
{
glyphname = uni0423;
layers = (
{
layerId = "17EDFB39-10F1-469C-9F8C-2D18680A40AF";
paths = (
{
closed = 1;
nodes = (
"553 -28 LINE SMOOTH",
"721 -28 OFFCURVE",
"937 92 OFFCURVE",
"1076 288 OFFCURVE",
"1127 402 QCURVE SMOOTH",
"1833 2048 LINE",
"1391 2048 LINE",
"988 1040 LINE",
"506 2048 LINE",
"58 2048 LINE",
"802 574 LINE",
"777 507 LINE SMOOTH",
"746 416 OFFCURVE",
"634 324 OFFCURVE",
"510 324 QCURVE SMOOTH",
"399 324 LINE",
"399 -28 LINE"
);
}
);
width = 1890;
}
);
leftKerningGroup = uni0059;
note = uni0423;
rightKerningGroup = uni0059;
unicode = 0423;
},
{
glyphname = uni0424;
layers = (
{
layerId = "17EDFB39-10F1-469C-9F8C-2D18680A40AF";
paths = (
{
closed = 1;
nodes = (
"743 1828 OFFCURVE",
"361 1621 OFFCURVE",
"142 1244 OFFCURVE",
"142 990 QCURVE SMOOTH",
"142 742 OFFCURVE",
"359 375 OFFCURVE",
"741 174 OFFCURVE",
"988 174 QCURVE SMOOTH",
"1011 174 LINE",
"1011 -84 LINE",
"1422 -84 LINE",
"1422 174 LINE",
"1446 174 LINE SMOOTH",
"1692 174 OFFCURVE",
"2073 376 OFFCURVE",
"2290 743 OFFCURVE",
"2290 989 QCURVE SMOOTH",
"2290 1244 OFFCURVE",
"2073 1621 OFFCURVE",
"1692 1828 OFFCURVE",
"1446 1828 QCURVE SMOOTH",
"1422 1828 LINE",
"1422 2084 LINE",
"1011 2084 LINE",
"1011 1828 LINE",
"988 1828 LINE SMOOTH"
);
},
{
closed = 1;
nodes = (
"1011 1466 LINE",
"1011 536 LINE",
"988 536 LINE SMOOTH",
"794 536 OFFCURVE",
"543 762 OFFCURVE",
"543 990 QCURVE SMOOTH",
"543 1229 OFFCURVE",
"790 1466 OFFCURVE",
"988 1466 QCURVE SMOOTH"
);
},
{
closed = 1;
nodes = (
"1449 1466 LINE SMOOTH",
"1645 1466 OFFCURVE",
"1886 1227 OFFCURVE",
"1886 989 QCURVE SMOOTH",
"1886 766 OFFCURVE",
"1645 536 OFFCURVE",
"1449 536 QCURVE SMOOTH",
"1422 536 LINE",
"1422 1466 LINE"
);
}
);
width = 2432;
}
);
leftKerningGroup = uni0043;
note = uni0424;
rightKerningGroup = uni0044;
unicode = 0424;
},
{
glyphname = uni0426;
layers = (
{
layerId = "17EDFB39-10F1-469C-9F8C-2D18680A40AF";
paths = (
{
closed = 1;
nodes = (
"1867 346 LINE",
"1867 2048 LINE",
"1446 2048 LINE",
"1446 348 LINE",
"594 348 LINE",
"594 2048 LINE",
"178 2048 LINE",
"178 0 LINE",
"1714 0 LINE",
"1714 -484 LINE",
"2126 -484 LINE",
"2151 346 LINE"
);
}
);
width = 2236;
}
);
leftKerningGroup = uni0042;
note = uni0426;
unicode = 0426;
},
{
glyphname = uni04B4;
layers = (
{
layerId = "17EDFB39-10F1-469C-9F8C-2D18680A40AF";
paths = (
{
closed = 1;
nodes = (
"100 2048 LINE",
"100 1710 LINE",
"568 1710 LINE",
"568 0 LINE",
"2104 0 LINE",
"2104 -484 LINE",
"2516 -484 LINE",
"2541 346 LINE",
"2257 346 LINE",
"2257 2048 LINE",
"1836 2048 LINE",
"1836 348 LINE",
"984 348 LINE",
"984 1710 LINE",
"1460 1710 LINE",
"1460 2048 LINE"
);
}
);
width = 2626;
}
);
leftKerningGroup = uni0054;
note = uni04B4;
unicode = 04B4;
},
{
glyphname = uni0427;
layers = (
{
layerId = "17EDFB39-10F1-469C-9F8C-2D18680A40AF";
paths = (
{
closed = 1;
nodes = (
"261 1388 LINE SMOOTH",
"261 1155 OFFCURVE",
"461 859 OFFCURVE",
"826 718 OFFCURVE",
"1073 718 QCURVE SMOOTH",
"1150 718 OFFCURVE",
"1387 738 OFFCURVE",
"1480 757 QCURVE",
"1480 0 LINE",
"1903 0 LINE",
"1903 2048 LINE",
"1480 2048 LINE",
"1480 1100 LINE",
"1388 1082 OFFCURVE",
"1151 1064 OFFCURVE",
"1073 1064 QCURVE SMOOTH",
"869 1064 OFFCURVE",
"682 1210 OFFCURVE",
"682 1388 QCURVE SMOOTH",
"682 2048 LINE",
"261 2048 LINE"
);
}
);
width = 2154;
}
);
note = uni0427;
rightKerningGroup = uni018E;
unicode = 0427;
},
{
glyphname = uni04B8;
layers = (
{
layerId = "17EDFB39-10F1-469C-9F8C-2D18680A40AF";
paths = (
{
closed = 1;
nodes = (
"930 1466 LINE",
"930 1075 LINE",
"802 1097 OFFCURVE",
"682 1245 OFFCURVE",
"682 1388 QCURVE SMOOTH",
"682 2048 LINE",
"261 2048 LINE",
"261 1388 LINE SMOOTH",
"260 1073 OFFCURVE",
"621 752 OFFCURVE",
"930 724 QCURVE",
"930 404 LINE",
"1166 404 LINE",
"1166 721 LINE",
"1240 725 OFFCURVE",
"1411 743 OFFCURVE",
"1480 757 QCURVE",
"1480 0 LINE",
"1903 0 LINE",
"1903 2048 LINE",
"1480 2048 LINE",
"1480 1100 LINE",
"1411 1087 OFFCURVE",
"1241 1070 OFFCURVE",
"1166 1066 QCURVE",
"1166 1466 LINE"
);
}
);
width = 2162;
}
);
note = uni04B8;
unicode = 04B8;
},
{
glyphname = uni040B;
layers = (
{
layerId = "17EDFB39-10F1-469C-9F8C-2D18680A40AF";
paths = (
{
closed = 1;
nodes = (
"100 2048 LINE",
"100 1701 LINE",
"659 1701 LINE",
"659 0 LINE",
"1082 0 LINE",
"1082 948 LINE",
"1174 966 OFFCURVE",
"1411 984 OFFCURVE",
"1489 984 QCURVE SMOOTH",
"1693 984 OFFCURVE",
"1880 838 OFFCURVE",
"1880 660 QCURVE SMOOTH",
"1880 0 LINE",
"2301 0 LINE",
"2301 660 LINE SMOOTH",
"2302 893 OFFCURVE",
"2101 1189 OFFCURVE",
"1736 1330 OFFCURVE",
"1489 1330 QCURVE SMOOTH",
"1412 1330 OFFCURVE",
"1175 1310 OFFCURVE",
"1082 1291 QCURVE",
"1082 1701 LINE",
"1673 1701 LINE",
"1673 2048 LINE"
);
}
);
width = 2570;
}
);
leftKerningGroup = uni0054;
note = uni040B;
rightKerningGroup = uni0061;
unicode = 040B;
},
{
glyphname = uni0428;
layers = (
{
layerId = "17EDFB39-10F1-469C-9F8C-2D18680A40AF";
paths = (
{
closed = 1;
nodes = (
"260 0 LINE",
"2694 0 LINE",
"2694 2048 LINE",
"2273 2048 LINE",
"2273 348 LINE",
"1692 348 LINE",
"1692 2048 LINE",
"1271 2048 LINE",
"1271 348 LINE",
"683 348 LINE",
"683 2048 LINE",
"260 2048 LINE"
);
}
);
width = 2954;
}
);
leftKerningGroup = uni0042;
note = uni0428;
rightKerningGroup = uni018E;
unicode = 0428;
},
{
glyphname = uni0429;
layers = (
{
layerId = "17EDFB39-10F1-469C-9F8C-2D18680A40AF";
paths = (
{
closed = 1;
nodes = (
"2694 335 LINE",
"2694 2048 LINE",
"2273 2048 LINE",
"2273 348 LINE",
"1692 348 LINE",
"1692 2048 LINE",
"1271 2048 LINE",
"1271 348 LINE",
"683 348 LINE",
"683 2048 LINE",
"260 2048 LINE",
"260 0 LINE",
"2494 0 LINE",
"2494 -482 LINE",
"2887 -482 LINE",
"2915 335 LINE"
);
}
);
width = 3000;
}
);
leftKerningGroup = uni0042;
note = uni0429;
unicode = 0429;
},
{
glyphname = uni042A;
layers = (
{
layerId = "17EDFB39-10F1-469C-9F8C-2D18680A40AF";
paths = (
{
closed = 1;
nodes = (
"648 1710 LINE",
"648 0 LINE",
"1413 0 LINE SMOOTH",
"1656 0 OFFCURVE",
"2010 166 OFFCURVE",
"2202 461 OFFCURVE",
"2201 654 QCURVE SMOOTH",
"2202 848 OFFCURVE",
"2010 1134 OFFCURVE",
"1656 1291 OFFCURVE",
"1413 1291 QCURVE SMOOTH",
"1080 1291 LINE",
"1080 2048 LINE",
"100 2048 LINE",
"100 1710 LINE"
);
},
{
closed = 1;
nodes = (
"1413 949 LINE SMOOTH",
"1588 949 OFFCURVE",
"1773 780 OFFCURVE",
"1772 658 QCURVE SMOOTH",
"1773 532 OFFCURVE",
"1588 348 OFFCURVE",
"1413 348 QCURVE SMOOTH",
"1080 348 LINE",
"1080 949 LINE"
);
}
);
width = 2314;
}
);
leftKerningGroup = uni0054;
note = uni042A;
rightKerningGroup = uni0062;
unicode = 042A;
},
{
glyphname = uni042C;
layers = (
{
layerId = "17EDFB39-10F1-469C-9F8C-2D18680A40AF";
paths = (
{
closed = 1;
nodes = (
"618 2048 LINE",
"186 2048 LINE",
"186 0 LINE",
"951 0 LINE SMOOTH",
"1194 0 OFFCURVE",
"1548 166 OFFCURVE",
"1740 461 OFFCURVE",
"1739 654 QCURVE SMOOTH",
"1740 848 OFFCURVE",
"1548 1134 OFFCURVE",
"1194 1291 OFFCURVE",
"951 1291 QCURVE SMOOTH",
"618 1291 LINE"
);
},
{
closed = 1;
nodes = (
"951 949 LINE SMOOTH",
"1126 949 OFFCURVE",
"1311 780 OFFCURVE",
"1310 658 QCURVE SMOOTH",
"1311 532 OFFCURVE",
"1126 348 OFFCURVE",
"951 348 QCURVE SMOOTH",
"618 348 LINE",
"618 949 LINE"
);
}
);
width = 1907;
}
);
leftKerningGroup = uni0042;
note = uni042C;
rightKerningGroup = uni0062;
unicode = 042C;
},
{
glyphname = uni0409;
layers = (
{
layerId = "17EDFB39-10F1-469C-9F8C-2D18680A40AF";
paths = (
{
closed = 1;
nodes = (
"240 0 LINE SMOOTH",
"469 0 OFFCURVE",
"756 179 OFFCURVE",
"903 610 OFFCURVE",
"921 988 QCURVE SMOOTH",
"954 1698 LINE",
"1504 1698 LINE",
"1504 0 LINE",
"2269 0 LINE SMOOTH",
"2512 0 OFFCURVE",
"2866 166 OFFCURVE",
"3058 461 OFFCURVE",
"3057 654 QCURVE SMOOTH",
"3058 848 OFFCURVE",
"2866 1134 OFFCURVE",
"2512 1291 OFFCURVE",
"2269 1291 QCURVE SMOOTH",
"1936 1291 LINE",
"1936 2048 LINE",
"551 2048 LINE",
"518 1137 LINE SMOOTH",
"509 894 OFFCURVE",
"458 588 OFFCURVE",
"375 422 OFFCURVE",
"260 356 OFFCURVE",
"186 353 QCURVE SMOOTH",
"133 350 LINE",
"133 0 LINE"
);
},
{
closed = 1;
nodes = (
"2269 949 LINE SMOOTH",
"2444 949 OFFCURVE",
"2629 780 OFFCURVE",
"2628 658 QCURVE SMOOTH",
"2629 532 OFFCURVE",
"2444 348 OFFCURVE",
"2269 348 QCURVE SMOOTH",
"1936 348 LINE",
"1936 949 LINE"
);
}
);
width = 3170;
}
);
leftKerningGroup = uni041B;
note = uni0409;
rightKerningGroup = uni0062;
unicode = 0409;
},
{
glyphname = uni040A;
layers = (
{
layerId = "17EDFB39-10F1-469C-9F8C-2D18680A40AF";
paths = (
{
closed = 1;
nodes = (
"611 0 LINE",
"611 949 LINE",
"1490 949 LINE",
"1490 0 LINE",
"2255 0 LINE SMOOTH",
"2498 0 OFFCURVE",
"2852 166 OFFCURVE",
"3044 461 OFFCURVE",
"3043 654 QCURVE SMOOTH",
"3044 848 OFFCURVE",
"2852 1134 OFFCURVE",
"2498 1291 OFFCURVE",
"2255 1291 QCURVE SMOOTH",
"1922 1291 LINE",
"1922 2048 LINE",
"1490 2048 LINE",
"1490 1291 LINE",
"611 1291 LINE",
"611 2048 LINE",
"178 2048 LINE",
"178 0 LINE"
);
},
{
closed = 1;
nodes = (
"2255 949 LINE SMOOTH",
"2430 949 OFFCURVE",
"2615 780 OFFCURVE",
"2614 658 QCURVE SMOOTH",
"2615 532 OFFCURVE",
"2430 348 OFFCURVE",
"2255 348 QCURVE SMOOTH",
"1922 348 LINE",
"1922 949 LINE"
);
}
);
width = 3156;
}
);
leftKerningGroup = uni0042;
note = uni040A;
rightKerningGroup = uni0062;
unicode = 040A;
},
{
glyphname = uni042D;
layers = (
{
layerId = "17EDFB39-10F1-469C-9F8C-2D18680A40AF";
paths = (
{
closed = 1;
nodes = (
"159 464 OFFCURVE",
"362 149 OFFCURVE",
"725 -28 OFFCURVE",
"978 -28 QCURVE SMOOTH",
"1243 -28 OFFCURVE",
"1625 207 OFFCURVE",
"1830 640 OFFCURVE",
"1830 938 QCURVE SMOOTH",
"1830 1104 LINE SMOOTH",
"1830 1402 OFFCURVE",
"1620 1838 OFFCURVE",
"1236 2076 OFFCURVE",
"975 2076 QCURVE SMOOTH",
"711 2076 OFFCURVE",
"355 1886 OFFCURVE",
"162 1561 OFFCURVE",
"142 1359 QCURVE",
"573 1359 LINE",
"587 1531 OFFCURVE",
"758 1725 OFFCURVE",
"975 1725 QCURVE SMOOTH",
"1181 1725 OFFCURVE",
"1391 1443 OFFCURVE",
"1403 1175 QCURVE",
"754 1175 LINE",
"754 828 LINE",
"1401 828 LINE",
"1385 585 OFFCURVE",
"1191 317 OFFCURVE",
"978 317 QCURVE SMOOTH",
"598 317 OFFCURVE",
"575 671 QCURVE",
"144 671 LINE"
);
}
);
width = 1972;
}
);
leftKerningGroup = uni0043;
note = uni042D;
rightKerningGroup = uni0044;
unicode = 042D;
},
{
glyphname = uni0404;
layers = (
{
layerId = "17EDFB39-10F1-469C-9F8C-2D18680A40AF";
paths = (
{
closed = 1;
nodes = (
"564 1177 LINE",
"579 1427 OFFCURVE",
"814 1724 OFFCURVE",
"1001 1724 QCURVE SMOOTH",
"1172 1724 OFFCURVE",
"1399 1529 OFFCURVE",
"1407 1359 QCURVE",
"1830 1359 LINE",
"1814 1582 OFFCURVE",
"1600 1903 OFFCURVE",
"1239 2076 OFFCURVE",
"1001 2076 QCURVE SMOOTH",
"740 2076 OFFCURVE",
"353 1825 OFFCURVE",
"142 1369 OFFCURVE",
"142 1060 QCURVE SMOOTH",
"142 938 LINE SMOOTH",
"142 645 OFFCURVE",
"353 210 OFFCURVE",
"738 -28 OFFCURVE",
"999 -28 QCURVE SMOOTH",
"1243 -28 OFFCURVE",
"1610 141 OFFCURVE",
"1820 454 OFFCURVE",
"1830 671 QCURVE",
"1405 671 LINE",
"1396 507 OFFCURVE",
"1169 318 OFFCURVE",
"999 318 QCURVE SMOOTH",
"813 318 OFFCURVE",
"578 596 OFFCURVE",
"564 829 QCURVE",
"1202 829 LINE",
"1202 1177 LINE"
);
}
);
width = 1963;
}
);
leftKerningGroup = uni0043;
note = uni0404;
rightKerningGroup = uni0404;
unicode = 0404;
},
{
glyphname = uni04A8;
layers = (
{
layerId = "17EDFB39-10F1-469C-9F8C-2D18680A40AF";
paths = (
{
closed = 1;
nodes = (
"2119 316 OFFCURVE",
"2005 336 QCURVE",
"2113 467 OFFCURVE",
"2231 797 OFFCURVE",
"2231 984 QCURVE SMOOTH",
"2231 1244 LINE SMOOTH",
"2231 1488 OFFCURVE",
"2064 1863 OFFCURVE",
"1767 2076 OFFCURVE",
"1572 2076 QCURVE SMOOTH",
"1388 2076 OFFCURVE",
"1114 1876 OFFCURVE",
"962 1534 OFFCURVE",
"962 1320 QCURVE SMOOTH",
"962 1016 LINE SMOOTH",
"962 814 OFFCURVE",
"1107 470 OFFCURVE",
"1240 338 QCURVE",
"1205 335 OFFCURVE",
"1168 335 QCURVE SMOOTH",
"999 335 OFFCURVE",
"751 482 OFFCURVE",
"615 740 OFFCURVE",
"615 904 QCURVE SMOOTH",
"615 1254 LINE SMOOTH",
"615 1450 OFFCURVE",
"783 1713 OFFCURVE",
"918 1713 QCURVE",
"918 2078 LINE",
"694 2078 OFFCURVE",
"356 1859 OFFCURVE",
"168 1485 OFFCURVE",
"168 1252 QCURVE SMOOTH",
"168 904 LINE SMOOTH",
"168 641 OFFCURVE",
"419 219 OFFCURVE",
"869 -28 OFFCURVE",
"1168 -28 QCURVE SMOOTH",
"1307 -28 OFFCURVE",
"1558 27 OFFCURVE",
"1667 77 QCURVE",
"1794 32 OFFCURVE",
"2084 -16 OFFCURVE",
"2245 -16 QCURVE",
"2245 316 LINE"
);
},
{
closed = 1;
nodes = (
"1358 696 OFFCURVE",
"1358 1014 QCURVE SMOOTH",
"1358 1324 LINE SMOOTH",
"1358 1503 OFFCURVE",
"1482 1713 OFFCURVE",
"1582 1713 QCURVE SMOOTH",
"1682 1713 OFFCURVE",
"1806 1494 OFFCURVE",
"1806 1298 QCURVE SMOOTH",
"1806 984 LINE SMOOTH",
"1806 838 OFFCURVE",
"1704 589 OFFCURVE",
"1612 501 QCURVE"
);
}
);
width = 2413;
}
);
note = uni04A8;
unicode = 04A8;
},
{
glyphname = uni04BC;
layers = (
{
layerId = "17EDFB39-10F1-469C-9F8C-2D18680A40AF";
paths = (
{
closed = 1;
nodes = (
"150 1237 OFFCURVE",
"391 923 OFFCURVE",
"606 888 QCURVE",
"606 836 LINE SMOOTH",
"606 576 OFFCURVE",
"821 185 OFFCURVE",
"1244 -32 OFFCURVE",
"1554 -32 QCURVE SMOOTH",
"1767 -32 OFFCURVE",
"2083 38 OFFCURVE",
"2146 74 QCURVE",
"2078 433 LINE",
"1984 400 OFFCURVE",
"1708 349 OFFCURVE",
"1554 349 QCURVE SMOOTH",
"1277 349 OFFCURVE",
"1027 622 OFFCURVE",
"1027 836 QCURVE SMOOTH",
"1027 851 LINE",
"2262 851 LINE",
"2262 1082 LINE SMOOTH",
"2262 1379 OFFCURVE",
"2073 1812 OFFCURVE",
"1713 2047 OFFCURVE",
"1457 2047 QCURVE SMOOTH",
"1209 2047 OFFCURVE",
"826 1836 OFFCURVE",
"608 1455 OFFCURVE",
"606 1201 QCURVE",
"438 1264 OFFCURVE",
"438 1488 QCURVE",
"150 1488 LINE"
);
},
{
closed = 1;
nodes = (
"1029 1406 OFFCURVE",
"1250 1666 OFFCURVE",
"1457 1666 QCURVE SMOOTH",
"1648 1666 OFFCURVE",
"1842 1436 OFFCURVE",
"1842 1246 QCURVE SMOOTH",
"1842 1202 LINE",
"1027 1202 LINE"
);
}
);
width = 2410;
}
);
note = uni04BC;
unicode = 04BC;
},
{
glyphname = uni04D8;
layers = (
{
layerId = "17EDFB39-10F1-469C-9F8C-2D18680A40AF";
paths = (
{
closed = 1;
nodes = (
"633 2076 OFFCURVE",
"309 1994 OFFCURVE",
"259 1970 QCURVE",
"330 1611 LINE",
"413 1637 OFFCURVE",
"692 1691 OFFCURVE",
"882 1691 QCURVE SMOOTH",
"1085 1691 OFFCURVE",
"1329 1537 OFFCURVE",
"1442 1289 OFFCURVE",
"1448 1148 QCURVE",
"108 1148 LINE",
"108 916 LINE SMOOTH",
"109 627 OFFCURVE",
"312 203 OFFCURVE",
"709 -28 OFFCURVE",
"1001 -28 QCURVE SMOOTH",
"1251 -28 OFFCURVE",
"1651 206 OFFCURVE",
"1886 620 OFFCURVE",
"1886 890 QCURVE SMOOTH",
"1886 1106 LINE SMOOTH",
"1886 1377 OFFCURVE",
"1662 1816 OFFCURVE",
"1215 2076 OFFCURVE",
"882 2076 QCURVE SMOOTH"
);
},
{
closed = 1;
nodes = (
"1422 606 OFFCURVE",
"1199 353 OFFCURVE",
"1001 353 QCURVE SMOOTH",
"833 353 OFFCURVE",
"632 459 OFFCURVE",
"544 641 OFFCURVE",
"543 754 QCURVE SMOOTH",
"543 795 LINE",
"1444 795 LINE"
);
}
);
width = 1994;
}
);
note = uni04D8;
unicode = 04D8;
},
{
glyphname = uni0474;
layers = (
{
layerId = "17EDFB39-10F1-469C-9F8C-2D18680A40AF";
paths = (
{
closed = 1;
nodes = (
"1062 492 LINE",
"1043 492 LINE",
"548 2048 LINE",
"67 2048 LINE",
"774 0 LINE",
"1332 0 LINE",
"1864 1536 LINE SMOOTH",
"1892 1619 OFFCURVE",
"1963 1698 OFFCURVE",
"2031 1698 QCURVE SMOOTH",
"2080 1698 LINE",
"2080 2080 LINE",
"1971 2080 LINE SMOOTH",
"1751 2080 OFFCURVE",
"1493 1841 OFFCURVE",
"1414 1586 QCURVE SMOOTH"
);
}
);
width = 2147;
}
);
leftKerningGroup = uni0056;
note = uni0474;
rightKerningGroup = uni0056;
unicode = 0474;
},
{
glyphname = uni0402;
layers = (
{
layerId = "17EDFB39-10F1-469C-9F8C-2D18680A40AF";
paths = (
{
closed = 1;
nodes = (
"100 2048 LINE",
"100 1691 LINE",
"727 1691 LINE",
"727 0 LINE",
"1155 0 LINE",
"1155 884 LINE",
"1330 917 OFFCURVE",
"1472 917 QCURVE SMOOTH",
"1644 917 OFFCURVE",
"1843 742 OFFCURVE",
"1843 596 QCURVE SMOOTH",
"1843 459 OFFCURVE",
"1653 302 OFFCURVE",
"1467 302 QCURVE",
"1469 -26 LINE",
"1774 -32 OFFCURVE",
"2130 141 OFFCURVE",
"2283 435 OFFCURVE",
"2283 610 QCURVE SMOOTH",
"2283 822 OFFCURVE",
"2078 1097 OFFCURVE",
"1722 1230 OFFCURVE",
"1496 1230 QCURVE SMOOTH",
"1406 1230 OFFCURVE",
"1234 1209 OFFCURVE",
"1155 1193 QCURVE",
"1155 1691 LINE",
"1782 1691 LINE",
"1782 2048 LINE"
);
}
);
width = 2396;
}
);
leftKerningGroup = uni0054;
note = uni0402;
rightKerningGroup = uni0062;
unicode = 0402;
},
{
glyphname = uni00F0;
layers = (
{
layerId = "17EDFB39-10F1-469C-9F8C-2D18680A40AF";
paths = (
{
closed = 1;
nodes = (
"1162 2094 LINE",
"886 1953 LINE",
"802 2021 OFFCURVE",
"628 2132 OFFCURVE",
"541 2176 QCURVE",
"353 1910 LINE",
"469 1846 OFFCURVE",
"559 1787 QCURVE",
"303 1657 LINE",
"419 1442 LINE",
"773 1622 LINE",
"850 1551 OFFCURVE",
"965 1400 OFFCURVE",
"1016 1312 QCURVE",
"996 1312 LINE",
"935 1384 OFFCURVE",
"731 1437 OFFCURVE",
"622 1423 QCURVE SMOOTH",
"492 1401 OFFCURVE",
"260 1218 OFFCURVE",
"113 913 OFFCURVE",
"113 704 QCURVE SMOOTH",
"113 490 OFFCURVE",
"283 158 OFFCURVE",
"593 -32 OFFCURVE",
"804 -32 QCURVE SMOOTH",
"1012 -32 OFFCURVE",
"1324 153 OFFCURVE",
"1498 504 OFFCURVE",
"1498 752 QCURVE SMOOTH",
"1498 1066 OFFCURVE",
"1259 1581 OFFCURVE",
"1077 1776 QCURVE",
"1278 1878 LINE"
);
},
{
closed = 1;
nodes = (
"676 300 OFFCURVE",
"519 506 OFFCURVE",
"519 706 QCURVE SMOOTH",
"519 912 OFFCURVE",
"681 1110 OFFCURVE",
"821 1110 QCURVE SMOOTH",
"964 1110 OFFCURVE",
"1126 907 OFFCURVE",
"1126 705 QCURVE SMOOTH",
"1126 505 OFFCURVE",
"964 300 OFFCURVE",
"821 300 QCURVE SMOOTH"
);
}
);
width = 1610;
}
);
leftKerningGroup = uniE02C;
note = uni00F0;
rightKerningGroup = uni0062;
unicode = 00F0;
},
{
glyphname = uni00FE;
layers = (
{
layerId = "17EDFB39-10F1-469C-9F8C-2D18680A40AF";
paths = (
{
closed = 1;
nodes = (
"170 -576 LINE",
"596 -576 LINE",
"596 169 LINE",
"614 169 LINE",
"655 86 OFFCURVE",
"844 -25 OFFCURVE",
"990 -25 QCURVE SMOOTH",
"1163 -25 OFFCURVE",
"1446 156 OFFCURVE",
"1613 508 OFFCURVE",
"1613 766 QCURVE SMOOTH",
"1613 1030 OFFCURVE",
"1441 1381 OFFCURVE",
"1157 1556 OFFCURVE",
"990 1556 QCURVE SMOOTH",
"838 1556 OFFCURVE",
"653 1439 OFFCURVE",
"614 1359 QCURVE",
"596 1359 LINE",
"596 2048 LINE",
"170 2048 LINE"
);
},
{
closed = 1;
nodes = (
"1209 560 OFFCURVE",
"1040 314 OFFCURVE",
"871 314 QCURVE SMOOTH",
"754 314 OFFCURVE",
"615 437 OFFCURVE",
"554 643 OFFCURVE",
"554 768 QCURVE SMOOTH",
"554 895 OFFCURVE",
"616 1098 OFFCURVE",
"755 1217 OFFCURVE",
"871 1217 QCURVE SMOOTH",
"1041 1217 OFFCURVE",
"1209 975 OFFCURVE",
"1209 768 QCURVE SMOOTH"
);
}
);
width = 1726;
}
);
leftKerningGroup = uni0042;
note = uni00FE;
rightKerningGroup = uni0062;
unicode = 00FE;
},
{
glyphname = uni03B1;
layers = (
{
layerId = "17EDFB39-10F1-469C-9F8C-2D18680A40AF";
paths = (
{
closed = 1;
nodes = (
"984 -33 OFFCURVE",
"1244 187 OFFCURVE",
"1306 350 QCURVE",
"1314 350 LINE",
"1394 0 LINE",
"1722 0 LINE",
"1535 768 LINE",
"1702 1536 LINE",
"1379 1536 LINE",
"1308 1196 LINE",
"1301 1196 LINE",
"1237 1360 OFFCURVE",
"968 1556 OFFCURVE",
"782 1556 QCURVE SMOOTH",
"594 1556 OFFCURVE",
"290 1357 OFFCURVE",
"113 1002 OFFCURVE",
"113 768 QCURVE SMOOTH",
"113 533 OFFCURVE",
"283 173 OFFCURVE",
"582 -31 OFFCURVE",
"775 -32 QCURVE SMOOTH"
);
},
{
closed = 1;
nodes = (
"1218 764 LINE SMOOTH",
"1198 668 OFFCURVE",
"1101 459 OFFCURVE",
"945 314 OFFCURVE",
"838 314 QCURVE SMOOTH",
"699 314 OFFCURVE",
"526 573 OFFCURVE",
"526 771 QCURVE SMOOTH",
"526 966 OFFCURVE",
"699 1217 OFFCURVE",
"851 1217 QCURVE SMOOTH",
"965 1217 OFFCURVE",
"1113 1079 OFFCURVE",
"1198 873 OFFCURVE",
"1218 772 QCURVE SMOOTH",
"1219 768 LINE"
);
}
);
width = 1835;
}
);
leftKerningGroup = uniE02C;
note = uni03B1;
rightKerningGroup = uni03B1;
unicode = 03B1;
},
{
glyphname = uni03B2;
layers = (
{
layerId = "17EDFB39-10F1-469C-9F8C-2D18680A40AF";
paths = (
{
closed = 1;
nodes = (
"667 2076 OFFCURVE",
"355 1922 OFFCURVE",
"171 1640 OFFCURVE",
"170 1447 QCURVE SMOOTH",
"170 -576 LINE",
"582 -576 LINE",
"582 106 LINE",
"595 112 LINE",
"681 39 OFFCURVE",
"880 -21 OFFCURVE",
"983 -21 QCURVE SMOOTH",
"1160 -21 OFFCURVE",
"1446 133 OFFCURVE",
"1614 407 OFFCURVE",
"1614 586 QCURVE SMOOTH",
"1614 744 OFFCURVE",
"1470 1012 OFFCURVE",
"1331 1092 QCURVE",
"1426 1177 OFFCURVE",
"1526 1408 OFFCURVE",
"1526 1526 QCURVE SMOOTH",
"1526 1695 OFFCURVE",
"1340 1942 OFFCURVE",
"1036 2076 OFFCURVE",
"858 2076 QCURVE SMOOTH"
);
},
{
closed = 1;
nodes = (
"761 898 LINE",
"892 898 LINE SMOOTH",
"1021 898 OFFCURVE",
"1205 752 OFFCURVE",
"1205 622 QCURVE SMOOTH",
"1205 502 OFFCURVE",
"1037 336 OFFCURVE",
"895 336 QCURVE SMOOTH",
"747 336 OFFCURVE",
"582 517 OFFCURVE",
"582 642 QCURVE SMOOTH",
"582 1421 LINE SMOOTH",
"582 1557 OFFCURVE",
"740 1705 OFFCURVE",
"858 1705 QCURVE SMOOTH",
"975 1705 OFFCURVE",
"1114 1566 OFFCURVE",
"1114 1459 QCURVE SMOOTH",
"1114 1403 OFFCURVE",
"1065 1286 OFFCURVE",
"951 1207 OFFCURVE",
"851 1207 QCURVE SMOOTH",
"761 1207 LINE",
"761 1184 LINE"
);
}
);
width = 1716;
}
);
leftKerningGroup = uni0250;
note = uni03B2;
rightKerningGroup = uni0042;
unicode = 03B2;
},
{
glyphname = uni03B3;
layers = (
{
layerId = "17EDFB39-10F1-469C-9F8C-2D18680A40AF";
paths = (
{
closed = 1;
nodes = (
"569 13 LINE",
"569 -572 LINE",
"973 -572 LINE",
"973 13 LINE",
"1492 1536 LINE",
"1063 1536 LINE",
"778 474 LINE",
"479 1536 LINE",
"48 1536 LINE"
);
}
);
width = 1540;
}
);
leftKerningGroup = uni03B3;
note = uni03B3;
rightKerningGroup = uni03B3;
unicode = 03B3;
},
{
glyphname = uni03B4;
layers = (
{
layerId = "17EDFB39-10F1-469C-9F8C-2D18680A40AF";
paths = (
{
closed = 1;
nodes = (
"364 1592 OFFCURVE",
"512 1410 OFFCURVE",
"630 1348 QCURVE",
"633 1340 LINE",
"514 1310 OFFCURVE",
"313 1138 OFFCURVE",
"192 883 OFFCURVE",
"192 728 QCURVE SMOOTH",
"192 700 LINE SMOOTH",
"192 494 OFFCURVE",
"364 164 OFFCURVE",
"692 -28 OFFCURVE",
"925 -28 QCURVE SMOOTH",
"1154 -28 OFFCURVE",
"1479 171 OFFCURVE",
"1651 512 OFFCURVE",
"1651 724 QCURVE SMOOTH",
"1651 752 LINE SMOOTH",
"1651 1321 OFFCURVE",
"980 1546 QCURVE SMOOTH",
"843 1594 OFFCURVE",
"764 1684 OFFCURVE",
"765 1724 QCURVE SMOOTH",
"764 1783 OFFCURVE",
"890 1850 OFFCURVE",
"993 1850 QCURVE SMOOTH",
"1088 1850 OFFCURVE",
"1266 1803 OFFCURVE",
"1321 1786 QCURVE",
"1321 2104 LINE",
"1215 2133 OFFCURVE",
"1059 2166 OFFCURVE",
"951 2166 QCURVE SMOOTH",
"678 2166 OFFCURVE",
"364 1928 OFFCURVE",
"365 1716 QCURVE SMOOTH"
);
},
{
closed = 1;
nodes = (
"610 884 OFFCURVE",
"678 1078 OFFCURVE",
"818 1196 OFFCURVE",
"925 1196 QCURVE",
"1024 1177 OFFCURVE",
"1161 1041 OFFCURVE",
"1234 859 OFFCURVE",
"1234 771 QCURVE SMOOTH",
"1234 748 LINE SMOOTH",
"1234 629 OFFCURVE",
"1168 428 OFFCURVE",
"1032 307 OFFCURVE",
"925 307 QCURVE SMOOTH",
"816 307 OFFCURVE",
"676 428 OFFCURVE",
"610 628 OFFCURVE",
"610 748 QCURVE SMOOTH",
"610 771 LINE SMOOTH"
);
}
);
width = 1842;
}
);
leftKerningGroup = uni03B4;
note = uni03B4;
rightKerningGroup = uni03B4;
unicode = 03B4;
},
{
glyphname = uni03B5;
layers = (
{
layerId = "17EDFB39-10F1-469C-9F8C-2D18680A40AF";
paths = (
{
closed = 1;
nodes = (
"1022 928 LINE",
"804 928 LINE SMOOTH",
"680 928 OFFCURVE",
"543 1011 OFFCURVE",
"542 1080 QCURVE SMOOTH",
"543 1146 OFFCURVE",
"674 1246 OFFCURVE",
"801 1246 QCURVE SMOOTH",
"914 1246 OFFCURVE",
"1059 1174 OFFCURVE",
"1068 1098 QCURVE",
"1479 1098 LINE",
"1472 1242 OFFCURVE",
"1296 1447 OFFCURVE",
"1003 1556 OFFCURVE",
"822 1556 QCURVE SMOOTH",
"622 1556 OFFCURVE",
"312 1453 OFFCURVE",
"135 1256 OFFCURVE",
"134 1114 QCURVE SMOOTH",
"135 1009 OFFCURVE",
"291 823 OFFCURVE",
"452 778 QCURVE",
"274 736 OFFCURVE",
"109 542 OFFCURVE",
"108 418 QCURVE SMOOTH",
"109 281 OFFCURVE",
"298 81 OFFCURVE",
"623 -28 OFFCURVE",
"824 -28 QCURVE SMOOTH",
"1001 -28 OFFCURVE",
"1305 78 OFFCURVE",
"1496 288 OFFCURVE",
"1502 443 QCURVE",
"1096 443 LINE",
"1085 365 OFFCURVE",
"945 284 OFFCURVE",
"802 284 QCURVE SMOOTH",
"663 284 OFFCURVE",
"516 389 OFFCURVE",
"514 459 QCURVE SMOOTH",
"516 553 OFFCURVE",
"692 642 OFFCURVE",
"804 642 QCURVE SMOOTH",
"1022 642 LINE",
"1022 805 LINE"
);
}
);
width = 1606;
}
);
leftKerningGroup = uni03B5;
note = uni03B5;
unicode = 03B5;
},
{
glyphname = uni029A;
layers = (
{
layerId = "17EDFB39-10F1-469C-9F8C-2D18680A40AF";
paths = (
{
closed = 1;
nodes = (
"1015 -28 OFFCURVE",
"1338 150 OFFCURVE",
"1533 511 OFFCURVE",
"1533 787 QCURVE SMOOTH",
"1533 1049 OFFCURVE",
"1343 1390 OFFCURVE",
"1021 1556 OFFCURVE",
"822 1556 QCURVE SMOOTH",
"530 1556 OFFCURVE",
"170 1327 OFFCURVE",
"170 1114 QCURVE SMOOTH",
"170 1009 OFFCURVE",
"311 823 OFFCURVE",
"464 778 QCURVE",
"292 736 OFFCURVE",
"142 542 OFFCURVE",
"142 418 QCURVE SMOOTH",
"142 281 OFFCURVE",
"320 81 OFFCURVE",
"628 -28 OFFCURVE",
"824 -28 QCURVE SMOOTH"
);
},
{
closed = 1;
nodes = (
"890 923 LINE",
"806 923 LINE SMOOTH",
"690 923 OFFCURVE",
"578 1011 OFFCURVE",
"578 1080 QCURVE SMOOTH",
"578 1146 OFFCURVE",
"682 1246 OFFCURVE",
"796 1246 QCURVE SMOOTH",
"888 1246 OFFCURVE",
"1039 1161 OFFCURVE",
"1129 960 OFFCURVE",
"1129 787 QCURVE SMOOTH",
"1129 529 OFFCURVE",
"956 286 OFFCURVE",
"800 286 QCURVE SMOOTH",
"674 286 OFFCURVE",
"553 389 OFFCURVE",
"553 459 QCURVE SMOOTH",
"553 551 OFFCURVE",
"691 647 OFFCURVE",
"806 647 QCURVE SMOOTH",
"890 647 LINE",
"890 746 LINE"
);
}
);
width = 1646;
}
);
leftKerningGroup = uni03B5;
note = uni029A;
rightKerningGroup = uni0250;
unicode = 029A;
},
{
glyphname = uni025D;
layers = (
{
layerId = "17EDFB39-10F1-469C-9F8C-2D18680A40AF";
paths = (
{
closed = 1;
nodes = (
"589 642 LINE",
"807 642 LINE SMOOTH",
"920 642 OFFCURVE",
"1096 553 OFFCURVE",
"1097 459 QCURVE SMOOTH",
"1096 389 OFFCURVE",
"948 284 OFFCURVE",
"809 284 QCURVE SMOOTH",
"667 284 OFFCURVE",
"526 365 OFFCURVE",
"515 443 QCURVE",
"109 443 LINE",
"115 288 OFFCURVE",
"306 78 OFFCURVE",
"611 -28 OFFCURVE",
"787 -28 QCURVE SMOOTH",
"989 -28 OFFCURVE",
"1313 81 OFFCURVE",
"1503 281 OFFCURVE",
"1503 418 QCURVE SMOOTH",
"1502 542 OFFCURVE",
"1337 736 OFFCURVE",
"1159 778 QCURVE",
"1260 806 OFFCURVE",
"1396 903 OFFCURVE",
"1433 962 QCURVE",
"1519 983 LINE",
"1546 867 OFFCURVE",
"1622 677 OFFCURVE",
"1770 565 OFFCURVE",
"1905 565 QCURVE SMOOTH",
"1961 565 OFFCURVE",
"2078 592 OFFCURVE",
"2126 618 QCURVE",
"2071 880 LINE",
"2056 878 OFFCURVE",
"2026 877 OFFCURVE",
"2007 877 QCURVE SMOOTH",
"1996 877 OFFCURVE",
"1990 877 QCURVE SMOOTH",
"1911 877 OFFCURVE",
"1836 983 OFFCURVE",
"1801 1182 OFFCURVE",
"1779 1320 QCURVE",
"1451 1251 LINE",
"1392 1399 OFFCURVE",
"1037 1556 OFFCURVE",
"789 1556 QCURVE SMOOTH",
"608 1556 OFFCURVE",
"315 1447 OFFCURVE",
"139 1242 OFFCURVE",
"132 1098 QCURVE",
"543 1098 LINE",
"552 1174 OFFCURVE",
"697 1246 OFFCURVE",
"810 1246 QCURVE SMOOTH",
"938 1246 OFFCURVE",
"1068 1146 OFFCURVE",
"1069 1080 QCURVE SMOOTH",
"1068 1011 OFFCURVE",
"931 928 OFFCURVE",
"807 928 QCURVE SMOOTH",
"589 928 LINE",
"589 746 LINE"
);
}
);
width = 2289;
}
);
leftKerningGroup = uni03B5;
note = uni025D;
unicode = 025D;
},
{
glyphname = uni03B6;
layers = (
{
layerId = "17EDFB39-10F1-469C-9F8C-2D18680A40AF";
paths = (
{
closed = 1;
nodes = (
"107 1694 LINE",
"876 1694 LINE",
"594 1350 LINE SMOOTH",
"472 1202 OFFCURVE",
"301 960 OFFCURVE",
"212 701 OFFCURVE",
"212 526 QCURVE SMOOTH",
"212 335 OFFCURVE",
"468 67 OFFCURVE",
"706 8 QCURVE SMOOTH",
"809 -18 LINE SMOOTH",
"967 -60 OFFCURVE",
"964 -150 QCURVE SMOOTH",
"963 -195 OFFCURVE",
"901 -313 OFFCURVE",
"836 -378 QCURVE",
"1050 -538 LINE",
"1211 -430 OFFCURVE",
"1384 -186 OFFCURVE",
"1384 -65 QCURVE SMOOTH",
"1384 56 OFFCURVE",
"1172 246 OFFCURVE",
"970 302 QCURVE SMOOTH",
"860 334 LINE SMOOTH",
"618 402 OFFCURVE",
"618 592 QCURVE SMOOTH",
"618 742 OFFCURVE",
"771 1003 OFFCURVE",
"911 1178 QCURVE SMOOTH",
"1425 1812 LINE",
"1425 2048 LINE",
"107 2048 LINE"
);
}
);
width = 1556;
}
);
note = uni03B6;
unicode = 03B6;
},
{
glyphname = uni03B7;
layers = (
{
layerId = "17EDFB39-10F1-469C-9F8C-2D18680A40AF";
paths = (
{
closed = 1;
nodes = (
"596 1037 OFFCURVE",
"759 1202 OFFCURVE",
"887 1202 QCURVE SMOOTH",
"1016 1202 OFFCURVE",
"1160 1043 OFFCURVE",
"1160 902 QCURVE SMOOTH",
"1160 -576 LINE",
"1586 -576 LINE",
"1586 978 LINE SMOOTH",
"1586 1247 OFFCURVE",
"1298 1556 OFFCURVE",
"1056 1556 QCURVE SMOOTH",
"886 1556 OFFCURVE",
"646 1400 OFFCURVE",
"594 1265 QCURVE",
"576 1265 LINE",
"576 1536 LINE",
"170 1536 LINE",
"170 0 LINE",
"596 0 LINE",
"596 888 LINE SMOOTH"
);
}
);
width = 1751;
}
);
leftKerningGroup = uni0250;
note = uni03B7;
unicode = 03B7;
},
{
glyphname = uni03B8;
layers = (
{
layerId = "17EDFB39-10F1-469C-9F8C-2D18680A40AF";
paths = (
{
closed = 1;
nodes = (
"1624 1494 OFFCURVE",
"1445 1880 OFFCURVE",
"1130 2068 OFFCURVE",
"923 2068 QCURVE SMOOTH",
"715 2068 OFFCURVE",
"399 1878 OFFCURVE",
"222 1492 OFFCURVE",
"222 1197 QCURVE SMOOTH",
"222 845 LINE SMOOTH",
"222 547 OFFCURVE",
"400 160 OFFCURVE",
"718 -28 OFFCURVE",
"927 -28 QCURVE SMOOTH",
"1134 -28 OFFCURVE",
"1448 160 OFFCURVE",
"1624 547 OFFCURVE",
"1624 845 QCURVE SMOOTH",
"1624 1197 LINE SMOOTH"
);
},
{
closed = 1;
nodes = (
"1210 529 OFFCURVE",
"1057 316 OFFCURVE",
"927 316 QCURVE SMOOTH",
"785 316 OFFCURVE",
"635 544 OFFCURVE",
"636 791 QCURVE SMOOTH",
"636 862 LINE",
"1211 862 LINE",
"1211 791 LINE SMOOTH"
);
},
{
closed = 1;
nodes = (
"636 1258 LINE SMOOTH",
"635 1498 OFFCURVE",
"783 1726 OFFCURVE",
"923 1726 QCURVE SMOOTH",
"1054 1726 OFFCURVE",
"1210 1511 OFFCURVE",
"1211 1258 QCURVE SMOOTH",
"1211 1182 LINE",
"636 1182 LINE"
);
}
);
width = 1846;
}
);
note = uni03B8;
unicode = 03B8;
},
{
glyphname = uni03B9;
layers = (
{
layerId = "17EDFB39-10F1-469C-9F8C-2D18680A40AF";
paths = (
{
closed = 1;
nodes = (
"198 430 LINE SMOOTH",
"200 190 OFFCURVE",
"435 -18 OFFCURVE",
"637 -18 QCURVE SMOOTH",
"708 -18 OFFCURVE",
"838 4 OFFCURVE",
"890 22 QCURVE",
"890 335 LINE",
"867 333 OFFCURVE",
"809 327 OFFCURVE",
"769 327 QCURVE SMOOTH",
"690 327 OFFCURVE",
"608 389 OFFCURVE",
"607 481 QCURVE SMOOTH",
"612 1536 LINE",
"198 1536 LINE"
);
}
);
width = 904;
}
);
leftKerningGroup = uni03B9;
note = uni03B9;
rightKerningGroup = uni03B9;
unicode = 03B9;
},
{
glyphname = uni03BB;
layers = (
{
layerId = "17EDFB39-10F1-469C-9F8C-2D18680A40AF";
paths = (
{
closed = 1;
nodes = (
"1520 -26 OFFCURVE",
"1616 -11 OFFCURVE",
"1641 -3 QCURVE",
"1603 310 LINE",
"1586 309 OFFCURVE",
"1573 306 OFFCURVE",
"1562 306 QCURVE SMOOTH",
"1503 306 OFFCURVE",
"1450 386 OFFCURVE",
"1418 468 QCURVE SMOOTH",
"947 1711 LINE SMOOTH",
"886 1874 OFFCURVE",
"626 2086 OFFCURVE",
"411 2086 QCURVE SMOOTH",
"344 2086 OFFCURVE",
"233 2064 OFFCURVE",
"184 2046 QCURVE",
"280 1715 LINE",
"387 1747 OFFCURVE",
"500 1718 OFFCURVE",
"565 1613 OFFCURVE",
"598 1531 QCURVE SMOOTH",
"624 1468 LINE",
"70 0 LINE",
"508 0 LINE",
"822 914 LINE",
"842 914 LINE",
"1074 251 LINE SMOOTH",
"1115 142 OFFCURVE",
"1301 -25 OFFCURVE",
"1471 -25 QCURVE SMOOTH"
);
}
);
width = 1710;
}
);
note = uni03BB;
unicode = 03BB;
},
{
glyphname = uni03BE;
layers = (
{
layerId = "17EDFB39-10F1-469C-9F8C-2D18680A40AF";
paths = (
{
closed = 1;
nodes = (
"1286 1996 OFFCURVE",
"1095 2032 OFFCURVE",
"954 2032 QCURVE SMOOTH",
"647 2032 OFFCURVE",
"278 1747 OFFCURVE",
"278 1496 QCURVE SMOOTH",
"278 1365 OFFCURVE",
"436 1185 OFFCURVE",
"578 1135 QCURVE",
"375 1071 OFFCURVE",
"154 809 OFFCURVE",
"154 616 QCURVE SMOOTH",
"154 461 OFFCURVE",
"241 265 OFFCURVE",
"409 143 OFFCURVE",
"650 55 OFFCURVE",
"804 7 QCURVE SMOOTH",
"894 -21 LINE SMOOTH",
"976 -44 OFFCURVE",
"1047 -112 OFFCURVE",
"1047 -154 QCURVE SMOOTH",
"1047 -192 OFFCURVE",
"985 -316 OFFCURVE",
"917 -383 QCURVE",
"1132 -542 LINE",
"1210 -489 OFFCURVE",
"1363 -327 OFFCURVE",
"1464 -147 OFFCURVE",
"1465 -67 QCURVE SMOOTH",
"1468 54 OFFCURVE",
"1354 195 OFFCURVE",
"1165 273 OFFCURVE",
"1053 297 QCURVE SMOOTH",
"914 328 LINE SMOOTH",
"776 361 OFFCURVE",
"576 497 OFFCURVE",
"576 636 QCURVE SMOOTH",
"576 962 OFFCURVE",
"1023 962 QCURVE SMOOTH",
"1224 962 LINE",
"1224 1312 LINE",
"1011 1312 LINE SMOOTH",
"844 1312 OFFCURVE",
"698 1420 OFFCURVE",
"698 1499 QCURVE SMOOTH",
"698 1586 OFFCURVE",
"845 1687 OFFCURVE",
"999 1687 QCURVE SMOOTH",
"1078 1687 OFFCURVE",
"1206 1665 OFFCURVE",
"1319 1635 QCURVE",
"1383 1959 LINE"
);
}
);
width = 1618;
}
);
note = uni03BE;
unicode = 03BE;
},
{
glyphname = uni03C0;
layers = (
{
layerId = "17EDFB39-10F1-469C-9F8C-2D18680A40AF";
paths = (
{
closed = 1;
nodes = (
"179 1536 LINE",
"179 1222 LINE",
"426 1222 LINE",
"426 0 LINE",
"840 0 LINE",
"840 1222 LINE",
"1231 1222 LINE",
"1231 430 LINE SMOOTH",
"1232 190 OFFCURVE",
"1468 -18 OFFCURVE",
"1670 -18 QCURVE SMOOTH",
"1744 -18 OFFCURVE",
"1872 6 OFFCURVE",
"1925 22 QCURVE",
"1925 335 LINE",
"1902 333 OFFCURVE",
"1840 327 OFFCURVE",
"1805 327 QCURVE SMOOTH",
"1724 327 OFFCURVE",
"1643 389 OFFCURVE",
"1642 481 QCURVE SMOOTH",
"1642 1222 LINE",
"1891 1222 LINE",
"1891 1536 LINE"
);
}
);
width = 2100;
}
);
note = uni03C0;
unicode = 03C0;
},
{
glyphname = uni03C1;
layers = (
{
layerId = "17EDFB39-10F1-469C-9F8C-2D18680A40AF";
paths = (
{
closed = 1;
nodes = (
"580 -572 LINE",
"578 135 LINE",
"642 57 OFFCURVE",
"821 -28 OFFCURVE",
"946 -28 QCURVE SMOOTH",
"1136 -28 OFFCURVE",
"1407 160 OFFCURVE",
"1553 498 OFFCURVE",
"1553 724 QCURVE SMOOTH",
"1553 752 LINE SMOOTH",
"1553 968 OFFCURVE",
"1418 1331 OFFCURVE",
"1115 1550 OFFCURVE",
"863 1550 QCURVE SMOOTH",
"544 1550 OFFCURVE",
"167 1169 OFFCURVE",
"166 812 QCURVE SMOOTH",
"166 -572 LINE"
);
},
{
closed = 1;
nodes = (
"577 773 LINE SMOOTH",
"577 887 OFFCURVE",
"631 1080 OFFCURVE",
"751 1198 OFFCURVE",
"851 1198 QCURVE SMOOTH",
"958 1198 OFFCURVE",
"1084 1074 OFFCURVE",
"1139 871 OFFCURVE",
"1138 752 QCURVE SMOOTH",
"1138 724 LINE SMOOTH",
"1139 623 OFFCURVE",
"1090 433 OFFCURVE",
"967 311 OFFCURVE",
"857 311 QCURVE SMOOTH",
"746 311 OFFCURVE",
"626 434 OFFCURVE",
"579 617 OFFCURVE",
"577 709 QCURVE SMOOTH"
);
}
);
width = 1666;
}
);
leftKerningGroup = uni0250;
note = uni03C1;
rightKerningGroup = uni0062;
unicode = 03C1;
},
{
glyphname = uni03C2;
layers = (
{
layerId = "17EDFB39-10F1-469C-9F8C-2D18680A40AF";
paths = (
{
closed = 1;
nodes = (
"618 1516 OFFCURVE",
"302 1315 OFFCURVE",
"139 974 OFFCURVE",
"139 762 QCURVE SMOOTH",
"139 726 LINE SMOOTH",
"139 444 OFFCURVE",
"435 99 OFFCURVE",
"781 7 QCURVE SMOOTH",
"928 -29 OFFCURVE",
"928 -126 QCURVE SMOOTH",
"928 -166 OFFCURVE",
"864 -288 OFFCURVE",
"796 -356 QCURVE",
"1014 -516 LINE",
"1091 -464 OFFCURVE",
"1241 -304 OFFCURVE",
"1341 -122 OFFCURVE",
"1342 -39 QCURVE",
"1337 78 OFFCURVE",
"1239 208 OFFCURVE",
"1051 286 OFFCURVE",
"911 325 QCURVE SMOOTH",
"725 378 OFFCURVE",
"552 548 OFFCURVE",
"552 726 QCURVE SMOOTH",
"552 762 LINE SMOOTH",
"552 857 OFFCURVE",
"602 1051 OFFCURVE",
"731 1181 OFFCURVE",
"849 1181 QCURVE SMOOTH",
"971 1181 OFFCURVE",
"1086 1032 OFFCURVE",
"1086 928 QCURVE",
"1481 928 LINE",
"1481 1206 OFFCURVE",
"1131 1516 OFFCURVE",
"849 1516 QCURVE SMOOTH"
);
}
);
width = 1619;
}
);
leftKerningGroup = uni03B4;
note = uni03C2;
unicode = 03C2;
},
{
glyphname = uni03C3;
layers = (
{
layerId = "17EDFB39-10F1-469C-9F8C-2D18680A40AF";
paths = (
{
closed = 1;
nodes = (
"177 513 OFFCURVE",
"346 171 OFFCURVE",
"671 -28 OFFCURVE",
"904 -28 QCURVE SMOOTH",
"1128 -28 OFFCURVE",
"1441 158 OFFCURVE",
"1605 475 OFFCURVE",
"1604 672 QCURVE SMOOTH",
"1604 700 LINE SMOOTH",
"1605 836 OFFCURVE",
"1468 1073 OFFCURVE",
"1365 1153 QCURVE",
"1713 1153 LINE",
"1713 1488 LINE",
"900 1488 LINE SMOOTH",
"667 1488 OFFCURVE",
"344 1297 OFFCURVE",
"177 967 OFFCURVE",
"176 760 QCURVE SMOOTH",
"176 728 LINE SMOOTH"
);
},
{
closed = 1;
nodes = (
"599 866 OFFCURVE",
"657 1045 OFFCURVE",
"790 1153 OFFCURVE",
"900 1153 QCURVE SMOOTH",
"1006 1153 OFFCURVE",
"1129 1045 OFFCURVE",
"1182 866 OFFCURVE",
"1182 760 QCURVE SMOOTH",
"1182 728 LINE SMOOTH",
"1182 612 OFFCURVE",
"1130 420 OFFCURVE",
"1008 307 OFFCURVE",
"904 307 QCURVE SMOOTH",
"789 307 OFFCURVE",
"656 420 OFFCURVE",
"599 612 OFFCURVE",
"598 728 QCURVE SMOOTH",
"598 760 LINE SMOOTH"
);
}
);
width = 1889;
}
);
leftKerningGroup = uniE02C;
note = uni03C3;
unicode = 03C3;
},
{
glyphname = uni03C4;
layers = (
{
layerId = "17EDFB39-10F1-469C-9F8C-2D18680A40AF";
paths = (
{
closed = 1;
nodes = (
"95 1495 LINE",
"95 1162 LINE",
"566 1162 LINE",
"566 468 LINE SMOOTH",
"566 218 OFFCURVE",
"809 -28 OFFCURVE",
"1028 -28 QCURVE SMOOTH",
"1108 -28 OFFCURVE",
"1229 -9 OFFCURVE",
"1293 16 QCURVE",
"1250 331 LINE",
"1217 324 OFFCURVE",
"1159 311 OFFCURVE",
"1112 311 QCURVE SMOOTH",
"1051 311 OFFCURVE",
"979 375 OFFCURVE",
"979 466 QCURVE SMOOTH",
"979 1162 LINE",
"1487 1162 LINE",
"1487 1495 LINE"
);
}
);
width = 1578;
}
);
note = uni03C4;
unicode = 03C4;
},
{
glyphname = uni03C5;
layers = (
{
layerId = "17EDFB39-10F1-469C-9F8C-2D18680A40AF";
paths = (
{
closed = 1;
nodes = (
"170 572 LINE SMOOTH",
"170 261 OFFCURVE",
"503 -28 OFFCURVE",
"777 -28 QCURVE SMOOTH",
"1028 -28 OFFCURVE",
"1341 187 OFFCURVE",
"1487 553 OFFCURVE",
"1487 780 QCURVE SMOOTH",
"1487 999 OFFCURVE",
"1392 1410 OFFCURVE",
"1327 1536 QCURVE",
"935 1536 LINE",
"995 1365 OFFCURVE",
"1075 964 OFFCURVE",
"1080 780 QCURVE SMOOTH",
"1080 661 OFFCURVE",
"1003 444 OFFCURVE",
"862 306 OFFCURVE",
"764 306 QCURVE SMOOTH",
"692 306 OFFCURVE",
"583 419 OFFCURVE",
"584 568 QCURVE SMOOTH",
"584 1536 LINE",
"170 1536 LINE"
);
}
);
width = 1658;
}
);
leftKerningGroup = uni0250;
note = uni03C5;
rightKerningGroup = uni01F6;
unicode = 03C5;
},
{
glyphname = uni03C6;
layers = (
{
layerId = "17EDFB39-10F1-469C-9F8C-2D18680A40AF";
paths = (
{
closed = 1;
nodes = (
"1376 -576 LINE",
"1376 -20 LINE",
"1678 10 OFFCURVE",
"2034 248 OFFCURVE",
"2190 591 OFFCURVE",
"2190 778 QCURVE SMOOTH",
"2190 1002 OFFCURVE",
"2004 1336 OFFCURVE",
"1676 1522 OFFCURVE",
"1462 1522 QCURVE SMOOTH",
"1239 1522 OFFCURVE",
"979 1306 OFFCURVE",
"979 1106 QCURVE SMOOTH",
"979 327 LINE",
"765 373 OFFCURVE",
"598 641 OFFCURVE",
"598 831 QCURVE SMOOTH",
"599 960 OFFCURVE",
"698 1214 OFFCURVE",
"788 1309 QCURVE",
"502 1522 LINE",
"369 1420 OFFCURVE",
"184 1054 OFFCURVE",
"185 831 QCURVE SMOOTH",
"185 629 OFFCURVE",
"336 269 OFFCURVE",
"684 21 OFFCURVE",
"979 -15 QCURVE",
"979 -576 LINE"
);
},
{
closed = 1;
nodes = (
"1376 1044 LINE SMOOTH",
"1375 1110 OFFCURVE",
"1435 1190 OFFCURVE",
"1490 1190 QCURVE SMOOTH",
"1622 1190 OFFCURVE",
"1777 957 OFFCURVE",
"1781 778 QCURVE SMOOTH",
"1780 610 OFFCURVE",
"1602 358 OFFCURVE",
"1376 320 QCURVE"
);
}
);
width = 2374;
}
);
leftKerningGroup = uniE02C;
note = uni03C6;
rightKerningGroup = uni0062;
unicode = 03C6;
},
